<svg width="39" height="26" viewBox="0 0 39 26" fill="none" xmlns="http://www.w3.org/2000/svg">
<g filter="url(#filter0_b_2001_2)">
<rect width="39" height="26" rx="5" fill="#A09C9C" fill-opacity="0.76"/>
</g>
<g clip-path="url(#clip0_2001_2)">
<path d="M22.7812 13.1562C22.7812 14.0265 22.4355 14.8611 21.8202 15.4764C21.2048 16.0918 20.3702 16.4375 19.5 16.4375C18.6298 16.4375 17.7952 16.0918 17.1798 15.4764C16.5645 14.8611 16.2188 14.0265 16.2188 13.1562C16.2188 12.286 16.5645 11.4514 17.1798 10.8361C17.7952 10.2207 18.6298 9.875 19.5 9.875C20.3702 9.875 21.2048 10.2207 21.8202 10.8361C22.4355 11.4514 22.7812 12.286 22.7812 13.1562Z" fill="black"/>
<path d="M11.625 7.25C10.9288 7.25 10.2611 7.52656 9.76884 8.01884C9.27656 8.51113 9 9.17881 9 9.875V17.75C9 18.4462 9.27656 19.1139 9.76884 19.6062C10.2611 20.0984 10.9288 20.375 11.625 20.375H27.375C28.0712 20.375 28.7389 20.0984 29.2312 19.6062C29.7234 19.1139 30 18.4462 30 17.75V9.875C30 9.17881 29.7234 8.51113 29.2312 8.01884C28.7389 7.52656 28.0712 7.25 27.375 7.25H25.8368C25.1406 7.24985 24.473 6.97319 23.9809 6.48088L22.8941 5.39412C22.402 4.90181 21.7344 4.62515 21.0382 4.625H17.9618C17.2656 4.62515 16.598 4.90181 16.1059 5.39412L15.0191 6.48088C14.527 6.97319 13.8594 7.24985 13.1632 7.25H11.625ZM12.2812 9.875C12.1072 9.875 11.9403 9.80586 11.8172 9.68279C11.6941 9.55972 11.625 9.3928 11.625 9.21875C11.625 9.0447 11.6941 8.87778 11.8172 8.75471C11.9403 8.63164 12.1072 8.5625 12.2812 8.5625C12.4553 8.5625 12.6222 8.63164 12.7453 8.75471C12.8684 8.87778 12.9375 9.0447 12.9375 9.21875C12.9375 9.3928 12.8684 9.55972 12.7453 9.68279C12.6222 9.80586 12.4553 9.875 12.2812 9.875ZM24.0938 13.1562C24.0938 14.3746 23.6098 15.543 22.7483 16.4045C21.8868 17.266 20.7183 17.75 19.5 17.75C18.2817 17.75 17.1132 17.266 16.2517 16.4045C15.3902 15.543 14.9062 14.3746 14.9062 13.1562C14.9062 11.9379 15.3902 10.7695 16.2517 9.90798C17.1132 9.04648 18.2817 8.5625 19.5 8.5625C20.7183 8.5625 21.8868 9.04648 22.7483 9.90798C23.6098 10.7695 24.0938 11.9379 24.0938 13.1562Z" fill="black"/>
</g>
<defs>
<filter id="filter0_b_2001_2" x="-4" y="-4" width="47" height="34" filterUnits="userSpaceOnUse" color-interpolation-filters="sRGB">
<feFlood flood-opacity="0" result="BackgroundImageFix"/>
<feGaussianBlur in="BackgroundImageFix" stdDeviation="2"/>
<feComposite in2="SourceAlpha" operator="in" result="effect1_backgroundBlur_2001_2"/>
<feBlend mode="normal" in="SourceGraphic" in2="effect1_backgroundBlur_2001_2" result="shape"/>
</filter>
<clipPath id="clip0_2001_2">
<rect width="21" height="21" fill="white" transform="translate(9 2)"/>
</clipPath>
</defs>
</svg>
