<svg width="21" height="21" viewBox="0 0 21 21" fill="none" xmlns="http://www.w3.org/2000/svg">
<g clip-path="url(#clip0_84_57)">
<path d="M13.7812 11.1562C13.7812 12.0265 13.4355 12.8611 12.8202 13.4764C12.2048 14.0918 11.3702 14.4375 10.5 14.4375C9.62976 14.4375 8.79516 14.0918 8.17981 13.4764C7.56445 12.8611 7.21875 12.0265 7.21875 11.1562C7.21875 10.286 7.56445 9.45141 8.17981 8.83606C8.79516 8.2207 9.62976 7.875 10.5 7.875C11.3702 7.875 12.2048 8.2207 12.8202 8.83606C13.4355 9.45141 13.7812 10.286 13.7812 11.1562Z" fill="black"/>
<path d="M2.625 5.25C1.92881 5.25 1.26113 5.52656 0.768845 6.01884C0.276562 6.51113 0 7.17881 0 7.875L0 15.75C0 16.4462 0.276562 17.1139 0.768845 17.6062C1.26113 18.0984 1.92881 18.375 2.625 18.375H18.375C19.0712 18.375 19.7389 18.0984 20.2312 17.6062C20.7234 17.1139 21 16.4462 21 15.75V7.875C21 7.17881 20.7234 6.51113 20.2312 6.01884C19.7389 5.52656 19.0712 5.25 18.375 5.25H16.8368C16.1406 5.24985 15.473 4.97319 14.9809 4.48088L13.8941 3.39412C13.402 2.90181 12.7344 2.62515 12.0382 2.625H8.96175C8.26561 2.62515 7.59804 2.90181 7.10588 3.39412L6.01912 4.48088C5.52696 4.97319 4.85939 5.24985 4.16325 5.25H2.625ZM3.28125 7.875C3.1072 7.875 2.94028 7.80586 2.81721 7.68279C2.69414 7.55972 2.625 7.3928 2.625 7.21875C2.625 7.0447 2.69414 6.87778 2.81721 6.75471C2.94028 6.63164 3.1072 6.5625 3.28125 6.5625C3.4553 6.5625 3.62222 6.63164 3.74529 6.75471C3.86836 6.87778 3.9375 7.0447 3.9375 7.21875C3.9375 7.3928 3.86836 7.55972 3.74529 7.68279C3.62222 7.80586 3.4553 7.875 3.28125 7.875ZM15.0938 11.1562C15.0938 12.3746 14.6098 13.543 13.7483 14.4045C12.8868 15.266 11.7183 15.75 10.5 15.75C9.28166 15.75 8.11322 15.266 7.25173 14.4045C6.39023 13.543 5.90625 12.3746 5.90625 11.1562C5.90625 9.93791 6.39023 8.76947 7.25173 7.90798C8.11322 7.04648 9.28166 6.5625 10.5 6.5625C11.7183 6.5625 12.8868 7.04648 13.7483 7.90798C14.6098 8.76947 15.0938 9.93791 15.0938 11.1562Z" fill="black"/>
</g>
<defs>
<clipPath id="clip0_84_57">
<rect width="21" height="21" fill="white"/>
</clipPath>
</defs>
</svg>
