<svg width="34" height="34" viewBox="0 0 34 34" fill="none" xmlns="http://www.w3.org/2000/svg">
<g clip-path="url(#clip0_1575_94)">
<path d="M16.9987 34C7.61094 34 0 26.3884 0 17C0 7.61163 7.61094 0 16.9987 0C26.3891 0 33.9991 7.61163 33.9991 17C34 26.3884 26.3891 34 16.9987 34Z" fill="#00D532"/>
<path fill-rule="evenodd" clip-rule="evenodd" d="M19.0854 7.1641C20.9765 7.16589 21.0953 7.26057 20.6996 8.86044C20.5477 9.47144 20.7068 9.69923 21.2302 9.88592C22.0047 10.1637 22.6818 10.6184 23.3259 11.1285C23.8333 11.5296 23.8288 11.9038 23.4063 12.3978C22.3174 13.6699 22.2861 13.6913 20.9167 12.832C19.7545 12.1039 18.4878 11.8074 17.1309 11.9717C16.368 12.0637 15.6337 12.3112 15.4649 13.1741C15.2871 14.0754 15.9258 14.514 16.6404 14.815C17.7115 15.2661 18.8192 15.6342 19.8733 16.1228C22.0735 17.1447 22.9141 18.3819 22.7676 20.2989C22.6015 22.4624 21.3347 23.7478 19.3704 24.441C18.9327 24.5964 18.4753 24.776 18.0233 24.7867C17.3238 24.801 17.0692 25.0886 17.0424 25.7604C17.0094 26.626 16.5207 26.9976 15.648 26.8913C15.2621 26.8439 14.8699 26.8672 14.4786 26.8707C13.6711 26.8761 13.3799 26.3928 13.6398 25.7336C14.0374 24.7322 13.6657 24.3347 12.7305 24.0989C12.2945 23.989 11.8943 23.6924 11.5075 23.4361C9.92548 22.3945 9.9237 22.1489 11.2333 20.8474C11.7809 20.3033 12.1891 20.2176 12.8001 20.767C14.0266 21.8711 15.5238 22.2185 17.1425 22.0667C18.093 21.9756 18.9514 21.6477 19.147 20.6044C19.3409 19.5628 18.4932 19.2171 17.7285 18.8929C16.694 18.4552 15.6256 18.0907 14.6198 17.5985C12.5473 16.5864 11.7255 15.1536 11.964 13.1437C12.1748 11.3688 13.5478 9.93595 15.5372 9.4366C15.9508 9.33388 16.3733 9.23204 16.795 9.20971C17.1907 9.18917 17.331 9.04088 17.3515 8.65677C17.4194 7.43208 18.0322 6.88361 19.0854 7.1641Z" fill="#FEFEFE"/>
</g>
<defs>
<clipPath id="clip0_1575_94">
<rect width="34" height="34" fill="white"/>
</clipPath>
</defs>
</svg>
