<svg width="53" height="51" viewBox="0 0 53 51" fill="none" xmlns="http://www.w3.org/2000/svg">
<path fill-rule="evenodd" clip-rule="evenodd" d="M25.2984 2.91005C25.3459 2.9648 25.415 2.9498 25.4745 2.96405C26.0919 3.1148 26.5184 3.4868 26.7079 4.09955C26.956 4.9013 26.5897 5.73755 25.8311 6.10205C25.5978 6.13805 25.5755 6.2933 25.577 6.4988C25.5844 8.01305 25.5807 9.5273 25.5807 11.0423C25.5807 11.0978 25.5792 11.1541 25.5815 11.2096C25.5822 11.2396 25.5718 11.2756 25.6038 11.2951C25.6402 11.3183 25.6617 11.2831 25.6825 11.2643C25.7241 11.2268 25.7613 11.1863 25.8007 11.1466C26.5206 10.4198 27.2406 9.69305 27.9613 8.96555C27.9999 8.92655 28.0386 8.88605 28.0794 8.8478C28.2184 8.7188 28.3811 8.6468 28.572 8.6498C28.659 8.65055 28.7459 8.6498 28.8328 8.6498C29.9146 8.6498 30.9964 8.6513 32.0782 8.65205C32.1339 8.65205 32.1889 8.6513 32.2446 8.6513C32.3271 8.65055 32.3999 8.62205 32.4586 8.5643C32.6778 8.3453 32.894 8.1248 33.114 7.90655C33.166 7.85555 33.1437 7.8068 33.1199 7.7558C32.9914 7.48355 32.9431 7.19705 32.9624 6.8963C33.0092 6.16805 33.5701 5.5388 34.2782 5.39555C35.1126 5.2268 36.0517 5.7548 36.2234 6.7433C36.3779 7.63805 35.8251 8.43605 34.9856 8.6468C34.6609 8.7278 34.3436 8.69855 34.0308 8.58905C33.9788 8.5703 33.9268 8.55005 33.8777 8.52455C33.8109 8.4908 33.7604 8.5073 33.7091 8.55905C33.5427 8.73005 33.3733 8.89655 33.2061 9.06605C33.111 9.1613 33.0151 9.25655 32.923 9.3548C32.7952 9.49055 32.6407 9.55055 32.4564 9.5483C32.2276 9.54605 31.9987 9.5468 31.7699 9.5483C31.7253 9.5483 31.6807 9.5558 31.622 9.56105C31.6555 9.6488 31.7141 9.6908 31.7624 9.73955C32.1354 10.1176 32.5099 10.4941 32.8836 10.8728C32.9334 10.9231 32.9862 10.9741 33.0255 11.0326C33.1474 11.2096 33.1318 11.4316 32.9928 11.5823C32.8442 11.7436 32.6191 11.7728 32.4326 11.6491C32.368 11.6056 32.3108 11.5478 32.2558 11.4916C31.6971 10.9291 31.1391 10.3643 30.5811 9.80105C30.5417 9.7613 30.5001 9.7238 30.4644 9.6818C30.376 9.57455 30.2631 9.54305 30.1279 9.54455C29.6939 9.54905 29.2593 9.55055 28.8246 9.54455C28.6872 9.54305 28.5869 9.59255 28.4918 9.6893C27.5675 10.6268 26.6402 11.5621 25.7122 12.4958C25.6231 12.5851 25.5755 12.6788 25.5763 12.8108C25.5807 14.0708 25.5792 15.3293 25.58 16.5886C25.58 16.6193 25.5852 16.6493 25.5882 16.6793C25.6654 16.6958 25.6892 16.6336 25.7256 16.5983C26.2576 16.0643 26.7874 15.5281 27.3179 14.9926C27.3676 14.9423 27.4174 14.8898 27.4687 14.8403C27.5883 14.7256 27.7302 14.6648 27.8959 14.6633C27.9747 14.6633 28.0542 14.6626 28.1329 14.6633C30.7705 14.6641 33.4074 14.6656 36.0443 14.6663C36.0919 14.6663 36.1394 14.6648 36.1862 14.6671C36.3296 14.6738 36.4448 14.6206 36.5458 14.5178C37.219 13.8338 37.8936 13.1521 38.5683 12.4688C38.5906 12.4463 38.6121 12.4216 38.6329 12.3983C38.6567 12.3728 38.6611 12.3413 38.6485 12.3106C38.6233 12.2438 38.592 12.1786 38.5675 12.1111C38.2414 11.2343 38.7109 10.1581 39.7437 9.92105C40.8448 9.6698 41.7282 10.5308 41.7579 11.4676C41.7832 12.2866 41.2497 12.9931 40.4518 13.1708C40.1613 13.2353 39.8707 13.2188 39.5877 13.1183C39.5208 13.0943 39.4547 13.0688 39.3885 13.0418C39.3462 13.0253 39.312 13.0351 39.2801 13.0643C39.257 13.0853 39.2347 13.1093 39.2124 13.1311C38.7548 13.5931 38.2963 14.0551 37.8386 14.5178C37.8104 14.5456 37.7829 14.5741 37.7599 14.6056C37.7443 14.6273 37.7547 14.6581 37.7785 14.6596C37.8491 14.6663 37.9196 14.6656 37.991 14.6656C39.4361 14.6663 40.8812 14.6671 42.3256 14.6671C42.4043 14.6671 42.4838 14.6641 42.5626 14.6723C42.81 14.6963 42.9742 14.8763 42.9713 15.1133C42.969 15.3518 42.8011 15.5273 42.5537 15.5453C42.4749 15.5521 42.3954 15.5483 42.3167 15.5483C39.3321 15.5483 36.3475 15.5483 33.3629 15.5483C33.2841 15.5483 33.2053 15.5498 33.1258 15.5521C33.0946 15.5528 33.0738 15.5963 33.0939 15.6203C33.1355 15.6676 33.1786 15.7148 33.2224 15.7606C33.5219 16.0673 33.822 16.3733 34.12 16.6816C34.169 16.7318 34.2195 16.7851 34.2559 16.8451C34.3637 17.0213 34.3302 17.2531 34.1831 17.3918C34.033 17.5336 33.8064 17.5523 33.6385 17.4308C33.5746 17.3843 33.5204 17.3243 33.4654 17.2681C32.9824 16.7753 32.5002 16.2818 32.0173 15.7876C31.9727 15.7418 31.9281 15.6968 31.8843 15.6511C31.8137 15.5791 31.729 15.5446 31.6287 15.5476C31.5893 15.5491 31.5499 15.5476 31.5106 15.5476C30.4369 15.5468 29.3626 15.5468 28.2889 15.5468C28.2414 15.5468 28.1946 15.5468 28.147 15.5468C28.0556 15.5491 27.9784 15.5836 27.913 15.6466C27.8966 15.6623 27.8796 15.6803 27.8625 15.6968C27.1477 16.4183 26.4344 17.1406 25.7174 17.8598C25.6209 17.9566 25.5688 18.0586 25.5755 18.1973C25.583 18.3481 25.5778 18.4996 25.5778 18.6511C25.5778 23.9993 25.5778 29.3476 25.5778 34.6958C25.5778 35.0573 25.6253 35.0086 25.2642 35.0123C25.1141 35.0146 24.964 35.0146 24.814 35.0116C24.7122 35.0101 24.6973 34.9913 24.6936 34.8811C24.6921 34.8256 24.6929 34.7701 24.6929 34.7138C24.6936 30.2018 24.6951 25.6913 24.6958 21.1801C24.6958 20.7376 24.6936 20.7301 24.389 20.4233C23.2381 19.2631 22.0872 18.1021 20.9363 16.9418C20.8917 16.8968 20.8471 16.8518 20.8018 16.8068C20.6666 16.6726 20.6651 16.6681 20.4801 16.7476C19.6502 17.1016 18.6568 16.7071 18.3105 15.8153C17.9115 14.7878 18.6033 13.6973 19.6279 13.5638C20.5091 13.4491 21.307 14.0566 21.469 14.9138C21.527 15.2213 21.4876 15.5153 21.3873 15.8056C21.3687 15.8581 21.3457 15.9098 21.3256 15.9608C21.3115 15.9946 21.3211 16.0253 21.3412 16.0501C21.3657 16.0816 21.3954 16.1078 21.4229 16.1356C22.4609 17.1841 23.4996 18.2326 24.5391 19.2796C24.5755 19.3171 24.6015 19.3726 24.6646 19.3718C24.7085 19.3328 24.6906 19.2818 24.6906 19.2376C24.6929 18.1216 24.6899 17.0056 24.6973 15.8896C24.6988 15.7178 24.62 15.6091 24.5108 15.4988C23.4714 14.4518 22.4334 13.4026 21.3954 12.3548C21.3115 12.2701 21.2268 12.1861 21.1443 12.1006C21.0685 12.0218 20.9794 11.9821 20.8694 11.9866C20.775 11.9888 20.6799 11.9866 20.5848 11.9866C18.8559 11.9866 17.1269 11.9881 15.3973 11.9888C15.3259 11.9888 15.2553 11.9888 15.184 11.9888C14.976 11.9888 14.8014 11.9161 14.6543 11.7646C14.3563 11.4578 14.0524 11.1548 13.7515 10.8496C13.7129 10.8106 13.6668 10.7753 13.6349 10.7318C13.5257 10.5773 13.3964 10.5391 13.2344 10.6493C12.5486 10.8788 11.9304 10.7633 11.4341 10.2248C10.9601 9.7103 10.8553 9.0953 11.1265 8.4503C11.394 7.8143 11.8933 7.4768 12.5821 7.4423C13.3741 7.40255 14.0524 7.96055 14.2293 8.6843C14.308 9.0098 14.2947 9.3323 14.1899 9.6503C14.1676 9.71855 14.1401 9.78455 14.1126 9.85055C14.0918 9.90005 14.0985 9.9428 14.1357 9.98105C14.1862 10.0313 14.2352 10.0831 14.2857 10.1341C14.5592 10.4108 14.8348 10.6846 15.1045 10.9643C15.1937 11.0573 15.2903 11.0963 15.4188 11.0956C16.1692 11.0911 16.9189 11.0926 17.6693 11.0918C17.7005 11.0918 17.7325 11.0896 17.7637 11.0873C17.7949 11.0843 17.812 11.0423 17.7897 11.0168C17.7481 10.9696 17.705 10.9223 17.6604 10.8773C17.4769 10.6906 17.2919 10.5053 17.1084 10.3186C17.0155 10.2256 16.9575 10.1176 16.9575 9.9803C16.9583 9.6443 17.2971 9.4373 17.595 9.5918C17.6738 9.63305 17.7332 9.6968 17.7949 9.7583C18.1523 10.1183 18.5097 10.4798 18.867 10.8406C18.9005 10.8743 18.9369 10.9058 18.9666 10.9426C19.0587 11.0558 19.1739 11.1008 19.3203 11.0948C19.5409 11.0858 19.7623 11.0926 19.9838 11.0918C20.3307 11.0918 20.6792 11.1023 21.0254 11.0866C21.2847 11.0753 21.4757 11.1751 21.6533 11.3566C22.5865 12.3076 23.5264 13.2526 24.4648 14.1991C24.5242 14.2591 24.5874 14.3146 24.6624 14.3851C24.7018 14.2973 24.6906 14.2261 24.6906 14.1571C24.6914 13.2166 24.6921 12.2761 24.6921 11.3356C24.6921 11.0806 24.6884 10.8248 24.6943 10.5706C24.6973 10.4333 24.6602 10.3201 24.5584 10.2293C24.5235 10.1971 24.4915 10.1611 24.4581 10.1273C23.0063 8.6408 21.5537 7.15205 20.1026 5.6648C20.0365 5.5973 19.9741 5.52455 19.9132 5.4518C19.8121 5.3318 19.8121 5.0843 19.905 4.95605C20.012 4.80905 20.1576 4.74605 20.3382 4.76855C20.4117 4.7768 20.4756 4.8083 20.5299 4.85405C20.5841 4.90055 20.6354 4.9508 20.6851 5.00105C21.9482 6.29555 23.2106 7.5908 24.4766 8.8838C24.5324 8.9408 24.5628 9.03755 24.6646 9.03905C24.7047 8.9648 24.6854 8.88455 24.6854 8.8073C24.6884 8.02655 24.6891 7.24505 24.6906 6.4643C24.6906 6.41705 24.6884 6.3683 24.6906 6.32105C24.6951 6.2393 24.6639 6.1898 24.5836 6.15905C24.3459 6.0668 24.1334 5.9333 23.9528 5.7473C23.0991 4.8623 23.4803 3.36305 24.6505 3.00155C24.7545 2.9693 24.8719 2.9813 24.964 2.9093C25.0777 2.91005 25.1877 2.91005 25.2984 2.91005Z" fill="white"/>
<path fill-rule="evenodd" clip-rule="evenodd" d="M17.8974 48.612C17.8632 48.5722 17.8134 48.582 17.7689 48.5737C17.6589 48.5542 17.5489 48.5385 17.4397 48.513C17.0972 48.4335 16.8416 48.219 16.6172 47.9595C16.5139 47.8402 16.4225 47.7097 16.3386 47.574C14.762 45.0075 13.1861 42.441 11.6087 39.8752C11.1725 39.1635 10.7357 38.4532 10.298 37.743C10.2706 37.6972 10.2416 37.6522 10.2193 37.6042C10.2081 37.5825 10.2081 37.5517 10.2475 37.548C10.2936 37.5442 10.3389 37.5442 10.385 37.5442C11.2208 37.5442 12.056 37.5442 12.8911 37.5442C12.9305 37.5442 12.9706 37.5457 13.0092 37.5457C13.0449 37.5465 13.0724 37.5615 13.0917 37.5922C13.1207 37.6365 13.1497 37.6807 13.1764 37.7257C14.4061 39.7515 15.6365 41.7772 16.8661 43.803C17.2443 44.4255 17.6225 45.048 17.9999 45.6712C18.0371 45.7327 18.0772 45.7935 18.1188 45.8595C18.1953 45.8332 18.2124 45.762 18.2451 45.7102C18.5349 45.2347 18.8217 44.7585 19.11 44.283C20.1152 42.6232 21.1183 40.9642 22.1228 39.3045C22.4378 38.7847 22.7529 38.2627 23.0679 37.7415C23.085 37.7137 23.1058 37.6867 23.1192 37.6567C23.16 37.5652 23.2299 37.5435 23.325 37.5442C24.1668 37.5472 25.0086 37.5457 25.8504 37.5457C25.8764 37.5457 25.9024 37.5457 25.9292 37.5472C25.9812 37.5502 26.002 37.581 25.9782 37.6237C25.9566 37.665 25.9314 37.704 25.9069 37.7422C24.192 40.5187 22.4779 43.296 20.7624 46.0725C20.4741 46.5397 20.1858 47.0077 19.8968 47.4742C19.7712 47.6775 19.6375 47.8725 19.4755 48.051C19.1902 48.3645 18.8388 48.5332 18.4219 48.573C18.364 48.5805 18.3023 48.5692 18.2525 48.6127C18.1344 48.612 18.0155 48.612 17.8974 48.612Z" fill="white"/>
<path fill-rule="evenodd" clip-rule="evenodd" d="M2.1123 37.5389C2.84118 37.5397 3.57006 37.5397 4.29894 37.5397C4.35838 37.5397 4.41782 37.5419 4.47577 37.5434C4.4988 37.5442 4.50772 37.5614 4.51886 37.5794C4.4297 37.6567 4.32048 37.6424 4.21721 37.6424C3.65922 37.6432 3.10123 37.6424 2.54324 37.6432C2.26759 37.6432 2.2557 37.6552 2.2557 37.9349C2.25496 40.2232 2.2557 42.5107 2.25347 44.7967C2.25347 44.9182 2.28617 45.0524 2.18512 45.1559C2.13831 45.1094 2.16654 45.0307 2.1123 44.9872C2.1123 42.5039 2.1123 40.0207 2.1123 37.5389Z" fill="white"/>
<path fill-rule="evenodd" clip-rule="evenodd" d="M30.7146 48.3465C29.2873 48.3465 27.8607 48.3465 26.4334 48.3465C26.1652 48.3465 26.1935 48.3697 26.1935 48.0982C26.192 47.58 26.1927 47.0617 26.1927 46.5442C26.1927 46.512 26.192 46.4782 26.1927 46.4445C26.1964 46.3095 26.1964 46.308 26.3227 46.305C26.3688 46.3035 26.4149 46.305 26.4609 46.305C27.4209 46.305 28.3816 46.305 29.3415 46.305C30.9724 46.305 32.604 46.305 34.2341 46.305C34.4444 46.305 34.6554 46.3057 34.8635 46.2615C34.96 46.242 35.0551 46.2157 35.1458 46.1782C35.2996 46.1115 35.4058 46.0005 35.4608 45.84C35.5047 45.7147 35.5292 45.585 35.5299 45.4507C35.5299 45.2182 35.5284 44.985 35.5307 44.7525C35.5307 44.6512 35.5121 44.5537 35.4868 44.4577C35.4274 44.232 35.2907 44.0715 35.073 43.9845C34.8999 43.9147 34.7193 43.8825 34.5343 43.8735C34.4229 43.8675 34.3107 43.8697 34.1992 43.8697C32.5743 43.8697 30.9494 43.869 29.3259 43.8697C28.9373 43.8697 28.5502 43.8532 28.1661 43.7917C27.8867 43.746 27.6133 43.674 27.354 43.5562C26.8302 43.3147 26.4951 42.9127 26.3465 42.3517C26.2789 42.0945 26.2373 41.832 26.2261 41.5657C26.2053 41.082 26.2031 40.5975 26.2269 40.113C26.2447 39.7537 26.3064 39.4012 26.4216 39.06C26.637 38.4195 27.0568 37.9852 27.6928 37.7707C27.8236 37.725 27.9573 37.6882 28.0918 37.6582C28.4336 37.5802 28.7806 37.5547 29.129 37.548C29.4255 37.542 29.7212 37.5457 30.0169 37.5457C32.3715 37.5457 34.726 37.5457 37.0806 37.5457C37.3451 37.5457 37.3205 37.5142 37.3213 37.794C37.322 38.3107 37.3213 38.829 37.3213 39.3465C37.3213 39.3735 37.3213 39.3997 37.3213 39.4267C37.3198 39.594 37.3198 39.5947 37.1615 39.5977C37.1162 39.5977 37.0701 39.5977 37.0241 39.5977C34.5707 39.5977 32.1173 39.5977 29.6647 39.5977C29.5198 39.5977 29.375 39.6007 29.2308 39.606C29.0986 39.612 28.9715 39.6442 28.8474 39.693C28.6587 39.7687 28.5309 39.9015 28.4685 40.098C28.4284 40.2247 28.4009 40.3545 28.3979 40.4887C28.3942 40.701 28.3949 40.9132 28.3957 41.1262C28.3964 41.2402 28.4217 41.3497 28.4551 41.457C28.5198 41.661 28.6543 41.7975 28.8534 41.868C29.0094 41.9235 29.1729 41.9452 29.3371 41.9512C29.4292 41.955 29.5213 41.9542 29.6135 41.9542C31.199 41.9542 32.7838 41.9542 34.3686 41.9542C34.7104 41.9542 35.0529 41.9587 35.3925 42.0015C35.6993 42.0412 36.0032 42.0967 36.2952 42.201C37.0181 42.4612 37.4602 42.9712 37.6185 43.7295C37.6683 43.9695 37.7039 44.2125 37.7054 44.4592C37.7084 44.9107 37.7091 45.3622 37.7047 45.8145C37.7017 46.1002 37.6571 46.3822 37.5895 46.6597C37.4238 47.3452 37.0077 47.8042 36.3628 48.0622C36.0552 48.1845 35.735 48.2527 35.4081 48.2962C35.0678 48.3435 34.7267 48.3472 34.3842 48.3472C33.1613 48.348 31.9383 48.3465 30.7146 48.3465Z" fill="white"/>
<path fill-rule="evenodd" clip-rule="evenodd" d="M16.3412 24.7891C16.2639 24.7343 16.2 24.7523 16.1399 24.7501C15.2007 24.7186 14.2608 24.7291 13.3217 24.7268C12.2235 24.7246 11.1261 24.7276 10.0287 24.7291C9.87048 24.7291 9.71222 24.7403 9.55471 24.7321C9.37045 24.7216 9.2263 24.7568 9.18767 24.9676C8.86595 25.6118 8.34957 25.9621 7.63481 25.9478C6.74693 25.9306 6.17631 25.2451 6.05669 24.5551C5.891 23.6003 6.62731 22.5946 7.73957 22.6253C8.33545 22.6411 8.78942 22.9321 9.10148 23.4451C9.13046 23.4923 9.16538 23.5403 9.17801 23.5928C9.22482 23.7908 9.34518 23.8358 9.5391 23.8343C11.1417 23.8261 12.7444 23.8306 14.3478 23.8283C14.4317 23.8283 14.5179 23.8441 14.61 23.8103C14.59 23.7278 14.5276 23.6881 14.4793 23.6401C13.9465 23.1068 13.4123 22.5751 12.8789 22.0426C12.8283 21.9931 12.7756 21.9436 12.731 21.8881C12.5876 21.7096 12.598 21.4606 12.7466 21.2986C12.9071 21.1238 13.1991 21.1283 13.3477 21.2701C13.4279 21.3473 13.5082 21.4238 13.5869 21.5026C14.2943 22.2091 15.0009 22.9156 15.7074 23.6228C15.7468 23.6618 15.7855 23.7008 15.8256 23.7406C15.8962 23.8103 15.9809 23.8478 16.0812 23.8471C16.1361 23.8471 16.1919 23.8478 16.2469 23.8478C17.952 23.8478 19.6579 23.8471 21.3631 23.8471C21.6306 23.8471 21.6425 23.8741 21.6417 23.5786C21.6402 23.0678 21.6365 22.5586 21.6454 22.0486C21.6484 21.8813 21.5927 21.7643 21.4775 21.6496C20.6261 20.7961 19.7761 19.9411 18.9328 19.0786C18.7983 18.9406 18.6594 18.8896 18.4721 18.8903C16.0009 18.8948 13.529 18.8933 11.0578 18.8933C11.0102 18.8933 10.9627 18.8918 10.9151 18.8941C10.7806 18.8993 10.6692 18.8461 10.5719 18.7576C10.5362 18.7253 10.5043 18.6901 10.4708 18.6563C9.86751 18.0473 9.26345 17.4398 8.66014 16.8308C8.63191 16.8031 8.60219 16.7768 8.57693 16.7461C8.52269 16.6846 8.46771 16.6748 8.38895 16.7123C8.15714 16.8211 7.91418 16.8796 7.65562 16.8758C6.85318 16.8653 6.1778 16.2578 6.05075 15.4553C5.91701 14.6078 6.51363 13.5803 7.64298 13.5511C8.51452 13.5278 9.12154 14.1368 9.285 14.8351C9.36004 15.1553 9.33181 15.4681 9.23076 15.7763C9.21367 15.8296 9.19733 15.8843 9.17058 15.9331C9.12897 16.0096 9.14903 16.0643 9.20699 16.1221C9.42097 16.3343 9.63124 16.5496 9.84373 16.7641C10.2063 17.1308 10.5711 17.4953 10.93 17.8651C11.0318 17.9708 11.1417 18.0151 11.2866 18.0143C12.4947 18.0106 13.7028 18.0113 14.911 18.0098C14.9422 18.0098 14.9741 18.0083 15.0053 18.0053C15.0365 18.0031 15.0581 17.9588 15.0373 17.9363C15.0009 17.8943 14.9622 17.8546 14.9236 17.8148C14.7341 17.6228 14.5447 17.4301 14.3537 17.2388C14.2608 17.1458 14.1992 17.0401 14.1992 16.9028C14.1977 16.5646 14.5291 16.3531 14.83 16.5016C14.9095 16.5406 14.9696 16.6051 15.0306 16.6673C15.4102 17.0513 15.7936 17.4308 16.1666 17.8193C16.2966 17.9558 16.4348 18.0188 16.625 18.0158C17.3279 18.0061 18.0308 18.0106 18.7329 18.0113C18.8191 18.0113 18.9068 18.0128 18.9922 18.0263C19.0955 18.0428 19.1854 18.0961 19.2619 18.1673C19.3199 18.2206 19.3756 18.2776 19.4313 18.3346C20.3586 19.2698 21.2851 20.2051 22.2116 21.1411C22.245 21.1748 22.2785 21.2086 22.3119 21.2423C22.4427 21.3713 22.511 21.5273 22.5103 21.7126C22.5103 21.7681 22.511 21.8243 22.511 21.8806C22.5103 26.1691 22.5103 30.4568 22.5088 34.7446C22.5088 35.0393 22.537 35.0101 22.2406 35.0101C22.0667 35.0116 21.8936 35.0093 21.7197 35.0071C21.6752 35.0063 21.6454 34.9838 21.6432 34.9358C21.641 34.8563 21.6395 34.7761 21.6395 34.6966C21.6395 31.4933 21.6395 28.2886 21.6395 25.0853C21.6395 25.0133 21.641 24.9421 21.6388 24.8701C21.635 24.7561 21.615 24.7358 21.4969 24.7298C21.4419 24.7268 21.3861 24.7291 21.3312 24.7291C20.21 24.7283 19.0888 24.7276 17.9676 24.7276C17.9126 24.7276 17.8577 24.7283 17.8019 24.7283C17.7276 24.7291 17.663 24.7546 17.6102 24.8063C17.5709 24.8461 17.5315 24.8843 17.4921 24.9241C16.8338 25.5901 16.1755 26.2553 15.5172 26.9198C15.4838 26.9543 15.4519 26.9896 15.4169 27.0226C15.3686 27.0676 15.3686 27.1163 15.3946 27.1726C15.4578 27.3106 15.5068 27.4531 15.5351 27.6023C15.7134 28.5398 15.0484 29.5426 13.9443 29.5733C13.1694 29.5943 12.5193 29.0738 12.3253 28.3501C12.0757 27.4193 12.6508 26.4173 13.7036 26.2576C13.9733 26.2171 14.2393 26.2553 14.4956 26.3506C14.5476 26.3693 14.5982 26.3911 14.6487 26.4143C14.6903 26.4338 14.7252 26.4226 14.7557 26.3933C14.7787 26.3716 14.801 26.3491 14.8233 26.3266C15.2981 25.8473 15.7728 25.3688 16.2469 24.8896C16.2781 24.8618 16.3026 24.8311 16.3412 24.7891Z" fill="white"/>
<path fill-rule="evenodd" clip-rule="evenodd" d="M27.7608 28.275C27.7608 26.1307 27.7608 23.9865 27.7608 21.8422C27.7608 21.795 27.7615 21.747 27.7608 21.6997C27.7586 21.531 27.8202 21.3885 27.9354 21.2692C28.029 21.1725 28.1249 21.0772 28.22 20.982C28.7051 20.4907 29.1963 20.0055 29.6725 19.5067C29.862 19.3072 30.0723 19.2225 30.3442 19.2232C32.3258 19.23 34.3081 19.2247 36.2896 19.2322C36.4865 19.233 36.6292 19.2097 36.6686 18.9885C36.9442 18.3705 37.5928 17.9377 38.3633 18.0202C39.029 18.0907 39.6227 18.6067 39.7728 19.2915C40.0343 20.4862 39.0833 21.3427 38.2028 21.3345C37.5423 21.327 37.0586 21.0292 36.7228 20.466C36.6983 20.4247 36.6775 20.382 36.6582 20.3385C36.5467 20.091 36.6099 20.1232 36.3089 20.1225C34.4143 20.121 32.5189 20.121 30.6243 20.121C30.5931 20.121 30.5611 20.1232 30.5299 20.121C30.3754 20.1052 30.261 20.1697 30.154 20.28C29.7052 20.7405 29.2527 21.1965 28.7973 21.6495C28.6947 21.7515 28.6405 21.858 28.642 22.0065C28.6472 22.5637 28.6442 23.1217 28.6442 23.6797C28.6442 23.688 28.6442 23.6955 28.6442 23.703C28.6487 23.8125 28.6658 23.832 28.7646 23.8365C28.8359 23.8395 28.9072 23.8387 28.9786 23.8387C32.2314 23.8387 35.485 23.8387 38.7378 23.8387C39.4013 23.8387 40.064 23.8387 40.7275 23.8387C40.7907 23.838 40.8538 23.8387 40.917 23.8365C40.9683 23.835 41.0069 23.8132 41.0262 23.7615C41.05 23.703 41.0715 23.643 41.1005 23.586C41.4141 22.9582 41.9223 22.6207 42.6162 22.6252C43.4461 22.6305 44.1639 23.2522 44.2382 24.1575C44.3117 25.0635 43.6661 25.7925 42.8718 25.9237C42.1206 26.0482 41.3999 25.671 41.0931 24.9622C41.021 24.7957 40.9393 24.7432 40.7647 24.744C38.5617 24.75 36.3587 24.7477 34.1558 24.75C34.0837 24.75 33.9782 24.7035 33.9462 24.7905C33.9239 24.8497 34.0176 24.9022 34.0644 24.9532C34.4968 25.4182 34.9448 25.8682 35.3973 26.313C35.4315 26.3467 35.4657 26.3797 35.5021 26.4112C35.534 26.439 35.5704 26.4465 35.6113 26.427C35.6544 26.4082 35.6975 26.388 35.742 26.37C36.6277 26.0032 37.7585 26.4727 37.9777 27.5992C38.1813 28.6462 37.3893 29.511 36.4895 29.5672C35.5838 29.625 34.9091 29.0137 34.7516 28.2615C34.69 27.9667 34.7085 27.675 34.7992 27.3885C34.8207 27.3195 34.8423 27.2505 34.875 27.1875C34.9166 27.108 34.8913 27.0525 34.8326 26.9992C34.7977 26.967 34.7658 26.931 34.7323 26.8972C34.08 26.2372 33.4261 25.5772 32.773 24.918C32.7396 24.8835 32.7062 24.8505 32.672 24.8167C32.6126 24.7605 32.542 24.7282 32.4588 24.7282C32.4119 24.729 32.3644 24.7275 32.3168 24.7275C31.1875 24.7282 30.0589 24.7282 28.9295 24.7297C28.6286 24.7297 28.645 24.7057 28.645 25.011C28.645 28.2307 28.645 31.4512 28.6442 34.6717C28.6442 35.0632 28.6947 35.007 28.3039 35.0107C28.1538 35.013 28.0038 35.0107 27.8537 35.0092C27.7987 35.0085 27.7653 34.9822 27.7645 34.923C27.7638 34.851 27.763 34.7797 27.763 34.7085C27.7615 32.5635 27.7615 30.4192 27.7608 28.275Z" fill="white"/>
<path fill-rule="evenodd" clip-rule="evenodd" d="M2.18457 45.1552C2.18754 45.1087 2.19349 45.0637 2.19349 45.0165C2.19274 42.615 2.192 40.215 2.19126 37.8127C2.19126 37.767 2.19051 37.7205 2.192 37.674C2.19646 37.6005 2.21429 37.5847 2.29082 37.5802C2.34283 37.5772 2.39632 37.5787 2.44833 37.5787C3.13857 37.5787 3.82807 37.5787 4.51831 37.5787C4.52129 37.6575 4.52797 37.737 4.52797 37.8165C4.52797 40.026 4.52797 42.2377 4.52797 44.4487C4.52797 44.7142 4.54283 44.9797 4.59336 45.24C4.6892 45.732 4.97971 46.041 5.453 46.1782C5.73385 46.26 6.02288 46.278 6.31116 46.2907C6.43598 46.296 6.56155 46.293 6.68637 46.293C8.6397 46.293 10.593 46.2915 12.5464 46.293C12.8354 46.293 12.7982 46.2615 12.7997 46.5457C12.8012 47.0692 12.7997 47.5942 12.7997 48.12C12.7997 48.1717 12.799 48.2257 12.7975 48.279C12.7968 48.3187 12.773 48.3405 12.7366 48.3427C12.6912 48.348 12.6444 48.3465 12.5984 48.3465C10.4608 48.3465 8.32393 48.3465 6.18559 48.3465C5.81112 48.3465 5.43591 48.3367 5.06367 48.2917C4.62531 48.2377 4.19437 48.1567 3.78126 47.9902C3.05387 47.6947 2.58282 47.1705 2.36735 46.4122C2.25293 46.002 2.1868 45.582 2.18457 45.1552Z" fill="white"/>
<path d="M51.8237 48.2932C51.8177 48.2895 51.814 48.285 51.8081 48.2827C49.8205 47.1232 47.8338 45.9645 45.8478 44.8057C45.8307 44.7945 45.8136 44.787 45.7957 44.7765C45.7846 44.7697 45.7749 44.7607 45.7638 44.7532C45.7586 44.7502 45.7519 44.7465 45.7482 44.7405C45.7452 44.736 45.7467 44.7285 45.7423 44.6947C45.824 44.6947 45.8961 44.6962 45.9674 44.6947C46.6911 44.6887 47.414 44.7075 48.1369 44.679C48.5783 44.6602 49.0166 44.622 49.4505 44.5447C49.8012 44.4832 50.1415 44.3827 50.4625 44.2222C51.0079 43.9507 51.3838 43.5262 51.5844 42.9472C51.6736 42.6877 51.73 42.4222 51.7516 42.15C51.8066 41.4742 51.8051 40.797 51.7501 40.1212C51.7248 39.8175 51.6617 39.5175 51.5599 39.2302C51.3675 38.685 51.0197 38.28 50.5078 38.0175C50.3013 37.9132 50.0851 37.8345 49.8629 37.7737C49.4476 37.6627 49.0233 37.614 48.5968 37.5832C48.1704 37.5532 47.7431 37.5435 47.3152 37.5435C44.6909 37.5465 42.0674 37.545 39.4432 37.545C39.1571 37.5465 39.1801 37.5067 39.1801 37.812C39.1801 41.2305 39.1801 44.649 39.1801 48.0682C39.1801 48.1147 39.1801 48.162 39.1801 48.2092C39.1838 48.336 39.1905 48.3442 39.3139 48.3465C39.3599 48.3487 39.4067 48.3465 39.4528 48.3465C40.045 48.3465 40.6364 48.3487 41.2278 48.345C41.3304 48.345 41.4373 48.3727 41.5354 48.3172C41.5666 48.2197 41.5503 48.12 41.5503 48.021C41.5518 46.9387 41.551 45.8572 41.5518 44.775C41.5518 44.6707 41.5458 44.565 41.5681 44.4645C41.6231 44.4555 41.6521 44.4862 41.6848 44.5065C41.8133 44.586 41.9411 44.6677 42.0704 44.7487C43.9293 45.915 45.7891 47.0805 47.6473 48.2497C47.7573 48.3195 47.8687 48.3502 47.9995 48.3487C49.2091 48.345 50.4194 48.3465 51.6297 48.3465C51.6817 48.3465 51.7352 48.3465 51.7873 48.345C51.814 48.345 51.8393 48.3427 51.8385 48.3052C51.8341 48.3007 51.8281 48.297 51.8237 48.2932ZM41.768 42.8707C41.5518 42.87 41.551 42.8962 41.551 42.6562C41.5518 41.7007 41.551 40.746 41.551 39.7905C41.551 39.7635 41.5503 39.7372 41.5518 39.7102C41.5555 39.5865 41.5622 39.579 41.6885 39.5767C41.7219 39.5752 41.7546 39.5767 41.7873 39.5767C43.6686 39.5767 45.5483 39.5767 47.4288 39.5767C47.7907 39.5767 48.1518 39.5925 48.5099 39.6465C48.6206 39.6622 48.7276 39.6937 48.8324 39.735C49.0672 39.8287 49.2262 39.996 49.3057 40.2375C49.3517 40.3762 49.3829 40.5187 49.3874 40.665C49.3993 41.0362 49.4 41.4075 49.3874 41.7795C49.3829 41.9205 49.3532 42.0555 49.3116 42.1897C49.2358 42.4417 49.0709 42.6112 48.8316 42.7095C48.6533 42.783 48.4653 42.8167 48.2751 42.8325C47.9735 42.8587 47.6711 42.873 47.3687 42.8722C46.5068 42.8685 45.6464 42.8707 44.7845 42.8707C43.7793 42.8707 42.7732 42.8722 41.768 42.8707Z" fill="white"/>
</svg>
