<svg width="5" height="20" viewBox="0 0 5 20" fill="none" xmlns="http://www.w3.org/2000/svg">
<path d="M4.51258 2.25556C4.51267 2.55186 4.4544 2.84528 4.3411 3.11906C4.2278 3.39284 4.06168 3.64163 3.85224 3.85121C3.64279 4.06079 3.39411 4.22707 3.1204 4.34055C2.84669 4.45402 2.55331 4.51248 2.25701 4.51258C1.96071 4.51267 1.6673 4.4544 1.39351 4.3411C1.11973 4.2278 0.870947 4.06169 0.661364 3.85224C0.451781 3.64279 0.285505 3.39411 0.172028 3.1204C0.0585508 2.84669 9.52918e-05 2.55331 1.16567e-07 2.25701C-0.000192098 1.65861 0.237339 1.08464 0.660339 0.661364C1.08334 0.238092 1.65716 0.000192344 2.25556 1.16583e-07C2.85397 -0.000192111 3.42794 0.237339 3.85121 0.660339C4.27448 1.08334 4.51238 1.65716 4.51258 2.25556Z" fill="#767676"/>
<path d="M2.25654 12.2549C3.50225 12.2549 4.5121 11.2451 4.5121 9.99934C4.5121 8.75363 3.50225 7.74377 2.25654 7.74377C1.01083 7.74377 0.000976562 8.75363 0.000976562 9.99934C0.000976562 11.2451 1.01083 12.2549 2.25654 12.2549Z" fill="#767676"/>
<path d="M2.25654 20C3.50225 20 4.5121 18.9902 4.5121 17.7445C4.5121 16.4987 3.50225 15.4889 2.25654 15.4889C1.01083 15.4889 0.000976562 16.4987 0.000976562 17.7445C0.000976562 18.9902 1.01083 20 2.25654 20Z" fill="#767676"/>
</svg>
