<svg width="18" height="14" viewBox="0 0 18 14" fill="none" xmlns="http://www.w3.org/2000/svg">
<path d="M3.6 0C1.6119 0 0 1.56712 0 3.5V10.5C0 12.4329 1.6119 14 3.6 14H14.4C16.3881 14 18 12.4329 18 10.5V3.5C18 1.56712 16.3881 0 14.4 0H3.6ZM3.6 1.75H14.4C15.3072 1.75 16.0569 2.39751 16.1811 3.24626C15.3189 4.02763 14.0373 4.98663 13.1904 5.57812C11.2419 6.93875 9.5274 7.875 9 7.875C8.4726 7.875 6.75809 6.93962 4.80959 5.57812C3.96269 4.98663 3.13021 4.347 2.50291 3.82812C2.23561 3.60675 2.03759 3.42825 1.88459 3.28125C2.00879 2.4325 2.6928 1.75 3.6 1.75ZM1.80901 5.55975C4.09321 7.35613 7.4403 9.6145 9 9.625C10.0161 9.632 11.754 8.68875 13.527 7.49788C14.4441 6.881 15.4647 6.14862 16.2009 5.5475L16.2 10.5C16.2 11.4669 15.3945 12.25 14.4 12.25H3.6C2.6055 12.25 1.8 11.4669 1.8 10.5L1.80901 5.55975Z" fill="black"/>
</svg>
