<svg width="38" height="38" viewBox="0 0 38 38" fill="none" xmlns="http://www.w3.org/2000/svg">
<g clip-path="url(#clip0_112_669)">
<path opacity="0.5" d="M18.9985 38C8.50634 38 0 29.4927 0 18.9995C0 8.50734 8.50734 0 18.9985 0C29.4937 0 37.999 8.50734 37.999 18.9995C38 29.4947 29.4937 38 18.9985 38Z" fill="#337CCC"/>
<path d="M16.1053 30.4851H20.7309V18.9036H23.9577L24.3012 15.0259H20.7309C20.7309 15.0259 20.7309 13.5782 20.7309 12.8164C20.7309 11.9019 20.9146 11.5415 21.7992 11.5415C22.509 11.5415 24.3012 11.5415 24.3012 11.5415V7.51593C24.3012 7.51593 21.6624 7.51593 21.0993 7.51593C17.6578 7.51593 16.1053 9.0325 16.1053 11.9328C16.1053 14.4598 16.1053 15.0249 16.1053 15.0249H13.7012V18.9526H16.1053V30.4851Z" fill="white"/>
</g>
<defs>
<clipPath id="clip0_112_669">
<rect width="38" height="38" fill="white"/>
</clipPath>
</defs>
</svg>
