<svg width="76" height="75" viewBox="0 0 76 75" fill="none" xmlns="http://www.w3.org/2000/svg">
<g clip-path="url(#clip0_115_1547)">
<path d="M76 37.5C76 16.7895 58.9867 0 38 0C17.0133 0 0 16.7895 0 37.5C0 56.2172 13.8961 71.7314 32.0625 74.5444V48.3398H22.4141V37.5H32.0625V29.2383C32.0625 19.8398 37.7358 14.6484 46.4158 14.6484C50.5733 14.6484 54.9219 15.3809 54.9219 15.3809V24.6094H50.1303C45.4097 24.6094 43.9375 27.5001 43.9375 30.4658V37.5H54.4766L52.7918 48.3398H43.9375V74.5444C62.1039 71.7314 76 56.2175 76 37.5Z" fill="#1877F2"/>
<path d="M52.7918 48.3398L54.4766 37.5H43.9375V30.4658C43.9375 27.4998 45.4097 24.6094 50.1303 24.6094H54.9219V15.3809C54.9219 15.3809 50.5732 14.6484 46.4155 14.6484C37.7358 14.6484 32.0625 19.8398 32.0625 29.2383V37.5H22.4141V48.3398H32.0625V74.5444C34.0267 74.8482 36.0118 75.0005 38 75C39.9882 75.0006 41.9733 74.8483 43.9375 74.5444V48.3398H52.7918Z" fill="white"/>
</g>
<defs>
<clipPath id="clip0_115_1547">
<rect width="76" height="75" fill="white"/>
</clipPath>
</defs>
</svg>
