<svg width="29" height="29" viewBox="0 0 29 29" fill="none" xmlns="http://www.w3.org/2000/svg">
<g clip-path="url(#clip0_135_2162)">
<path d="M14.0606 28.4897C6.31208 28.4897 0.03125 22.3048 0.03125 14.6762C0.03125 7.04827 6.31281 0.863342 14.0606 0.863342C21.8085 0.863342 28.0886 7.04827 28.0886 14.6762C28.0908 22.3062 21.8085 28.4897 14.0606 28.4897Z" fill="#EF8995"/>
<path d="M14.0566 8.46798C16.1096 8.46798 16.3529 8.47597 17.1638 8.51226C17.9142 8.54565 18.3212 8.66904 18.5932 8.77284C18.9515 8.9093 19.208 9.07406 19.4771 9.339C19.7462 9.6032 19.912 9.85652 20.0514 10.2093C20.1568 10.4764 20.2828 10.8771 20.316 11.616C20.3536 12.4151 20.361 12.6539 20.361 14.6769C20.361 16.6983 20.3536 16.9379 20.316 17.7363C20.2814 18.4767 20.156 18.8759 20.0514 19.1437C19.9128 19.4965 19.7462 19.7491 19.4771 20.014C19.208 20.2789 18.9515 20.4437 18.5932 20.5794C18.3226 20.6847 17.9135 20.8073 17.1638 20.84C16.3529 20.877 16.1096 20.8843 14.0566 20.8843C12.002 20.8843 11.7587 20.877 10.9478 20.84C10.1959 20.8073 9.79046 20.6839 9.51844 20.5794C9.16016 20.443 8.90362 20.2775 8.63455 20.014C8.36695 19.7491 8.19814 19.4965 8.06028 19.1437C7.95339 18.8773 7.82881 18.4759 7.79563 17.7363C7.75804 16.9379 7.75067 16.6983 7.75067 14.6769C7.75067 12.6532 7.75804 12.4144 7.79563 11.616C7.83028 10.8763 7.9556 10.4764 8.06028 10.2093C8.19887 9.85652 8.36695 9.60393 8.63455 9.339C8.90362 9.07406 9.16016 8.9093 9.51844 8.77284C9.78898 8.66831 10.1966 8.54565 10.9478 8.51226C11.7587 8.47524 12.002 8.46798 14.0566 8.46798ZM14.0566 7.10339C11.9674 7.10339 11.7057 7.1121 10.8844 7.14912C10.0654 7.18614 9.50664 7.31534 9.01715 7.50116C8.50997 7.69496 8.08092 7.95336 7.65483 8.37435C7.22726 8.79534 6.96335 9.21778 6.768 9.71643C6.57633 10.1984 6.44658 10.7486 6.40972 11.555C6.37213 12.3629 6.36328 12.6205 6.36328 14.6776C6.36328 16.7332 6.37213 16.9923 6.40972 17.7994C6.44732 18.6066 6.57854 19.156 6.768 19.638C6.96409 20.1374 7.22726 20.5598 7.65483 20.9808C8.08092 21.4018 8.50997 21.6617 9.01715 21.854C9.50664 22.0413 10.0654 22.1705 10.8844 22.2053C11.7035 22.2423 11.9674 22.251 14.0566 22.251C16.1443 22.251 16.4067 22.2423 17.2272 22.2053C18.0462 22.1683 18.605 22.0406 19.0945 21.854C19.6002 21.6595 20.0292 21.4018 20.4568 20.9808C20.8844 20.5598 21.1483 20.1374 21.3451 19.638C21.5353 19.156 21.6651 18.6059 21.7019 17.7994C21.7388 16.993 21.7484 16.7346 21.7484 14.6776C21.7484 12.6205 21.7395 12.3629 21.7019 11.555C21.6643 10.7486 21.5331 10.1984 21.3451 9.71643C21.1475 9.21778 20.8844 8.79534 20.4568 8.37435C20.0292 7.95336 19.6002 7.69351 19.0945 7.50116C18.605 7.31389 18.0462 7.18469 17.2272 7.14912C16.4082 7.11138 16.1443 7.10339 14.0566 7.10339Z" fill="white"/>
<path d="M14.056 10.7885C11.8732 10.7885 10.1055 12.5291 10.1055 14.6776C10.1055 16.8254 11.8732 18.5659 14.056 18.5659C16.2374 18.5659 18.0052 16.8254 18.0052 14.6776C18.0059 12.5291 16.2374 10.7885 14.056 10.7885ZM14.056 17.2021C12.6392 17.2021 11.4906 16.0705 11.4906 14.6769C11.4906 13.2825 12.6399 12.1516 14.056 12.1516C15.4714 12.1516 16.6192 13.2818 16.6192 14.6769C16.6192 16.0712 15.4714 17.2021 14.056 17.2021Z" fill="white"/>
<path d="M19.0881 10.6339C19.0881 11.1355 18.6731 11.5427 18.1651 11.5427C17.6557 11.5427 17.2422 11.1355 17.2422 10.6339C17.2422 10.1331 17.6557 9.72516 18.1651 9.72516C18.6731 9.72516 19.0881 10.1324 19.0881 10.6339Z" fill="white"/>
</g>
<defs>
<clipPath id="clip0_135_2162">
<rect width="28.058" height="27.6264" fill="white" transform="translate(0.03125 0.863281)"/>
</clipPath>
</defs>
</svg>
