<svg width="27" height="28" viewBox="0 0 27 28" fill="none" xmlns="http://www.w3.org/2000/svg">
<path d="M25.3853 16.5671C25.3853 19.3937 25.3871 22.2217 25.3844 25.0483C25.3835 25.9242 24.9163 26.6424 24.1942 26.9027C23.0674 27.3064 21.9132 26.4048 21.9065 25.1044C21.8984 23.6917 21.9047 22.2779 21.9047 20.8641C21.9047 16.5834 21.9038 12.3036 21.9051 8.02284C21.9056 7.14391 22.4056 6.41238 23.1589 6.17429C24.2631 5.82331 25.3759 6.70716 25.3808 7.96763C25.3907 10.8336 25.384 13.7006 25.384 16.5671H25.3853Z" stroke="white" stroke-width="1.30645" stroke-miterlimit="10"/>
<path d="M11.45 19.1706C11.45 21.1502 11.4522 23.1288 11.4491 25.1084C11.4473 26.0028 10.8761 26.7718 10.0921 26.9554C9.27068 27.1477 8.45784 26.7062 8.11702 25.8784C8.02054 25.6464 7.96824 25.4021 7.96824 25.1461C7.96869 21.1565 7.96599 17.166 7.97005 13.1764C7.9705 12.1485 8.75043 11.3246 9.70077 11.3226C10.6624 11.3207 11.4437 12.1431 11.4477 13.1862C11.4549 15.1805 11.45 17.1748 11.45 19.1706Z" stroke="white" stroke-width="1.30645" stroke-miterlimit="10"/>
<path d="M18.4187 20.9226C18.4187 22.2795 18.4205 23.6338 18.4183 24.9901C18.4165 26.0494 17.7387 26.8977 16.8233 26.9916C15.9214 27.0865 15.1151 26.365 14.9578 25.3206C14.9447 25.2318 14.9375 25.1405 14.9375 25.0502C14.9366 22.2898 14.9334 19.5283 14.9379 16.7679C14.9388 15.7651 15.59 14.9568 16.4878 14.8219C17.3054 14.6992 18.1166 15.3181 18.3497 16.2439C18.3998 16.444 18.4196 16.6468 18.4192 16.8551C18.4174 18.2115 18.4187 19.5678 18.4187 20.9226Z" stroke="white" stroke-width="1.30645" stroke-miterlimit="10"/>
<path d="M4.48144 20.9047C4.48144 22.2854 4.4882 23.6671 4.47918 25.0474C4.47333 26.0414 3.82132 26.8486 2.94085 26.9837C2.12032 27.1089 1.31105 26.4995 1.07134 25.5737C1.02808 25.4063 1.00149 25.2358 1.00149 25.0607C1.00194 22.2818 0.995636 19.5034 1.006 16.7245C1.00915 15.7766 1.64224 14.9756 2.45376 14.8313C3.30358 14.6814 4.10654 15.2195 4.38411 16.1289C4.4562 16.3646 4.48369 16.6095 4.48324 16.8606C4.48054 18.2084 4.48144 19.5568 4.48144 20.9047Z" stroke="white" stroke-width="1.30645" stroke-miterlimit="10"/>
<path d="M11.0953 6.65606C11.0393 6.81769 11.1508 6.8967 11.282 6.97982C12.7182 7.88644 14.1515 8.79717 15.5837 9.70893C15.713 9.79 15.8146 9.83104 15.9657 9.72791C16.1827 9.57912 16.4457 9.53551 16.7018 9.58681C16.843 9.61503 16.8995 9.55654 16.9699 9.457C18.2654 7.60425 19.5633 5.75252 20.8608 3.90181C21.2681 3.31997 21.6748 2.73659 22.0845 2.15834C22.1484 2.06753 22.1796 2.00083 22.1236 1.87615C21.864 1.30149 22.0062 0.66834 22.4625 0.288143C22.9054 -0.0817928 23.5326 -0.0966723 23.9978 0.250174C24.4536 0.590864 24.6378 1.23479 24.4332 1.77763C24.2187 2.34613 23.6817 2.6781 23.0758 2.59395C22.9396 2.57394 22.8915 2.64167 22.8301 2.72992C21.7214 4.31433 20.6111 5.89875 19.5009 7.48418C18.9114 8.32616 18.3243 9.1707 17.7278 10.0081C17.6397 10.1317 17.6347 10.222 17.6961 10.36C17.9136 10.8495 17.8061 11.4247 17.4425 11.8018C17.0813 12.1774 16.5453 12.2903 16.0712 12.0932C15.5926 11.8947 15.2795 11.417 15.2954 10.87C15.2998 10.7079 15.2577 10.6217 15.1225 10.5376C13.6714 9.62632 12.2238 8.7079 10.7787 7.78588C10.6578 7.70789 10.5741 7.68942 10.4389 7.76895C10.0415 8.00035 9.62688 8.00086 9.23104 7.76536C9.1057 7.68993 9.02693 7.70327 8.91299 7.77511C7.46044 8.70174 6.0069 9.62427 4.54891 10.5412C4.42604 10.6186 4.37799 10.6961 4.38195 10.8511C4.3983 11.5694 3.89199 12.1379 3.20535 12.1902C2.56032 12.24 1.95939 11.7259 1.88112 11.0568C1.79838 10.3431 2.23533 9.72124 2.91752 9.59297C3.20981 9.5391 3.4917 9.58938 3.74684 9.74844C3.84542 9.81001 3.91775 9.82283 4.02377 9.75613C5.49564 8.81616 6.96949 7.87978 8.44829 6.94904C8.5771 6.86951 8.58404 6.7792 8.58205 6.64734C8.57016 5.90747 9.13791 5.31383 9.84486 5.31742C10.5449 5.31947 11.0953 5.90131 11.0953 6.65606Z" fill="white"/>
</svg>
