<svg width="29" height="28" viewBox="0 0 29 28" fill="none" xmlns="http://www.w3.org/2000/svg">
<g clip-path="url(#clip0_1571_21)">
<path d="M14.5004 28C6.49168 28 0 21.7314 0 13.9996C0 6.26857 6.49245 0 14.5004 0C22.5083 0 28.9992 6.26857 28.9992 13.9996C29.0015 21.7329 22.5083 28 14.5004 28Z" fill="#EF8995"/>
<path d="M14.5004 7.70751C16.6224 7.70751 16.8738 7.7156 17.7119 7.75238C18.4876 7.78622 18.9082 7.91128 19.1893 8.01648C19.5596 8.15479 19.8248 8.32178 20.1029 8.5903C20.381 8.85808 20.5524 9.11483 20.6964 9.47236C20.8054 9.74308 20.9357 10.1492 20.97 10.8981C21.0088 11.708 21.0164 11.9501 21.0164 14.0004C21.0164 16.0492 21.0088 16.2919 20.97 17.1012C20.9342 17.8515 20.8046 18.2561 20.6964 18.5276C20.5532 18.8851 20.381 19.1412 20.1029 19.4097C19.8248 19.6782 19.5596 19.8452 19.1893 19.9827C18.9097 20.0894 18.4868 20.2137 17.7119 20.2468C16.8738 20.2844 16.6224 20.2917 14.5004 20.2917C12.3769 20.2917 12.1254 20.2844 11.2873 20.2468C10.5101 20.2137 10.0911 20.0887 9.80991 19.9827C9.43961 19.8444 9.17445 19.6767 8.89635 19.4097C8.61977 19.1412 8.44528 18.8851 8.3028 18.5276C8.19232 18.2576 8.06355 17.8508 8.02927 17.1012C7.99041 16.2919 7.98279 16.0492 7.98279 14.0004C7.98279 11.9493 7.99041 11.7073 8.02927 10.8981C8.06508 10.1484 8.19461 9.74308 8.3028 9.47236C8.44605 9.11483 8.61977 8.85882 8.89635 8.5903C9.17445 8.32178 9.43961 8.15479 9.80991 8.01648C10.0895 7.91055 10.5109 7.78622 11.2873 7.75238C12.1254 7.71486 12.3769 7.70751 14.5004 7.70751ZM14.5004 6.32446C12.3411 6.32446 12.0706 6.33329 11.2218 6.37081C10.3753 6.40833 9.79772 6.53928 9.29179 6.72761C8.76758 6.92403 8.32414 7.18592 7.88374 7.61261C7.44182 8.03929 7.16904 8.46744 6.96713 8.97284C6.76903 9.46132 6.63493 10.019 6.59683 10.8363C6.55797 11.6551 6.54883 11.9162 6.54883 14.0011C6.54883 16.0845 6.55797 16.3471 6.59683 17.1652C6.63569 17.9832 6.77131 18.5401 6.96713 19.0286C7.1698 19.5347 7.44182 19.9629 7.88374 20.3896C8.32414 20.8162 8.76758 21.0796 9.29179 21.2746C9.79772 21.4644 10.3753 21.5953 11.2218 21.6306C12.0683 21.6681 12.3411 21.677 14.5004 21.677C16.6582 21.677 16.9294 21.6681 17.7775 21.6306C18.624 21.5931 19.2015 21.4636 19.7074 21.2746C20.2301 21.0774 20.6736 20.8162 21.1155 20.3896C21.5574 19.9629 21.8302 19.5347 22.0336 19.0286C22.2302 18.5401 22.3643 17.9825 22.4024 17.1652C22.4405 16.3478 22.4504 16.0859 22.4504 14.0011C22.4504 11.9162 22.4413 11.6551 22.4024 10.8363C22.3635 10.019 22.2279 9.46132 22.0336 8.97284C21.8294 8.46744 21.5574 8.03929 21.1155 7.61261C20.6736 7.18592 20.2301 6.92256 19.7074 6.72761C19.2015 6.5378 18.624 6.40686 17.7775 6.37081C16.931 6.33255 16.6582 6.32446 14.5004 6.32446Z" fill="white"/>
<path d="M14.5004 10.0594C12.2443 10.0594 10.4172 11.8235 10.4172 14.0011C10.4172 16.1779 12.2443 17.942 14.5004 17.942C16.7549 17.942 18.5821 16.1779 18.5821 14.0011C18.5828 11.8235 16.7549 10.0594 14.5004 10.0594ZM14.5004 16.5597C13.0359 16.5597 11.8488 15.4128 11.8488 14.0003C11.8488 12.5871 13.0367 11.441 14.5004 11.441C15.9633 11.441 17.1496 12.5864 17.1496 14.0003C17.1496 15.4135 15.9633 16.5597 14.5004 16.5597Z" fill="white"/>
<path d="M19.6991 9.90274C19.6991 10.4111 19.2701 10.8238 18.7451 10.8238C18.2186 10.8238 17.7912 10.4111 17.7912 9.90274C17.7912 9.39513 18.2186 8.98169 18.7451 8.98169C19.2701 8.98169 19.6991 9.3944 19.6991 9.90274Z" fill="white"/>
</g>
<defs>
<clipPath id="clip0_1571_21">
<rect width="29" height="28" fill="white"/>
</clipPath>
</defs>
</svg>
