<svg width="39" height="38" viewBox="0 0 39 38" fill="none" xmlns="http://www.w3.org/2000/svg">
<g clip-path="url(#clip0_112_673)">
<path d="M19.5005 38C8.7302 38 0 29.4927 0 18.9995C0 8.50734 8.73122 0 19.5005 0C30.2698 0 38.999 8.50734 38.999 18.9995C39.002 29.4947 30.2698 38 19.5005 38Z" fill="#EF8995"/>
<path d="M19.5001 10.4602C22.3538 10.4602 22.692 10.4712 23.8191 10.5211C24.8622 10.5671 25.4278 10.7368 25.8059 10.8796C26.3039 11.0673 26.6605 11.2939 27.0345 11.6583C27.4085 12.0217 27.6391 12.3702 27.8327 12.8554C27.9793 13.2228 28.1545 13.7739 28.2006 14.7903C28.2528 15.8895 28.2631 16.218 28.2631 19.0005C28.2631 21.7811 28.2528 22.1105 28.2006 23.2088C28.1524 24.2271 27.9782 24.7763 27.8327 25.1447C27.6401 25.6299 27.4085 25.9773 27.0345 26.3417C26.6605 26.7062 26.3039 26.9328 25.8059 27.1195C25.4299 27.2643 24.8612 27.433 23.8191 27.4779C22.692 27.5288 22.3538 27.5388 19.5001 27.5388C16.6443 27.5388 16.3062 27.5288 15.1791 27.4779C14.1339 27.433 13.5703 27.2633 13.1922 27.1195C12.6942 26.9318 12.3377 26.7042 11.9637 26.3417C11.5917 25.9773 11.357 25.6299 11.1654 25.1447C11.0169 24.7783 10.8437 24.2261 10.7976 23.2088C10.7453 22.1105 10.7351 21.7811 10.7351 19.0005C10.7351 16.217 10.7453 15.8885 10.7976 14.7903C10.8457 13.7729 11.0199 13.2228 11.1654 12.8554C11.3581 12.3702 11.5917 12.0227 11.9637 11.6583C12.3377 11.2939 12.6942 11.0673 13.1922 10.8796C13.5683 10.7358 14.1349 10.5671 15.1791 10.5211C16.3062 10.4702 16.6443 10.4602 19.5001 10.4602ZM19.5001 8.58325C16.5962 8.58325 16.2324 8.59523 15.0909 8.64615C13.9525 8.69707 13.1758 8.87478 12.4955 9.13037C11.7905 9.39695 11.1941 9.75237 10.6019 10.3314C10.0076 10.9105 9.64072 11.4916 9.36918 12.1775C9.10277 12.8404 8.92243 13.5972 8.87119 14.7064C8.81894 15.8176 8.80664 16.1721 8.80664 19.0015C8.80664 21.829 8.81894 22.1854 8.87119 23.2956C8.92345 24.4059 9.10584 25.1616 9.36918 25.8246C9.64175 26.5115 10.0076 27.0925 10.6019 27.6716C11.1941 28.2507 11.7905 28.6081 12.4955 28.8727C13.1758 29.1303 13.9525 29.308 15.0909 29.3559C16.2294 29.4068 16.5962 29.4188 19.5001 29.4188C22.402 29.4188 22.7668 29.4068 23.9072 29.3559C25.0456 29.305 25.8223 29.1293 26.5027 28.8727C27.2056 28.6051 27.802 28.2507 28.3963 27.6716C28.9906 27.0925 29.3574 26.5115 29.631 25.8246C29.8954 25.1616 30.0757 24.4049 30.127 23.2956C30.1782 22.1864 30.1915 21.831 30.1915 19.0015C30.1915 16.1721 30.1792 15.8176 30.127 14.7064C30.0747 13.5972 29.8923 12.8404 29.631 12.1775C29.3564 11.4916 28.9906 10.9105 28.3963 10.3314C27.802 9.75237 27.2056 9.39495 26.5027 9.13037C25.8223 8.87279 25.0456 8.69507 23.9072 8.64615C22.7688 8.59423 22.402 8.58325 19.5001 8.58325Z" fill="white"/>
<path d="M19.501 13.6521C16.4669 13.6521 14.0098 16.0463 14.0098 19.0015C14.0098 21.9558 16.4669 24.3499 19.501 24.3499C22.533 24.3499 24.9901 21.9558 24.9901 19.0015C24.9912 16.0463 22.533 13.6521 19.501 13.6521ZM19.501 22.4739C17.5316 22.4739 15.9351 20.9174 15.9351 19.0005C15.9351 17.0826 17.5326 15.5271 19.501 15.5271C21.4683 15.5271 23.0638 17.0816 23.0638 19.0005C23.0638 20.9184 21.4683 22.4739 19.501 22.4739Z" fill="white"/>
<path d="M26.4916 13.4394C26.4916 14.1293 25.9147 14.6894 25.2087 14.6894C24.5006 14.6894 23.9258 14.1293 23.9258 13.4394C23.9258 12.7506 24.5006 12.1895 25.2087 12.1895C25.9147 12.1895 26.4916 12.7496 26.4916 13.4394Z" fill="white"/>
</g>
<defs>
<clipPath id="clip0_112_673">
<rect width="39" height="38" fill="white"/>
</clipPath>
</defs>
</svg>
