<svg width="68" height="67" viewBox="0 0 68 67" fill="none" xmlns="http://www.w3.org/2000/svg">
<g clip-path="url(#clip0_115_1554)">
<path d="M51.9808 0H15.9125C7.12427 0 0 7.03053 0 15.7031V51.2969C0 59.9695 7.12427 67 15.9125 67H51.9808C60.769 67 67.8933 59.9695 67.8933 51.2969V15.7031C67.8933 7.03053 60.769 0 51.9808 0Z" fill="url(#paint0_radial_115_1554)"/>
<path d="M51.9808 0H15.9125C7.12427 0 0 7.03053 0 15.7031V51.2969C0 59.9695 7.12427 67 15.9125 67H51.9808C60.769 67 67.8933 59.9695 67.8933 51.2969V15.7031C67.8933 7.03053 60.769 0 51.9808 0Z" fill="url(#paint1_radial_115_1554)"/>
<path d="M33.949 7.32812C26.7465 7.32812 25.8424 7.35927 23.0137 7.4862C20.1903 7.61392 18.263 8.05492 16.5768 8.70215C14.8323 9.37058 13.3527 10.2649 11.8786 11.72C10.4033 13.1749 9.49706 14.6351 8.81759 16.3559C8.15988 18.0204 7.71247 19.9231 7.58544 22.708C7.45893 25.4998 7.42578 26.3922 7.42578 33.5003C7.42578 40.6083 7.45761 41.4976 7.58597 44.2891C7.71592 47.0754 8.1628 48.9773 8.81812 50.6413C9.496 52.3629 10.4022 53.823 11.8768 55.2776C13.3505 56.7336 14.8301 57.63 16.5733 58.2984C18.2609 58.9456 20.1884 59.3866 23.0113 59.5143C25.8403 59.6413 26.7436 59.6724 33.9458 59.6724C41.1491 59.6724 42.0503 59.6413 44.879 59.5143C47.7024 59.3866 49.6318 58.9456 51.3193 58.2984C53.0631 57.63 54.5406 56.7336 56.0141 55.2776C57.4894 53.823 58.3954 52.3629 59.0751 50.6421C59.727 48.9773 60.1746 47.0748 60.3073 44.2896C60.4343 41.4981 60.4674 40.6083 60.4674 33.5003C60.4674 26.3922 60.4343 25.5003 60.3073 22.7086C60.1746 19.9223 59.727 18.0206 59.0751 16.3566C58.3954 14.6351 57.4894 13.1749 56.0141 11.72C54.539 10.2643 53.0636 9.37005 51.3177 8.70241C49.627 8.05492 47.6987 7.61366 44.8753 7.4862C42.0463 7.35927 41.1457 7.32812 33.9408 7.32812H33.949ZM31.5698 12.0446C32.2761 12.0435 33.064 12.0446 33.949 12.0446C41.0303 12.0446 41.8694 12.0697 44.6658 12.195C47.2516 12.3118 48.6551 12.7381 49.5899 13.0964C50.8276 13.5706 51.71 14.1378 52.6377 15.0541C53.5659 15.9701 54.1404 16.8424 54.6222 18.0638C54.9853 18.9851 55.4179 20.3701 55.5356 22.9219C55.6627 25.6809 55.6902 26.5095 55.6902 33.4942C55.6902 40.479 55.6627 41.3079 55.5356 44.0666C55.4173 46.6184 54.9853 48.0034 54.6222 48.9249C54.1417 50.1464 53.5659 51.0161 52.6377 51.9315C51.7095 52.8476 50.8282 53.4144 49.5899 53.8889C48.6561 54.2488 47.2516 54.6741 44.6658 54.7908C41.87 54.9162 41.0303 54.9434 33.949 54.9434C26.8674 54.9434 26.028 54.9162 23.2325 54.7908C20.6467 54.6731 19.2432 54.2467 18.3075 53.8884C17.0701 53.4139 16.1859 52.847 15.2576 51.931C14.3294 51.015 13.755 50.1448 13.2731 48.9228C12.91 48.0013 12.4775 46.6163 12.3597 44.0645C12.2327 41.3055 12.2072 40.4769 12.2072 33.4877C12.2072 26.4988 12.2327 25.6743 12.3597 22.9153C12.478 20.3636 12.91 18.9785 13.2731 18.056C13.7539 16.8345 14.3294 15.9622 15.2579 15.0462C16.1861 14.1302 17.0701 13.5631 18.3078 13.0878C19.2427 12.7279 20.6467 12.3026 23.2325 12.1854C25.679 12.0762 26.6271 12.0435 31.5698 12.038V12.0446ZM48.1058 16.3901C46.3488 16.3901 44.9233 17.7956 44.9233 19.5297C44.9233 21.2636 46.3488 22.6703 48.1058 22.6703C49.8628 22.6703 51.2883 21.2636 51.2883 19.5297C51.2883 17.7958 49.8628 16.3891 48.1058 16.3891V16.3901ZM33.949 20.0597C26.4277 20.0597 20.3295 26.0777 20.3295 33.5003C20.3295 40.9229 26.4277 46.938 33.949 46.938C41.4706 46.938 47.5666 40.9229 47.5666 33.5003C47.5666 26.0779 41.47 20.0597 33.9485 20.0597H33.949ZM33.949 24.7761C38.8312 24.7761 42.7894 28.6818 42.7894 33.5003C42.7894 38.3182 38.8312 42.2244 33.949 42.2244C29.0665 42.2244 25.1088 38.3182 25.1088 33.5003C25.1088 28.6818 29.0665 24.7761 33.949 24.7761Z" fill="white"/>
</g>
<defs>
<radialGradient id="paint0_radial_115_1554" cx="0" cy="0" r="1" gradientUnits="userSpaceOnUse" gradientTransform="translate(18.0342 72.1603) rotate(-90) scale(66.402 62.5825)">
<stop stop-color="#FFDD55"/>
<stop offset="0.1" stop-color="#FFDD55"/>
<stop offset="0.5" stop-color="#FF543E"/>
<stop offset="1" stop-color="#C837AB"/>
</radialGradient>
<radialGradient id="paint1_radial_115_1554" cx="0" cy="0" r="1" gradientUnits="userSpaceOnUse" gradientTransform="translate(-11.3724 4.82635) rotate(78.5341) scale(29.6974 123.918)">
<stop stop-color="#3771C8"/>
<stop offset="0.128" stop-color="#3771C8"/>
<stop offset="1" stop-color="#6600FF" stop-opacity="0"/>
</radialGradient>
<clipPath id="clip0_115_1554">
<rect width="67.8933" height="67" fill="white"/>
</clipPath>
</defs>
</svg>
