<svg width="160" height="160" viewBox="0 0 160 160" fill="none" xmlns="http://www.w3.org/2000/svg">
<g filter="url(#filter0_d_112_346)">
<circle cx="80" cy="76" r="58" fill="white"/>
</g>
<g clip-path="url(#clip0_112_346)">
<path d="M79.5012 123C54.3705 123 34 102.851 34 77.9988C34 53.149 54.3728 33 79.5012 33C104.63 33 124.998 53.149 124.998 77.9988C125.005 102.856 104.63 123 79.5012 123Z" fill="#EF8995"/>
<path d="M79.5002 57.7742C86.1589 57.7742 86.9479 57.8002 89.5779 57.9184C92.0118 58.0272 93.3316 58.4292 94.2138 58.7673C95.3758 59.2119 96.2079 59.7486 97.0805 60.6117C97.9532 61.4724 98.4912 62.2977 98.943 63.4469C99.2849 64.3171 99.6938 65.6224 99.8014 68.0295C99.9233 70.633 99.9472 71.411 99.9472 78.0012C99.9472 84.5867 99.9233 85.367 99.8014 87.9681C99.689 90.38 99.2826 91.6805 98.943 92.5531C98.4936 93.7023 97.9532 94.5252 97.0805 95.3883C96.2079 96.2514 95.3758 96.7881 94.2138 97.2303C93.3364 97.5732 92.0094 97.9728 89.5779 98.0792C86.9479 98.1998 86.1589 98.2234 79.5002 98.2234C72.8368 98.2234 72.0478 98.1998 69.4178 98.0792C66.9791 97.9728 65.6641 97.5708 64.7819 97.2303C63.6199 96.7858 62.7879 96.2466 61.9152 95.3883C61.0473 94.5252 60.4998 93.7023 60.0527 92.5531C59.706 91.6853 59.3019 90.3776 59.1943 87.9681C59.0724 85.367 59.0485 84.5867 59.0485 78.0012C59.0485 71.4086 59.0724 70.6306 59.1943 68.0295C59.3067 65.62 59.7132 64.3171 60.0527 63.4469C60.5022 62.2977 61.0473 61.4748 61.9152 60.6117C62.7879 59.7486 63.6199 59.2119 64.7819 58.7673C65.6593 58.4268 66.9815 58.0272 69.4178 57.9184C72.0478 57.7978 72.8368 57.7742 79.5002 57.7742ZM79.5002 53.3287C72.7244 53.3287 71.8757 53.357 69.2122 53.4776C66.5559 53.5982 64.7436 54.0191 63.1561 54.6245C61.5111 55.2558 60.1196 56.0976 58.7377 57.4691C57.351 58.8406 56.495 60.2168 55.8614 61.8413C55.2398 63.4114 54.819 65.2038 54.6995 67.8309C54.5775 70.4627 54.5488 71.3022 54.5488 78.0035C54.5488 84.7002 54.5775 85.5443 54.6995 88.1738C54.8214 90.8033 55.247 92.5933 55.8614 94.1634C56.4974 95.7902 57.351 97.1665 58.7377 98.5379C60.1196 99.9094 61.5111 100.756 63.1561 101.383C64.7436 101.993 66.5559 102.414 69.2122 102.527C71.8685 102.648 72.7244 102.676 79.5002 102.676C86.2713 102.676 87.1224 102.648 89.7835 102.527C92.4398 102.406 94.2521 101.99 95.8397 101.383C97.4798 100.749 98.8713 99.9094 100.258 98.5379C101.645 97.1665 102.501 95.7902 103.139 94.1634C103.756 92.5933 104.177 90.8009 104.296 88.1738C104.416 85.5467 104.447 84.7049 104.447 78.0035C104.447 71.3022 104.418 70.4627 104.296 67.8309C104.174 65.2038 103.749 63.4114 103.139 61.8413C102.498 60.2168 101.645 58.8406 100.258 57.4691C98.8713 56.0976 97.4798 55.2511 95.8397 54.6245C94.2521 54.0144 92.4398 53.5935 89.7835 53.4776C87.1272 53.3547 86.2713 53.3287 79.5002 53.3287Z" fill="white"/>
<path d="M79.5003 65.3339C72.4209 65.3339 66.6875 71.0042 66.6875 78.0035C66.6875 85.0005 72.4209 90.6708 79.5003 90.6708C86.575 90.6708 92.3084 85.0005 92.3084 78.0035C92.3108 71.0042 86.575 65.3339 79.5003 65.3339ZM79.5003 86.2277C74.905 86.2277 71.18 82.5412 71.18 78.0012C71.18 73.4587 74.9074 69.7746 79.5003 69.7746C84.0909 69.7746 87.8135 73.4564 87.8135 78.0012C87.8135 82.5436 84.0909 86.2277 79.5003 86.2277Z" fill="white"/>
<path d="M95.813 64.8302C95.813 66.4642 94.4669 67.7907 92.8196 67.7907C91.1675 67.7907 89.8262 66.4642 89.8262 64.8302C89.8262 63.1986 91.1675 61.8697 92.8196 61.8697C94.4669 61.8697 95.813 63.1962 95.813 64.8302Z" fill="white"/>
</g>
<defs>
<filter id="filter0_d_112_346" x="0" y="0" width="160" height="160" filterUnits="userSpaceOnUse" color-interpolation-filters="sRGB">
<feFlood flood-opacity="0" result="BackgroundImageFix"/>
<feColorMatrix in="SourceAlpha" type="matrix" values="0 0 0 0 0 0 0 0 0 0 0 0 0 0 0 0 0 0 127 0" result="hardAlpha"/>
<feMorphology radius="2" operator="erode" in="SourceAlpha" result="effect1_dropShadow_112_346"/>
<feOffset dy="4"/>
<feGaussianBlur stdDeviation="12"/>
<feComposite in2="hardAlpha" operator="out"/>
<feColorMatrix type="matrix" values="0 0 0 0 0 0 0 0 0 0 0 0 0 0 0 0 0 0 0.1 0"/>
<feBlend mode="normal" in2="BackgroundImageFix" result="effect1_dropShadow_112_346"/>
<feBlend mode="normal" in="SourceGraphic" in2="effect1_dropShadow_112_346" result="shape"/>
</filter>
<clipPath id="clip0_112_346">
<rect width="91" height="90" fill="white" transform="translate(34 33)"/>
</clipPath>
</defs>
</svg>
