<svg width="25" height="25" viewBox="0 0 25 25" fill="none" xmlns="http://www.w3.org/2000/svg">
<g clip-path="url(#clip0_77_783)">
<path d="M17.3889 9.56597L20.5677 12.7447C21.0835 13.2537 21.4936 13.8597 21.7742 14.5277C22.0549 15.1958 22.2006 15.9128 22.2031 16.6374C22.2055 17.3621 22.0646 18.08 21.7884 18.75C21.5122 19.4199 21.1062 20.0286 20.5938 20.541C20.0814 21.0534 19.4727 21.4594 18.8028 21.7355C18.1329 22.0117 17.4149 22.1527 16.6903 22.1502C15.9656 22.1478 15.2486 22.0021 14.5806 21.7214C13.9125 21.4407 13.3065 21.0307 12.7976 20.5149L11.7387 19.4559C11.5955 19.3178 11.4812 19.1525 11.4026 18.9697C11.324 18.7869 11.2826 18.5903 11.2807 18.3913C11.2789 18.1924 11.3167 17.995 11.392 17.8108C11.4673 17.6267 11.5784 17.4593 11.7191 17.3185C11.8597 17.1778 12.027 17.0664 12.2111 16.991C12.3952 16.9156 12.5925 16.8776 12.7915 16.8792C12.9904 16.8808 13.1871 16.9221 13.3699 17.0005C13.5528 17.079 13.7182 17.193 13.8565 17.3361L14.9174 18.396C15.3866 18.8609 16.0208 19.1211 16.6812 19.1195C17.3417 19.118 17.9747 18.8549 18.4416 18.3878C18.9086 17.9207 19.1715 17.2877 19.1729 16.6272C19.1742 15.9667 18.9139 15.3326 18.4488 14.8636L15.2701 11.6848C14.9265 11.3411 14.4901 11.1051 14.0144 11.0057C13.5386 10.9063 13.0442 10.9479 12.5918 11.1254C12.43 11.1893 12.2801 11.2553 12.1382 11.3212L11.6747 11.538C11.0553 11.8177 10.5788 11.9376 9.97244 11.3322C9.10133 10.4611 9.3271 9.65688 10.389 8.92462C11.447 8.19709 12.7263 7.86291 14.0049 7.98006C15.2835 8.09722 16.4808 8.6583 17.3889 9.56597ZM11.385 3.56206L12.4439 4.62098C12.717 4.90347 12.8683 5.28192 12.865 5.67482C12.8618 6.06772 12.7044 6.44363 12.4267 6.7216C12.149 6.99956 11.7732 7.15733 11.3803 7.16093C10.9874 7.16453 10.6088 7.01366 10.3261 6.74083L9.26616 5.68191C9.03584 5.44331 8.76032 5.25297 8.45565 5.12199C8.15099 4.99102 7.82329 4.92203 7.49168 4.91906C7.16007 4.91608 6.83119 4.97918 6.52422 5.10467C6.21726 5.23015 5.93836 5.41552 5.7038 5.64995C5.46924 5.88437 5.28372 6.16317 5.15805 6.47006C5.03239 6.77696 4.96911 7.1058 4.9719 7.43742C4.97468 7.76903 5.04349 8.09676 5.17429 8.4015C5.30509 8.70624 5.49528 8.98188 5.73374 9.21233L8.91252 12.3911C9.2561 12.7348 9.6925 12.9708 10.1682 13.0702C10.644 13.1696 11.1384 13.128 11.5908 12.9505C11.7526 12.8866 11.9025 12.8207 12.0443 12.7547L12.5079 12.538C13.1272 12.2582 13.6048 12.1384 14.2101 12.7437C15.0813 13.6149 14.8555 14.419 13.7936 15.1513C12.7356 15.8788 11.4563 16.213 10.1777 16.0959C8.89908 15.9787 7.70182 15.4176 6.79367 14.51L3.61489 11.3312C3.09907 10.8222 2.68903 10.2163 2.40836 9.5482C2.12769 8.88012 1.98195 8.16313 1.97952 7.43849C1.9771 6.71386 2.11803 5.99591 2.39422 5.32597C2.6704 4.65603 3.07638 4.04733 3.58877 3.53494C4.10117 3.02254 4.70986 2.61657 5.3798 2.34038C6.04974 2.0642 6.76769 1.92326 7.49233 1.92569C8.21696 1.92812 8.93395 2.07386 9.60203 2.35453C10.2701 2.63519 10.8761 3.04624 11.385 3.56206Z" fill="black"/>
</g>
<defs>
<clipPath id="clip0_77_783">
<rect width="23.9757" height="23.9757" fill="white" transform="translate(0.103516 0.0516357)"/>
</clipPath>
</defs>
</svg>
