<svg width="28" height="28" viewBox="0 0 28 28" fill="none" xmlns="http://www.w3.org/2000/svg">
<g clip-path="url(#clip0_1571_11)">
<path d="M13.9996 28C6.26783 28 0 21.7329 0 13.9996C0 6.26857 6.26857 0 13.9996 0C21.7314 0 27.9993 6.26857 27.9993 13.9996C28 21.7329 21.7307 28 13.9996 28Z" fill="#AEB9F4"/>
<path d="M10.5479 10.879H7.65088V20.2395H10.5479V10.879Z" fill="white"/>
<path d="M9.08616 9.65333C10.0324 9.65333 10.7995 8.87998 10.7995 7.926C10.7995 6.97202 10.0324 6.19867 9.08616 6.19867C8.1399 6.19867 7.3728 6.97202 7.3728 7.926C7.3728 8.87998 8.1399 9.65333 9.08616 9.65333Z" fill="white"/>
<path d="M15.1804 15.326C15.1804 14.0099 15.7851 13.2264 16.9452 13.2264C18.0105 13.2264 18.5232 13.9798 18.5232 15.326C18.5232 16.6752 18.5232 20.2402 18.5232 20.2402H21.4077C21.4077 20.2402 21.4077 16.8209 21.4077 14.313C21.4077 11.8059 19.9857 10.5935 18.0016 10.5935C16.0161 10.5935 15.1804 12.1413 15.1804 12.1413V10.8797H12.4018V20.2402H15.1804C15.1804 20.2402 15.1804 16.7679 15.1804 15.326Z" fill="white"/>
</g>
<defs>
<clipPath id="clip0_1571_11">
<rect width="28" height="28" fill="white"/>
</clipPath>
</defs>
</svg>
