<svg width="29" height="26" viewBox="0 0 29 26" fill="none" xmlns="http://www.w3.org/2000/svg">
<path d="M10.3075 1.91069C9.16609 3.14179 8.53516 4.77674 8.53516 6.5152C8.53673 10.1033 11.2487 13.0236 14.5822 13.0236H14.5838C16.1962 13.0236 17.7141 12.3457 18.8562 11.1138C19.9992 9.88268 20.6285 8.24688 20.6285 6.51011C20.6269 2.92119 17.9141 0 14.583 0C12.9683 0 11.4504 0.679603 10.3075 1.91069ZM19.0279 6.51096C19.0287 7.78787 18.5656 8.98926 17.7251 9.8954C16.8854 10.8007 15.7701 11.3004 14.5846 11.3004H14.583C12.1325 11.3004 10.1373 9.15301 10.1357 6.5135C10.1357 5.2349 10.5997 4.03265 11.4401 3.12652C12.2798 2.22207 13.396 1.72319 14.583 1.72319C17.0327 1.72319 19.0264 3.8706 19.0279 6.51096Z" fill="white"/>
<path d="M19.119 14.8951H23.0799C25.797 14.8951 28 17.0981 28 19.8135C28 22.5314 25.7961 24.7344 23.0799 24.7335H15.6329C12.9142 24.7335 10.7137 22.5305 10.7129 19.8135C10.7129 18.8987 10.9627 18.041 11.3975 17.307" stroke="white" stroke-width="1.4991" stroke-miterlimit="10" stroke-linecap="round"/>
<path d="M9.11283 24.7352H5.92004C3.20468 24.7344 1 22.5323 1 19.8152C1 17.0981 3.20383 14.896 5.92004 14.896H13.3679C16.0858 14.8951 18.2879 17.0981 18.2879 19.8152C18.2879 20.4938 18.1507 21.1409 17.9017 21.73" stroke="white" stroke-width="1.4991" stroke-miterlimit="10" stroke-linecap="round"/>
</svg>
