<svg width="76" height="75" viewBox="0 0 76 75" fill="none" xmlns="http://www.w3.org/2000/svg">
<path d="M38 0C17.0129 0 0 16.7891 0 37.5C0 58.2109 17.0129 75 38 75C58.9871 75 76 58.2109 76 37.5C76 16.7891 58.9871 0 38 0ZM28.6979 53.043H21.0029V28.6055H28.6979V53.043ZM24.8029 25.6055C22.3725 25.6055 20.801 23.9062 20.801 21.8047C20.801 19.6602 22.42 18.0117 24.9019 18.0117C27.3837 18.0117 28.9037 19.6602 28.9513 21.8047C28.9513 23.9062 27.3837 25.6055 24.8029 25.6055ZM56.8021 53.043H49.1071V39.5C49.1071 36.3477 47.9908 34.207 45.2081 34.207C43.0825 34.207 41.8198 35.6562 41.2617 37.0508C41.0558 37.5469 41.0044 38.25 41.0044 38.9492V53.0391H33.3054V36.3984C33.3054 33.3477 33.2065 30.7969 33.1035 28.6016H39.7892L40.1415 31.9961H40.2958C41.3092 30.4023 43.791 28.0508 47.9433 28.0508C53.006 28.0508 56.8021 31.3984 56.8021 38.5937V53.043Z" fill="#2867B2"/>
</svg>
