<svg width="10" height="11" viewBox="0 0 10 11" fill="none" xmlns="http://www.w3.org/2000/svg">
<path fill-rule="evenodd" clip-rule="evenodd" d="M1.625 4.66771V3.57831C1.625 2.62929 1.98058 1.71913 2.61351 1.04806C3.24645 0.377 4.10489 0 5 0C5.89511 0 6.75355 0.377 7.38649 1.04806C8.01942 1.71913 8.375 2.62929 8.375 3.57831V4.66771C8.9325 4.71171 9.295 4.82304 9.5605 5.10453C10 5.56998 10 6.3201 10 7.81928C10 9.31846 10 10.0686 9.5605 10.534C9.1215 11 8.414 11 7 11H3C1.586 11 0.8785 11 0.4395 10.534C-2.98023e-08 10.0686 0 9.31846 0 7.81928C0 6.3201 -2.98023e-08 5.56998 0.4395 5.10453C0.7045 4.82304 1.0675 4.71171 1.625 4.66771ZM2.375 3.57831C2.375 2.84018 2.65156 2.13228 3.14384 1.61034C3.63613 1.0884 4.30381 0.795181 5 0.795181C5.69619 0.795181 6.36387 1.0884 6.85616 1.61034C7.34844 2.13228 7.625 2.84018 7.625 3.57831V4.64067C7.4335 4.63855 7.2255 4.63855 7 4.63855H3C2.774 4.63855 2.5665 4.63855 2.375 4.64067V3.57831Z" fill="black"/>
</svg>
