<svg width="69" height="65" viewBox="0 0 69 65" fill="none" xmlns="http://www.w3.org/2000/svg">
<path fill-rule="evenodd" clip-rule="evenodd" d="M32.9681 3.69792C33.0286 3.76767 33.1166 3.74856 33.1922 3.76671C33.9783 3.95877 34.5212 4.43271 34.7625 5.21337C35.0784 6.23482 34.6121 7.30022 33.6463 7.76461C33.3493 7.81047 33.3209 8.00827 33.3228 8.27008C33.3322 10.1993 33.3275 12.1285 33.3275 14.0586C33.3275 14.1293 33.3256 14.201 33.3285 14.2717C33.3294 14.3099 33.3162 14.3558 33.3568 14.3806C33.4032 14.4102 33.4306 14.3653 33.4571 14.3414C33.5101 14.2937 33.5574 14.2421 33.6075 14.1914C34.5241 13.2655 35.4407 12.3396 36.3582 11.4128C36.4074 11.3631 36.4566 11.3115 36.5086 11.2628C36.6855 11.0984 36.8926 11.0067 37.1357 11.0105C37.2464 11.0115 37.3571 11.0105 37.4677 11.0105C38.845 11.0105 40.2222 11.0124 41.5995 11.0134C41.6704 11.0134 41.7404 11.0124 41.8113 11.0124C41.9163 11.0115 42.009 10.9752 42.0838 10.9016C42.3628 10.6226 42.6381 10.3416 42.9181 10.0636C42.9843 9.99861 42.9559 9.9365 42.9256 9.87153C42.762 9.52467 42.7005 9.15967 42.7251 8.7765C42.7847 7.84869 43.4988 7.04701 44.4003 6.86451C45.4626 6.64952 46.6582 7.3222 46.8767 8.58158C47.0734 9.72151 46.3697 10.7382 45.3008 11.0067C44.8874 11.1099 44.4835 11.0726 44.0853 10.9331C44.0191 10.9092 43.9529 10.8834 43.8905 10.8509C43.8053 10.8079 43.741 10.829 43.6757 10.8949C43.4639 11.1127 43.2482 11.3249 43.0354 11.5408C42.9143 11.6622 42.7923 11.7835 42.675 11.9087C42.5123 12.0816 42.3155 12.1581 42.0809 12.1552C41.7896 12.1524 41.4983 12.1533 41.2069 12.1552C41.1502 12.1552 41.0934 12.1648 41.0187 12.1715C41.0612 12.2833 41.136 12.3368 41.1975 12.3989C41.6723 12.8805 42.149 13.3601 42.6248 13.8427C42.6882 13.9067 42.7554 13.9717 42.8055 14.0462C42.9606 14.2717 42.9408 14.5545 42.7639 14.7466C42.5747 14.952 42.2881 14.9893 42.0507 14.8316C41.9684 14.7762 41.8955 14.7026 41.8255 14.631C41.1142 13.9143 40.4038 13.1948 39.6935 12.4772C39.6433 12.4266 39.5904 12.3788 39.545 12.3253C39.4324 12.1887 39.2886 12.1485 39.1165 12.1504C38.5641 12.1562 38.0107 12.1581 37.4573 12.1504C37.2823 12.1485 37.1547 12.2116 37.0336 12.3349C35.8569 13.5293 34.6764 14.7208 33.4949 15.9104C33.3814 16.0241 33.3209 16.1436 33.3218 16.3117C33.3275 17.917 33.3256 19.5204 33.3266 21.1247C33.3266 21.1639 33.3332 21.2021 33.337 21.2403C33.4353 21.2613 33.4656 21.182 33.512 21.1371C34.1892 20.4568 34.8637 19.7736 35.539 19.0913C35.6024 19.0273 35.6658 18.9604 35.7311 18.8974C35.8834 18.7512 36.064 18.6738 36.275 18.6719C36.3752 18.6719 36.4764 18.6709 36.5767 18.6719C39.9347 18.6728 43.2917 18.6747 46.6487 18.6757C46.7093 18.6757 46.7698 18.6738 46.8294 18.6766C47.0119 18.6852 47.1586 18.6174 47.2872 18.4865C48.1442 17.6151 49.0031 16.7465 49.862 15.876C49.8903 15.8473 49.9178 15.8158 49.9443 15.7862C49.9745 15.7537 49.9802 15.7136 49.9641 15.6744C49.932 15.5894 49.8922 15.5062 49.861 15.4202C49.4458 14.3032 50.0436 12.9321 51.3584 12.6301C52.7602 12.31 53.8849 13.407 53.9227 14.6004C53.9549 15.6438 53.2757 16.5439 52.2598 16.7704C51.89 16.8526 51.5201 16.8315 51.1597 16.7035C51.0746 16.6729 50.9904 16.6404 50.9062 16.606C50.8523 16.585 50.8088 16.5974 50.7681 16.6347C50.7388 16.6615 50.7104 16.692 50.6821 16.7197C50.0994 17.3083 49.5158 17.8969 48.9331 18.4865C48.8971 18.5218 48.8621 18.5582 48.8328 18.5983C48.813 18.626 48.8262 18.6652 48.8565 18.6671C48.9463 18.6757 49.0362 18.6747 49.127 18.6747C50.9668 18.6757 52.8066 18.6766 54.6454 18.6766C54.7457 18.6766 54.8469 18.6728 54.9472 18.6833C55.2621 18.7139 55.4712 18.9432 55.4674 19.2452C55.4646 19.549 55.2508 19.7726 54.9358 19.7956C54.8355 19.8042 54.7343 19.7994 54.6341 19.7994C50.8344 19.7994 47.0346 19.7994 43.2349 19.7994C43.1347 19.7994 43.0344 19.8013 42.9332 19.8042C42.8935 19.8051 42.867 19.8605 42.8925 19.8911C42.9455 19.9513 43.0004 20.0115 43.0562 20.0698C43.4374 20.4606 43.8195 20.8504 44.1988 21.2432C44.2613 21.3072 44.3256 21.375 44.3719 21.4515C44.5091 21.676 44.4665 21.9713 44.2792 22.148C44.0882 22.3286 43.7996 22.3525 43.5859 22.1977C43.5045 22.1385 43.4355 22.062 43.3655 21.9904C42.7506 21.3626 42.1367 20.7339 41.5219 20.1042C41.4651 20.0459 41.4084 19.9886 41.3526 19.9303C41.2627 19.8386 41.1549 19.7946 41.0272 19.7984C40.9771 19.8003 40.9269 19.7984 40.8768 19.7984C39.51 19.7975 38.1422 19.7975 36.7753 19.7975C36.7148 19.7975 36.6552 19.7975 36.5947 19.7975C36.4783 19.8003 36.38 19.8443 36.2967 19.9245C36.2759 19.9446 36.2541 19.9676 36.2324 19.9886C35.3224 20.9078 34.4144 21.8279 33.5016 22.7443C33.3786 22.8675 33.3124 22.9975 33.3209 23.1743C33.3304 23.3663 33.3237 23.5593 33.3237 23.7524C33.3237 30.5662 33.3237 37.38 33.3237 44.1938C33.3237 44.6544 33.3843 44.5922 32.9246 44.597C32.7335 44.5999 32.5424 44.5999 32.3513 44.5961C32.2217 44.5942 32.2028 44.5703 32.1981 44.4298C32.1962 44.3591 32.1972 44.2884 32.1972 44.2167C32.1981 38.4683 32.2 32.7218 32.2009 26.9744C32.2009 26.4106 32.1981 26.4011 31.8103 26.0103C30.3451 24.5321 28.8799 23.0529 27.4146 21.5747C27.3579 21.5174 27.3011 21.4601 27.2434 21.4027C27.0713 21.2317 27.0694 21.226 26.8339 21.3273C25.7773 21.7783 24.5126 21.2757 24.0718 20.1395C23.5639 18.8305 24.4445 17.4412 25.7489 17.2711C26.8707 17.1249 27.8867 17.8988 28.0929 18.991C28.1666 19.3828 28.1165 19.7573 27.9888 20.1271C27.9652 20.194 27.9358 20.2599 27.9103 20.3249C27.8923 20.3679 27.9046 20.4071 27.9302 20.4386C27.9614 20.4788 27.9992 20.5122 28.0342 20.5475C29.3556 21.8834 30.678 23.2192 32.0014 24.5531C32.0477 24.6009 32.0808 24.6716 32.1612 24.6706C32.217 24.6209 32.1943 24.556 32.1943 24.4996C32.1972 23.0778 32.1934 21.656 32.2028 20.2341C32.2047 20.0153 32.1045 19.8768 31.9654 19.7363C30.6421 18.4024 29.3206 17.0656 27.9992 15.7308C27.8923 15.6228 27.7845 15.5158 27.6795 15.4069C27.583 15.3065 27.4695 15.2559 27.3295 15.2616C27.2094 15.2645 27.0883 15.2616 26.9672 15.2616C24.7661 15.2616 22.565 15.2635 20.3629 15.2645C20.2721 15.2645 20.1822 15.2645 20.0914 15.2645C19.8266 15.2645 19.6043 15.1718 19.417 14.9788C19.0377 14.588 18.6508 14.2019 18.2677 13.813C18.2185 13.7634 18.1599 13.7185 18.1192 13.663C17.9802 13.4662 17.8156 13.4175 17.6094 13.5579C16.7363 13.8503 15.9493 13.7032 15.3174 13.0171C14.714 12.3616 14.5806 11.5781 14.9258 10.7563C15.2664 9.94606 15.902 9.51608 16.7789 9.47212C17.7872 9.42148 18.6508 10.1324 18.8759 11.0545C18.9762 11.4692 18.9592 11.88 18.8258 12.2852C18.7974 12.3721 18.7624 12.4562 18.7274 12.5403C18.7009 12.6034 18.7095 12.6578 18.7568 12.7066C18.8211 12.7706 18.8835 12.8365 18.9478 12.9015C19.2959 13.2541 19.6469 13.6028 19.9902 13.9592C20.1037 14.0777 20.2267 14.1274 20.3903 14.1265C21.3457 14.1207 22.3001 14.1226 23.2555 14.1217C23.2952 14.1217 23.3359 14.1188 23.3756 14.1159C23.4154 14.1121 23.4371 14.0586 23.4087 14.0261C23.3558 13.9659 23.3009 13.9057 23.2441 13.8484C23.0105 13.6105 22.775 13.3745 22.5413 13.1365C22.4231 13.0181 22.3493 12.8805 22.3493 12.7056C22.3503 12.2775 22.7816 12.0138 23.1609 12.2106C23.2612 12.2632 23.3368 12.3444 23.4154 12.4228C23.8703 12.8814 24.3253 13.342 24.7803 13.8016C24.8229 13.8446 24.8692 13.8847 24.907 13.9315C25.0243 14.0758 25.171 14.1331 25.3573 14.1255C25.6382 14.114 25.9201 14.1226 26.202 14.1217C26.6437 14.1217 27.0874 14.1351 27.5282 14.115C27.8583 14.1007 28.1014 14.2277 28.3274 14.459C29.5155 15.6706 30.7121 16.8745 31.9068 18.0804C31.9824 18.1568 32.0628 18.2275 32.1584 18.3174C32.2085 18.2056 32.1943 18.1148 32.1943 18.0269C32.1953 16.8287 32.1962 15.6304 32.1962 14.4322C32.1962 14.1073 32.1915 13.7815 32.199 13.4576C32.2028 13.2827 32.1555 13.1384 32.0259 13.0228C31.9815 12.9817 31.9408 12.9359 31.8982 12.8929C30.0499 10.999 28.2007 9.10233 26.3533 7.20754C26.2692 7.12154 26.1897 7.02886 26.1121 6.93617C25.9835 6.78329 25.9835 6.46797 26.1017 6.30457C26.2379 6.11729 26.4233 6.03703 26.6532 6.06569C26.7468 6.0762 26.8282 6.11634 26.8972 6.17462C26.9663 6.23387 27.0316 6.29789 27.0949 6.3619C28.703 8.01113 30.3101 9.66131 31.9219 11.3086C31.9928 11.3812 32.0316 11.5045 32.1612 11.5064C32.2123 11.4118 32.1877 11.3096 32.1877 11.2112C32.1915 10.2165 32.1924 9.22082 32.1943 8.22612C32.1943 8.16593 32.1915 8.10382 32.1943 8.04362C32.2 7.93947 32.1603 7.8764 32.0581 7.83723C31.7554 7.7197 31.4849 7.54962 31.255 7.31265C30.1682 6.18513 30.6534 4.27505 32.1432 3.81449C32.2757 3.7734 32.4251 3.78869 32.5424 3.69696C32.6871 3.69792 32.8271 3.69792 32.9681 3.69792Z" fill="#00A0FA"/>
<path fill-rule="evenodd" clip-rule="evenodd" d="M23.5459 61.9234C23.5024 61.8728 23.439 61.8852 23.3823 61.8747C23.2423 61.8499 23.1023 61.8298 22.9632 61.7973C22.5272 61.696 22.2018 61.4227 21.9161 61.0921C21.7846 60.9402 21.6683 60.774 21.5614 60.601C19.5542 57.3312 17.5479 54.0614 15.5397 50.7926C14.9845 49.8858 14.4283 48.9809 13.8712 48.0761C13.8362 48.0178 13.7993 47.9604 13.7709 47.8993C13.7567 47.8716 13.7567 47.8324 13.8068 47.8276C13.8655 47.8228 13.9232 47.8228 13.9818 47.8228C15.046 47.8228 16.1092 47.8228 17.1724 47.8228C17.2225 47.8228 17.2736 47.8248 17.3228 47.8248C17.3682 47.8257 17.4032 47.8448 17.4278 47.884C17.4647 47.9404 17.5016 47.9967 17.5356 48.0541C19.1011 50.6349 20.6675 53.2158 22.233 55.7967C22.7145 56.5897 23.1959 57.3828 23.6764 58.1769C23.7237 58.2552 23.7748 58.3326 23.8278 58.4167C23.9252 58.3832 23.947 58.2925 23.9886 58.2265C24.3575 57.6207 24.7226 57.014 25.0896 56.4082C26.3694 54.2936 27.6464 52.18 28.9253 50.0654C29.3263 49.4033 29.7274 48.7382 30.1285 48.0741C30.1502 48.0388 30.1767 48.0044 30.1937 47.9662C30.2458 47.8496 30.3347 47.8219 30.4558 47.8228C31.5275 47.8267 32.5992 47.8248 33.6709 47.8248C33.704 47.8248 33.7371 47.8248 33.7712 47.8267C33.8374 47.8305 33.8639 47.8697 33.8336 47.9241C33.8062 47.9767 33.774 48.0264 33.7428 48.0751C31.5596 51.6124 29.3774 55.1507 27.1933 58.6881C26.8263 59.2833 26.4593 59.8796 26.0913 60.4739C25.9315 60.7329 25.7612 60.9813 25.555 61.2087C25.1918 61.6081 24.7444 61.8231 24.2137 61.8738C24.1399 61.8833 24.0614 61.869 23.998 61.9244C23.8476 61.9234 23.6963 61.9234 23.5459 61.9234Z" fill="#00A0FA"/>
<path fill-rule="evenodd" clip-rule="evenodd" d="M3.45013 47.8162C4.37807 47.8171 5.306 47.8171 6.23394 47.8171C6.30961 47.8171 6.38528 47.82 6.45906 47.8219C6.48839 47.8229 6.49974 47.8448 6.51393 47.8678C6.40042 47.9662 6.26137 47.948 6.12989 47.948C5.41951 47.949 4.70914 47.948 3.99876 47.949C3.64783 47.949 3.63269 47.9643 3.63269 48.3207C3.63175 51.236 3.63269 54.1503 3.62986 57.0627C3.62986 57.2175 3.67148 57.3886 3.54283 57.5204C3.48324 57.4612 3.51919 57.3609 3.45013 57.3054C3.45013 54.1417 3.45013 50.978 3.45013 47.8162Z" fill="#00A0FA"/>
<path fill-rule="evenodd" clip-rule="evenodd" d="M39.8638 61.5852C38.0467 61.5852 36.2306 61.5852 34.4135 61.5852C34.072 61.5852 34.1079 61.6148 34.1079 61.2689C34.106 60.6087 34.107 59.9484 34.107 59.2891C34.107 59.248 34.106 59.205 34.107 59.162C34.1117 58.99 34.1117 58.9881 34.2725 58.9843C34.3312 58.9824 34.3898 58.9843 34.4485 58.9843C35.6706 58.9843 36.8936 58.9843 38.1157 58.9843C40.192 58.9843 42.2692 58.9843 44.3445 58.9843C44.6122 58.9843 44.8809 58.9852 45.1457 58.9289C45.2687 58.904 45.3898 58.8706 45.5052 58.8228C45.701 58.7378 45.8362 58.5963 45.9062 58.3919C45.962 58.2323 45.9933 58.067 45.9942 57.896C45.9942 57.5997 45.9923 57.3026 45.9951 57.0064C45.9951 56.8774 45.9715 56.7532 45.9393 56.6308C45.8637 56.3432 45.6896 56.1388 45.4125 56.0279C45.1921 55.939 44.9622 55.898 44.7267 55.8865C44.5848 55.8789 44.442 55.8817 44.3001 55.8817C42.2314 55.8817 40.1627 55.8808 38.0959 55.8817C37.6012 55.8817 37.1084 55.8607 36.6193 55.7823C36.2637 55.7241 35.9156 55.6323 35.5854 55.4823C34.9186 55.1746 34.492 54.6625 34.3028 53.9477C34.2167 53.62 34.1637 53.2856 34.1496 52.9464C34.1231 52.3301 34.1202 51.7128 34.1505 51.0955C34.1732 50.6378 34.2517 50.1887 34.3983 49.754C34.6726 48.938 35.2071 48.3847 36.0168 48.1114C36.1833 48.0531 36.3535 48.0063 36.5247 47.9681C36.9598 47.8687 37.4016 47.8362 37.8452 47.8276C38.2226 47.82 38.5991 47.8248 38.9756 47.8248C41.9732 47.8248 44.9707 47.8248 47.9683 47.8248C48.3051 47.8248 48.2738 47.7846 48.2748 48.1411C48.2757 48.7994 48.2748 49.4597 48.2748 50.119C48.2748 50.1534 48.2748 50.1868 48.2748 50.2212C48.2729 50.4343 48.2729 50.4353 48.0714 50.4391C48.0137 50.4391 47.9551 50.4391 47.8964 50.4391C44.773 50.4391 41.6497 50.4391 38.5272 50.4391C38.3428 50.4391 38.1583 50.4429 37.9748 50.4496C37.8064 50.4572 37.6447 50.4983 37.4867 50.5604C37.2465 50.6569 37.0838 50.8261 37.0043 51.0764C36.9532 51.2379 36.9182 51.4032 36.9144 51.5742C36.9097 51.8446 36.9107 52.1151 36.9116 52.3864C36.9125 52.5317 36.9447 52.6712 36.9873 52.8078C37.0696 53.0677 37.2408 53.2416 37.4943 53.3314C37.6929 53.4021 37.901 53.4299 38.1101 53.4375C38.2274 53.4423 38.3447 53.4413 38.4619 53.4413C40.4805 53.4413 42.4981 53.4413 44.5157 53.4413C44.9509 53.4413 45.3869 53.4471 45.8192 53.5015C46.2099 53.5522 46.5967 53.6229 46.9685 53.7557C47.8889 54.0873 48.4517 54.737 48.6531 55.703C48.7165 56.0088 48.7619 56.3184 48.7638 56.6328C48.7676 57.208 48.7685 57.7832 48.7629 58.3594C48.7591 58.7234 48.7023 59.0827 48.6163 59.4363C48.4053 60.3096 47.8756 60.8944 47.0546 61.2231C46.663 61.3788 46.2553 61.4658 45.8391 61.5212C45.4058 61.5814 44.9717 61.5862 44.5356 61.5862C42.9787 61.5871 41.4217 61.5852 39.8638 61.5852Z" fill="#00A0FA"/>
<path fill-rule="evenodd" clip-rule="evenodd" d="M21.5652 31.5724C21.4668 31.5026 21.3855 31.5255 21.3088 31.5227C20.1132 31.4825 18.9166 31.4959 17.721 31.493C16.323 31.4902 14.9259 31.494 13.5288 31.4959C13.3273 31.4959 13.1258 31.5102 12.9253 31.4997C12.6907 31.4864 12.5072 31.5313 12.458 31.7998C12.0484 32.6206 11.391 33.0668 10.481 33.0486C9.35069 33.0267 8.62423 32.1533 8.47194 31.2742C8.26101 30.0579 9.1984 28.7765 10.6144 28.8157C11.373 28.8357 11.951 29.2065 12.3483 29.8601C12.3852 29.9203 12.4296 29.9814 12.4457 30.0483C12.5053 30.3006 12.6585 30.3579 12.9054 30.356C14.9457 30.3455 16.9861 30.3512 19.0273 30.3483C19.1342 30.3483 19.2439 30.3684 19.3612 30.3254C19.3357 30.2203 19.2562 30.1697 19.1947 30.1085C18.5165 29.4291 17.8364 28.7517 17.1573 28.0732C17.0929 28.0102 17.0258 27.9471 16.969 27.8764C16.7865 27.649 16.7997 27.3318 16.9889 27.1254C17.1932 26.9027 17.5649 26.9085 17.7541 27.0891C17.8563 27.1875 17.9584 27.2849 18.0587 27.3853C18.9592 28.2854 19.8588 29.1855 20.7583 30.0865C20.8085 30.1362 20.8576 30.1859 20.9087 30.2365C20.9986 30.3254 21.1064 30.3732 21.2341 30.3722C21.3041 30.3722 21.3751 30.3732 21.4451 30.3732C23.6159 30.3732 25.7877 30.3722 27.9586 30.3722C28.2991 30.3722 28.3142 30.4066 28.3133 30.0301C28.3114 29.3794 28.3067 28.7306 28.318 28.0809C28.3218 27.8678 28.2509 27.7187 28.1042 27.5725C27.0202 26.4852 25.9381 25.3959 24.8645 24.297C24.6933 24.1212 24.5164 24.0562 24.278 24.0572C21.132 24.0629 17.9849 24.061 14.8388 24.061C14.7783 24.061 14.7178 24.0591 14.6572 24.062C14.486 24.0687 14.3441 24.0008 14.2202 23.8881C14.1748 23.847 14.1341 23.8021 14.0916 23.7591C13.3235 22.9832 12.5545 22.2092 11.7864 21.4333C11.7505 21.398 11.7126 21.3645 11.6805 21.3254C11.6114 21.247 11.5414 21.2346 11.4411 21.2824C11.146 21.4209 10.8367 21.4954 10.5075 21.4907C9.48596 21.4773 8.62613 20.7033 8.46438 19.6809C8.29411 18.6012 9.05368 17.2921 10.4915 17.2548C11.601 17.2252 12.3738 18.0011 12.5819 18.8907C12.6774 19.2987 12.6415 19.6972 12.5129 20.0899C12.4911 20.1577 12.4703 20.2275 12.4362 20.2896C12.3833 20.387 12.4088 20.4568 12.4826 20.5304C12.755 20.8008 13.0227 21.075 13.2932 21.3483C13.7548 21.8155 14.2193 22.2799 14.6761 22.751C14.8057 22.8857 14.9457 22.9421 15.1302 22.9411C16.6682 22.9364 18.2063 22.9373 19.7443 22.9354C19.784 22.9354 19.8247 22.9335 19.8644 22.9297C19.9042 22.9268 19.9316 22.8704 19.9051 22.8418C19.8588 22.7883 19.8096 22.7376 19.7604 22.687C19.5192 22.4424 19.278 22.1968 19.0349 21.9531C18.9166 21.8347 18.8381 21.6999 18.8381 21.5251C18.8362 21.0941 19.2581 20.8247 19.6412 21.0139C19.7424 21.0636 19.819 21.1457 19.8966 21.225C20.38 21.7143 20.8681 22.1978 21.3429 22.6927C21.5084 22.8666 21.6844 22.9469 21.9265 22.9431C22.8214 22.9306 23.7162 22.9364 24.6101 22.9373C24.7198 22.9373 24.8314 22.9392 24.9402 22.9564C25.0717 22.9775 25.1861 23.0453 25.2835 23.1361C25.3573 23.2039 25.4283 23.2765 25.4992 23.3492C26.6797 24.5407 27.8593 25.7322 29.0388 26.9247C29.0814 26.9677 29.1239 27.0107 29.1665 27.0537C29.333 27.2181 29.42 27.4168 29.4191 27.6528C29.4191 27.7235 29.42 27.7952 29.42 27.8668C29.4191 33.3305 29.4191 38.7932 29.4172 44.2559C29.4172 44.6314 29.4531 44.5942 29.0757 44.5942C28.8543 44.5961 28.6339 44.5932 28.4126 44.5904C28.3559 44.5894 28.318 44.5607 28.3152 44.4996C28.3123 44.3983 28.3104 44.2961 28.3104 44.1948C28.3104 40.1137 28.3104 36.0308 28.3104 31.9498C28.3104 31.8581 28.3123 31.7673 28.3095 31.6755C28.3048 31.5303 28.2792 31.5045 28.1288 31.4969C28.0588 31.493 27.9879 31.4959 27.9179 31.4959C26.4905 31.495 25.0632 31.494 23.6358 31.494C23.5658 31.494 23.4958 31.495 23.4248 31.495C23.3302 31.4959 23.248 31.5284 23.1808 31.5943C23.1307 31.645 23.0805 31.6937 23.0304 31.7443C22.1923 32.5928 21.3542 33.4404 20.5162 34.287C20.4736 34.3309 20.4329 34.3758 20.3885 34.4179C20.327 34.4752 20.327 34.5373 20.3601 34.609C20.4405 34.7848 20.5029 34.9664 20.5389 35.1565C20.7659 36.3509 19.9193 37.6284 18.5137 37.6676C17.5271 37.6944 16.6994 37.0312 16.4526 36.1092C16.1347 34.9234 16.8669 33.6468 18.2072 33.4433C18.5506 33.3917 18.8892 33.4404 19.2156 33.5617C19.2818 33.5856 19.3461 33.6133 19.4104 33.643C19.4634 33.6678 19.5078 33.6535 19.5466 33.6162C19.5759 33.5885 19.6043 33.5598 19.6327 33.5312C20.2371 32.9206 20.8416 32.311 21.4451 31.7004C21.4848 31.665 21.516 31.6259 21.5652 31.5724Z" fill="#00A0FA"/>
<path fill-rule="evenodd" clip-rule="evenodd" d="M36.1038 36.0136C36.1038 33.2817 36.1038 30.5499 36.1038 27.8181C36.1038 27.7579 36.1047 27.6967 36.1038 27.6365C36.1009 27.4215 36.1794 27.24 36.3261 27.0881C36.4452 26.9648 36.5673 26.8435 36.6883 26.7221C37.306 26.0962 37.9313 25.478 38.5376 24.8426C38.7788 24.5884 39.0465 24.4805 39.3927 24.4814C41.9154 24.49 44.4391 24.4833 46.9618 24.4929C47.2125 24.4938 47.3941 24.4642 47.4443 24.1823C47.7952 23.395 48.621 22.8437 49.6019 22.9488C50.4494 23.0386 51.2052 23.696 51.3962 24.5684C51.7292 26.0905 50.5184 27.1817 49.3975 27.1712C48.5566 27.1616 47.9409 26.7823 47.5133 26.0647C47.4821 26.0122 47.4556 25.9577 47.431 25.9023C47.2891 25.5869 47.3695 25.628 46.9864 25.6271C44.5744 25.6252 42.1614 25.6252 39.7493 25.6252C39.7096 25.6252 39.6689 25.628 39.6292 25.6252C39.4324 25.6051 39.2868 25.6873 39.1505 25.8277C38.5792 26.4144 38.0032 26.9954 37.4233 27.5725C37.2928 27.7025 37.2237 27.8382 37.2256 28.0273C37.2322 28.7373 37.2285 29.4482 37.2285 30.1591C37.2285 30.1696 37.2285 30.1792 37.2285 30.1887C37.2341 30.3282 37.2559 30.3531 37.3817 30.3588C37.4725 30.3626 37.5633 30.3617 37.6541 30.3617C41.7953 30.3617 45.9374 30.3617 50.0786 30.3617C50.9233 30.3617 51.767 30.3617 52.6117 30.3617C52.6921 30.3607 52.7725 30.3617 52.8529 30.3588C52.9182 30.3569 52.9674 30.3292 52.992 30.2633C53.0223 30.1887 53.0497 30.1123 53.0866 30.0397C53.4858 29.2399 54.1328 28.8099 55.0162 28.8156C56.0728 28.8223 56.9866 29.6145 57.0812 30.7678C57.1748 31.922 56.3528 32.8508 55.3416 33.018C54.3853 33.1766 53.4678 32.696 53.0771 31.7931C52.9854 31.5809 52.8813 31.514 52.659 31.515C49.8544 31.5226 47.0498 31.5198 44.2452 31.5226C44.1534 31.5226 44.0191 31.4634 43.9784 31.5742C43.9501 31.6497 44.0693 31.7166 44.1288 31.7816C44.6794 32.374 45.2497 32.9473 45.8258 33.5139C45.8693 33.5569 45.9128 33.599 45.9592 33.6391C45.9999 33.6745 46.0462 33.684 46.0982 33.6592C46.1531 33.6353 46.208 33.6095 46.2647 33.5866C47.3922 33.1193 48.8319 33.7175 49.1109 35.1527C49.3701 36.4866 48.3618 37.5883 47.2163 37.6599C46.0632 37.7335 45.2043 36.9548 45.0038 35.9964C44.9253 35.6209 44.949 35.2492 45.0644 34.8842C45.0918 34.7962 45.1192 34.7083 45.1608 34.6281C45.2138 34.5268 45.1816 34.4561 45.1069 34.3882C45.0625 34.3472 45.0218 34.3013 44.9792 34.2583C44.1487 33.4174 43.3163 32.5766 42.4849 31.7367C42.4423 31.6927 42.3997 31.6507 42.3562 31.6077C42.2805 31.536 42.1907 31.4949 42.0847 31.4949C42.0252 31.4959 41.9646 31.494 41.9041 31.494C40.4663 31.4949 39.0295 31.4949 37.5917 31.4968C37.2086 31.4968 37.2294 31.4663 37.2294 31.8552C37.2294 35.9572 37.2294 40.0602 37.2285 44.1632C37.2285 44.662 37.2928 44.5903 36.7952 44.5951C36.6042 44.598 36.4131 44.5951 36.222 44.5932C36.152 44.5922 36.1094 44.5588 36.1085 44.4833C36.1076 44.3916 36.1066 44.3008 36.1066 44.21C36.1047 41.4772 36.1047 38.7454 36.1038 36.0136Z" fill="#00A0FA"/>
<path fill-rule="evenodd" clip-rule="evenodd" d="M3.54187 57.5195C3.54565 57.4602 3.55322 57.4029 3.55322 57.3427C3.55227 54.2831 3.55133 51.2255 3.55038 48.1649C3.55038 48.1066 3.54944 48.0474 3.55133 47.9882C3.557 47.8945 3.57971 47.8745 3.67713 47.8687C3.74335 47.8649 3.81145 47.8668 3.87767 47.8668C4.75641 47.8668 5.63422 47.8668 6.51296 47.8668C6.51675 47.9671 6.52526 48.0684 6.52526 48.1697C6.52526 50.9847 6.52526 53.8025 6.52526 56.6194C6.52526 56.9576 6.54418 57.2959 6.6085 57.6274C6.73052 58.2543 7.10037 58.6479 7.70291 58.8228C8.06047 58.9269 8.42843 58.9499 8.79544 58.9661C8.95435 58.9728 9.11421 58.969 9.27312 58.969C11.7599 58.969 14.2467 58.9671 16.7335 58.969C17.1014 58.969 17.0541 58.9289 17.056 59.291C17.0579 59.958 17.056 60.6268 17.056 61.2966C17.056 61.3626 17.0551 61.4314 17.0532 61.4992C17.0523 61.5499 17.022 61.5776 16.9756 61.5804C16.9179 61.5871 16.8583 61.5852 16.7997 61.5852C14.0783 61.5852 11.3579 61.5852 8.63558 61.5852C8.15884 61.5852 7.68116 61.5728 7.20726 61.5155C6.64917 61.4467 6.10055 61.3435 5.57462 61.1313C4.64858 60.7549 4.04888 60.087 3.77456 59.1209C3.62889 58.5983 3.54471 58.0632 3.54187 57.5195Z" fill="#00A0FA"/>
<path d="M66.7379 61.5174C66.7304 61.5126 66.7256 61.5069 66.7181 61.504C64.1878 60.0268 61.6584 58.5505 59.13 57.0742C59.1082 57.0599 59.0865 57.0503 59.0638 57.0369C59.0496 57.0283 59.0373 57.0169 59.0231 57.0073C59.0165 57.0035 59.008 56.9987 59.0033 56.9911C58.9995 56.9853 59.0014 56.9758 58.9957 56.9328C59.0997 56.9328 59.1915 56.9347 59.2823 56.9328C60.2036 56.9251 61.124 56.949 62.0443 56.9127C62.6062 56.8888 63.1643 56.8401 63.7167 56.7417C64.1632 56.6633 64.5964 56.5353 65.005 56.3308C65.6993 55.9849 66.178 55.4441 66.4334 54.7064C66.5469 54.3758 66.6187 54.0376 66.6462 53.6907C66.7162 52.8298 66.7143 51.9669 66.6443 51.106C66.6121 50.719 66.5317 50.3368 66.4021 49.9709C66.1571 49.2762 65.7145 48.7602 65.0627 48.4258C64.7998 48.293 64.5245 48.1926 64.2417 48.1152C63.7129 47.9738 63.1728 47.9117 62.6299 47.8725C62.0869 47.8343 61.543 47.8219 60.9982 47.8219C57.6572 47.8257 54.3172 47.8238 50.9763 47.8238C50.6121 47.8257 50.6414 47.7751 50.6414 48.164C50.6414 52.5192 50.6414 56.8745 50.6414 61.2307C50.6414 61.29 50.6414 61.3501 50.6414 61.4103C50.6462 61.5718 50.6547 61.5823 50.8117 61.5852C50.8703 61.5881 50.9299 61.5852 50.9886 61.5852C51.7425 61.5852 52.4954 61.5881 53.2483 61.5833C53.3789 61.5833 53.5151 61.6186 53.64 61.5479C53.6797 61.4237 53.6589 61.2966 53.6589 61.1705C53.6608 59.7917 53.6598 58.4138 53.6608 57.035C53.6608 56.9022 53.6532 56.7675 53.6816 56.6394C53.7516 56.628 53.7885 56.6671 53.8301 56.6929C53.9937 56.7942 54.1564 56.8984 54.321 57.0016C56.6877 58.4874 59.0553 59.9723 61.421 61.4619C61.561 61.5508 61.7029 61.59 61.8693 61.5881C63.4093 61.5833 64.9502 61.5852 66.491 61.5852C66.5573 61.5852 66.6254 61.5852 66.6916 61.5833C66.7256 61.5833 66.7578 61.5804 66.7568 61.5326C66.7512 61.5269 66.7436 61.5221 66.7379 61.5174ZM53.936 54.609C53.6608 54.608 53.6598 54.6414 53.6598 54.3357C53.6608 53.1183 53.6598 51.902 53.6598 50.6846C53.6598 50.6502 53.6589 50.6168 53.6608 50.5824C53.6655 50.4247 53.674 50.4152 53.8348 50.4123C53.8774 50.4104 53.919 50.4123 53.9606 50.4123C56.3557 50.4123 58.7488 50.4123 61.1429 50.4123C61.6035 50.4123 62.0633 50.4324 62.5192 50.5012C62.6601 50.5212 62.7963 50.5614 62.9297 50.6139C63.2286 50.7334 63.431 50.9465 63.5323 51.2541C63.5909 51.4309 63.6306 51.6124 63.6363 51.7988C63.6514 52.2718 63.6524 52.7447 63.6363 53.2187C63.6306 53.3983 63.5928 53.5703 63.5398 53.7413C63.4433 54.0624 63.2333 54.2783 62.9288 54.4035C62.7017 54.4972 62.4624 54.5402 62.2203 54.5602C61.8362 54.5937 61.4513 54.6118 61.0663 54.6109C59.969 54.6061 58.8737 54.609 57.7764 54.609C56.4966 54.609 55.2158 54.6109 53.936 54.609Z" fill="#00A0FA"/>
</svg>
