<svg width="24" height="24" viewBox="0 0 24 24" fill="none" xmlns="http://www.w3.org/2000/svg">
<path d="M12 23.9422C5.38332 23.9422 6.23346e-05 18.5636 6.23346e-05 11.9526C-0.00562572 10.1902 0.37803 8.44823 1.12362 6.85124C1.8692 5.25425 2.95831 3.84166 4.31313 2.71438L5.28813 1.90669L6.91331 3.85207L5.93832 4.65976C4.8696 5.55004 4.0107 6.66537 3.42299 7.92606C2.83528 9.18675 2.53326 10.5617 2.53852 11.9526C2.53852 17.1674 6.78293 21.4101 12 21.4101C17.2171 21.4101 21.4615 17.1674 21.4615 11.9526C21.4614 10.5578 21.1517 9.18041 20.5548 7.91977C19.9579 6.65913 19.0887 5.54668 18.0098 4.66265L17.0291 3.85496L18.6444 1.90381L19.6252 2.7115C20.9926 3.83227 22.0943 5.24252 22.8509 6.84055C23.6074 8.43858 23.9999 10.1846 24 11.9526C24 18.5636 18.6167 23.9422 12 23.9422Z" fill="white"/>
<path d="M10.7314 0H13.2699V12.923H10.7314V0Z" fill="white"/>
</svg>
