<svg width="17" height="19" viewBox="0 0 17 19" fill="none" xmlns="http://www.w3.org/2000/svg">
<g clip-path="url(#clip0_1571_31)">
<path d="M0.350472 8.07708C0.131708 8.34511 0 8.68572 0 9.05658V17.4012C0 18.262 0.706727 18.962 1.57536 18.962H1.78898L1.82753 19.0002L1.86544 18.962H15.1342L15.1725 19.0002L15.2107 18.962H15.4246C16.2933 18.962 16.9997 18.262 16.9997 17.4012V9.05658C16.9997 8.68572 16.868 8.34543 16.6492 8.07676C16.6508 7.96885 16.6103 7.8603 16.5271 7.77817L8.79618 0.116991C8.63942 -0.0386714 8.36123 -0.0386714 8.20414 0.116991L0.473186 7.77786C0.389342 7.8603 0.348866 7.96885 0.350472 8.07708ZM2.56606 18.2683L6.51667 14.3535L8.20414 16.0257C8.28252 16.1034 8.38917 16.1473 8.50032 16.1473C8.61147 16.1473 8.71812 16.1034 8.79618 16.0257L10.4837 14.3535L14.4343 18.2683H2.56606ZM3.83367 10.7561V7.84311H13.307V10.617L8.5 15.3805L3.83367 10.7561ZM16.3 9.05658V17.4012C16.3 17.8195 15.9993 18.17 15.6007 18.2508L11.076 13.7665L16.2094 8.67999C16.266 8.79396 16.3 8.92097 16.3 9.05658ZM8.5 0.996847L15.6389 8.07103L13.8101 9.88359V7.59323C13.8101 7.45539 13.6973 7.34429 13.5589 7.34429H3.58246C3.44305 7.34429 3.33093 7.45634 3.33093 7.59323V10.023L1.36141 8.07103L8.5 0.996847ZM0.700302 9.05658C0.700302 8.92097 0.734354 8.79427 0.790892 8.67968L5.92398 13.7662L1.399 18.2505C1.00066 18.1696 0.699981 17.8195 0.699981 17.4009V9.05658H0.700302Z" fill="black"/>
</g>
<defs>
<clipPath id="clip0_1571_31">
<rect width="17" height="19" fill="white"/>
</clipPath>
</defs>
</svg>
