<svg width="11" height="19" viewBox="0 0 11 19" fill="none" xmlns="http://www.w3.org/2000/svg">
<g clip-path="url(#clip0_1571_34)">
<path d="M10.8441 7.05978C10.9476 6.61796 11 6.16319 11 5.70971C11 2.56128 8.53273 0 5.50047 0C2.46759 0 0 2.56128 0 5.70971C0 6.16319 0.0523824 6.61796 0.1559 7.05978C0.303382 7.98583 0.504805 8.73288 0.756116 9.28087C1.29647 10.4594 3.57105 14.3497 4.61496 16.1218C3.20375 16.3086 2.54834 16.9385 2.54834 17.5324C2.54834 18.2394 3.4719 19 5.49984 19C7.52779 19 8.45166 18.2387 8.45166 17.5324C8.45166 16.9385 7.79625 16.3086 6.38473 16.1218C7.42926 14.3497 9.70354 10.4594 10.2436 9.28087C10.4952 8.73256 10.6976 7.98583 10.8441 7.05978ZM7.60107 17.5324C7.54338 17.6995 6.83373 18.1183 5.50047 18.1183C4.15131 18.1183 3.4404 17.6901 3.39769 17.5383C3.43604 17.392 4.01505 17.0324 5.11134 16.9608C5.12413 16.9815 5.13348 16.9984 5.13909 17.0074C5.21642 17.1375 5.3533 17.2165 5.50047 17.2165C5.64764 17.2165 5.78421 17.1379 5.86153 17.0074C5.86715 16.999 5.87681 16.9822 5.88959 16.9608C6.97061 17.0311 7.54962 17.3826 7.60107 17.5324ZM10.0153 6.86589C10.0128 6.87722 10.0103 6.88855 10.0088 6.89988C9.87596 7.74015 9.692 8.43153 9.47717 8.90152C8.93152 10.0914 6.44148 14.3374 5.50016 15.9328C4.55852 14.3374 2.06879 10.0914 1.52283 8.90152C1.308 8.43218 1.12404 7.74015 0.991525 6.9002C0.989342 6.88855 0.98716 6.87722 0.984977 6.86622C0.894867 6.48751 0.849656 6.09813 0.849656 5.70971C0.849656 3.04744 2.93529 0.882027 5.50016 0.882027C8.0644 0.882027 10.1507 3.04744 10.1507 5.70971C10.151 6.09813 10.1051 6.48719 10.0153 6.86589Z" fill="black"/>
<path d="M5.50047 2.49951C3.87256 2.49951 2.54865 3.87386 2.54865 5.56379C2.54865 7.2534 3.87287 8.62806 5.50047 8.62806C7.12775 8.62806 8.45197 7.2534 8.45197 5.56379C8.45166 3.87386 7.12775 2.49951 5.50047 2.49951ZM5.50047 7.74571C4.34088 7.74571 3.39831 6.76755 3.39831 5.56346C3.39831 4.36035 4.34088 3.38154 5.50047 3.38154C6.65974 3.38154 7.60231 4.36035 7.60231 5.56346C7.60231 6.7669 6.65943 7.74571 5.50047 7.74571Z" fill="black"/>
</g>
<defs>
<clipPath id="clip0_1571_34">
<rect width="11" height="19" fill="white"/>
</clipPath>
</defs>
</svg>
