<svg width="64" height="64" viewBox="0 0 64 64" fill="none" xmlns="http://www.w3.org/2000/svg">
<g clip-path="url(#clip0_112_109)">
<path opacity="0.5" d="M31.9975 64C14.3265 64 0 49.6718 0 31.9992C0 14.3282 14.3282 0 31.9975 0C49.6735 0 63.9983 14.3282 63.9983 31.9992C64 49.6752 49.6735 64 31.9975 64Z" fill="#337CCC"/>
<path d="M27.1253 51.3433H34.9157V31.8378H40.3503L40.9288 25.3068H34.9157C34.9157 25.3068 34.9157 22.8686 34.9157 21.5856C34.9157 20.0453 35.2251 19.4383 36.7149 19.4383C37.9105 19.4383 40.9288 19.4383 40.9288 19.4383V12.6584C40.9288 12.6584 36.4845 12.6584 35.5362 12.6584C29.74 12.6584 27.1253 15.2127 27.1253 20.0975C27.1253 24.3534 27.1253 25.3051 27.1253 25.3051H23.0762V31.9202H27.1253V51.3433Z" fill="white"/>
</g>
<defs>
<clipPath id="clip0_112_109">
<rect width="64" height="64" fill="white"/>
</clipPath>
</defs>
</svg>
