<svg width="68" height="68" viewBox="0 0 68 68" fill="none" xmlns="http://www.w3.org/2000/svg">
<g clip-path="url(#clip0_112_96)">
<path d="M33.5876 67.6114C15.0384 67.6114 0 52.5695 0 34.0168C0 15.4659 15.0384 0.42749 33.5876 0.42749C52.142 0.42749 67.1786 15.4677 67.1786 34.0168C67.1804 52.573 52.1385 67.6114 33.5876 67.6114Z" fill="#C1A6DD"/>
<path d="M51.0467 21.07C51.0414 20.7382 50.9955 20.4293 50.7078 20.214C43.155 20.2722 35.604 20.3305 28.0548 20.3905C27.6136 20.6111 27.1899 20.8371 26.8352 21.2024C25.3931 22.6904 23.9369 24.1678 22.4737 25.6328C22.0465 26.0617 21.833 26.5188 21.84 27.1366C21.8894 33.7221 21.9336 40.3076 22.0059 46.8948C22.0165 47.9609 22.216 48.1427 23.2785 48.1551C24.8795 48.1727 26.4839 48.1233 28.0884 48.1357C28.9162 48.1427 29.0892 48.3139 29.1121 49.1365C29.1456 50.3191 29.1192 51.5034 29.158 52.6878C29.1686 53.0249 29.1333 53.3991 29.5287 53.5844C30.0776 53.6092 30.4483 53.2897 30.7995 52.9349C32.1851 51.5299 33.5795 50.132 34.9492 48.7093C35.394 48.2469 35.8829 48.0404 36.5219 48.0492C37.558 48.0633 38.5941 48.0421 39.6302 48.0262C40.1032 48.0192 40.4792 47.8727 40.8163 47.532C44.1099 44.1978 47.3983 40.853 50.6848 37.5117C51.0184 37.1746 51.172 36.7951 51.1684 36.322C51.1384 31.2351 51.0943 26.1517 51.0467 21.07ZM48.4502 35.1765C48.4538 35.5595 48.332 35.819 48.0725 36.0785C46.7293 37.4234 45.3967 38.7755 44.0729 40.1399C43.8134 40.4099 43.5433 40.5264 43.1691 40.5229C41.9354 40.5123 40.7033 40.5476 39.4678 40.5388C39.0918 40.5353 38.8235 40.6535 38.5623 40.9236C37.5386 41.9914 36.4936 43.0417 35.4487 44.0901C35.2863 44.2543 35.1698 44.4961 34.8027 44.5402C34.7956 43.7424 34.7886 42.9622 34.7815 42.1838C34.7709 40.5812 34.7709 40.5812 33.1365 40.5953C32.1251 40.6023 31.1119 40.5794 30.1023 40.6306C29.534 40.6588 29.4033 40.4576 29.3981 39.9157C29.3751 34.414 29.331 28.9123 29.2745 23.4105C29.2674 22.8969 29.4069 22.7398 29.9293 22.7363C35.8494 22.7063 41.7712 22.6621 47.6913 22.5986C48.2155 22.5933 48.3549 22.7451 48.3549 23.2587C48.369 27.2319 48.4061 31.2051 48.4502 35.1765Z" fill="#FEFEFE"/>
<path fill-rule="evenodd" clip-rule="evenodd" d="M44.8324 30.3879C44.843 31.3481 44.8218 32.3118 44.8677 33.272C44.8924 33.805 44.6894 33.9304 44.1916 33.9357C42.4919 33.9568 42.4919 33.9727 42.4778 32.2588C42.4636 30.6579 42.4725 29.057 42.4283 27.4561C42.416 26.9319 42.5925 26.7924 43.1008 26.7906C44.8077 26.7801 44.8077 26.7606 44.8218 28.4657C44.8253 29.1082 44.8288 29.7489 44.8324 30.3879Z" fill="#FEFEFE"/>
<path fill-rule="evenodd" clip-rule="evenodd" d="M35.9174 30.4708C35.9104 29.463 35.9174 28.4551 35.8874 27.4473C35.8751 27.006 36.0233 26.8595 36.4752 26.8436C38.2579 26.7871 38.2579 26.7712 38.2703 28.5169C38.2826 30.1143 38.2773 31.7117 38.3144 33.3091C38.3285 33.8174 38.1732 33.9833 37.6543 33.9886C35.9457 34.0063 35.9457 34.0257 35.9315 32.3153C35.9263 31.6993 35.9245 31.0868 35.9174 30.4708Z" fill="#FEFEFE"/>
</g>
<defs>
<clipPath id="clip0_112_96">
<rect width="67.1804" height="67.1822" fill="white" transform="translate(0 0.664062)"/>
</clipPath>
</defs>
</svg>
