<svg width="68" height="67" viewBox="0 0 68 67" fill="none" xmlns="http://www.w3.org/2000/svg">
<g clip-path="url(#clip0_112_103)">
<path d="M33.677 67.0018C15.1777 67.0018 0.179688 52.0006 0.179688 33.4982C0.179688 14.9976 15.1777 0 33.677 0C52.1817 0 67.1779 14.9994 67.1779 33.4982C67.1797 52.0041 52.1781 67.0018 33.677 67.0018Z" fill="#6DC8CE"/>
<path fill-rule="evenodd" clip-rule="evenodd" d="M43.3634 26.1297C42.0097 25.9272 40.6595 25.8621 39.3111 26.1649C38.8111 26.3198 38.3183 26.4958 37.8113 26.6243C37.0262 26.825 36.2992 27.9568 35.6443 27.4112C35.2165 27.0521 35.5264 25.8322 35.4683 25.0013C35.3257 22.9418 35.8027 20.8523 35.1954 18.8122C34.3223 18.2154 33.3594 18.4038 32.3965 18.4619C31.761 18.4988 31.6466 18.8456 31.6501 19.3878C31.6941 24.9714 31.7276 30.555 31.7628 36.1387C31.893 36.7319 32.4599 36.8692 32.8595 37.1737C33.5213 37.6754 34.2695 38.5098 35.0282 38.1947C35.9418 37.818 35.4278 36.6914 35.4524 35.9028C35.5985 31.2556 40.5028 28.3336 44.446 30.6149C47.9719 32.6533 48.5176 37.5522 46.7661 40.4232C45.2557 42.8982 42.6117 43.9015 40.0891 43.773C38.1581 43.6744 36.0492 42.7556 34.2308 41.5832C31.805 40.0183 29.4585 38.3425 27.237 36.5189C24.6017 34.3555 21.5722 34.4576 18.5726 34.8642C15.5677 35.2708 13.7 37.4571 12.1914 39.9321C12.1914 40.4566 12.1914 40.9812 12.1914 41.5058C13.3075 41.9546 14.4658 41.6642 15.6029 41.6924C16.0518 41.7029 16.3282 41.3614 16.5887 41.0023C18.805 37.9535 21.0124 37.4219 24.1951 39.3987C26.4536 40.7999 28.5643 42.4422 30.7435 43.9737C33.8452 46.1529 37.1864 47.5858 41.0767 47.4591C46.6851 47.2742 51.0032 43.465 51.5225 37.9518C52.0594 32.2731 48.831 27.1154 43.3634 26.1297Z" fill="white"/>
</g>
<defs>
<clipPath id="clip0_112_103">
<rect width="67" height="67" fill="white" transform="translate(0.179688)"/>
</clipPath>
</defs>
</svg>
