<svg width="69" height="67" viewBox="0 0 69 67" fill="none" xmlns="http://www.w3.org/2000/svg">
<g clip-path="url(#clip0_112_106)">
<path d="M34.177 67C15.4016 67 0.179688 52.001 0.179688 33.4974C0.179688 14.999 15.4016 0 34.177 0C52.9578 0 68.1779 14.999 68.1779 33.4974C68.1797 52.0028 52.9542 67 34.177 67Z" fill="#F98585"/>
<path fill-rule="evenodd" clip-rule="evenodd" d="M41.3069 18.0601C40.1456 17.664 38.9379 17.4018 37.7498 17.0779C35.8417 17.0779 33.93 17.0779 32.0201 17.0779C31.5431 17.664 30.8035 17.5655 30.1781 17.738C25.7295 18.9561 22.4243 21.4521 20.7574 25.8139C19.1691 29.9699 20.0499 34.7595 22.8745 37.1076C23.3712 37.5213 24.0858 38.3011 24.5557 37.891C25.047 37.4703 25.2543 36.5232 24.9791 35.6959C24.6986 34.8581 24.3806 34.0184 24.2145 33.1541C23.0621 27.2521 25.449 23.251 30.9249 21.8745C32.4239 21.4978 33.9568 21.4098 35.5004 21.5102C39.674 21.7795 42.8863 24.096 43.9046 27.5619C44.9873 31.2531 43.2168 36.7063 40.2582 38.7411C39.9151 38.9788 39.5346 39.1812 39.1433 39.3273C37.0959 40.0895 35.0895 39.8149 33.4476 38.507C31.9362 37.3013 32.7098 35.6625 33.1618 34.154C33.6406 32.5557 34.1069 30.9538 34.4642 29.3256C34.918 27.245 34.3266 25.9741 32.8062 25.4197C31.2376 24.8476 29.451 25.5182 28.4344 27.0884C27.3374 28.7835 27.2445 30.6529 27.718 32.5187C28.0021 33.6347 27.9878 34.6697 27.6876 35.747C26.5263 39.9628 25.3436 44.1732 24.2287 48.3996C23.6052 50.7671 23.4516 53.1628 24.193 55.7662C25.1703 54.4354 26.0261 53.2684 26.8836 52.0996C28.5684 48.4788 29.9709 44.7453 31.1965 40.9221C33.955 42.802 35.8185 43.3987 38.3001 43.2227C44.0672 42.8108 48.9768 37.8839 49.8022 31.6808C50.6044 25.6098 47.1634 20.065 41.3069 18.0601Z" fill="white"/>
</g>
<defs>
<clipPath id="clip0_112_106">
<rect width="68" height="67" fill="white" transform="translate(0.179688)"/>
</clipPath>
</defs>
</svg>
