<svg width="65" height="64" viewBox="0 0 65 64" fill="none" xmlns="http://www.w3.org/2000/svg">
<g clip-path="url(#clip0_112_112)">
<path d="M32.5009 64C14.5503 64 0 49.6718 0 31.9992C0 14.3282 14.552 0 32.5009 0C50.4497 0 64.9983 14.3282 64.9983 31.9992C65.0034 49.6752 50.4497 64 32.5009 64Z" fill="#EF8995"/>
<path d="M32.5002 17.6172C37.2564 17.6172 37.8199 17.6357 39.6985 17.7197C41.437 17.7971 42.3797 18.083 43.0099 18.3234C43.8399 18.6395 44.4342 19.0212 45.0575 19.635C45.6809 20.2471 46.0651 20.8339 46.3879 21.6511C46.6321 22.2699 46.9241 23.1981 47.001 24.9099C47.0881 26.7612 47.1052 27.3144 47.1052 32.0008C47.1052 36.6838 47.0881 37.2387 47.001 39.0884C46.9207 40.8035 46.6304 41.7284 46.3879 42.3488C46.0668 43.1661 45.6809 43.7512 45.0575 44.365C44.4342 44.9787 43.8399 45.3604 43.0099 45.6749C42.3831 45.9187 41.4353 46.2029 39.6985 46.2785C37.8199 46.3643 37.2564 46.3811 32.5002 46.3811C27.7406 46.3811 27.177 46.3643 25.2984 46.2785C23.5565 46.2029 22.6172 45.917 21.9871 45.6749C21.1571 45.3587 20.5628 44.9754 19.9394 44.365C19.3195 43.7512 18.9284 43.1661 18.6091 42.3488C18.3614 41.7317 18.0728 40.8019 17.996 39.0884C17.9089 37.2387 17.8918 36.6838 17.8918 32.0008C17.8918 27.3128 17.9089 26.7596 17.996 24.9099C18.0762 23.1964 18.3665 22.2699 18.6091 21.6511C18.9301 20.8339 19.3195 20.2487 19.9394 19.635C20.5628 19.0212 21.1571 18.6395 21.9871 18.3234C22.6138 18.0813 23.5582 17.7971 25.2984 17.7197C27.177 17.634 27.7406 17.6172 32.5002 17.6172ZM32.5002 14.4559C27.6603 14.4559 27.0541 14.4761 25.1516 14.5619C23.2542 14.6476 21.9597 14.9469 20.8258 15.3774C19.6508 15.8264 18.6569 16.425 17.6698 17.4003C16.6793 18.3755 16.0679 19.3542 15.6153 20.5094C15.1713 21.6259 14.8707 22.9005 14.7853 24.7686C14.6982 26.6402 14.6777 27.2371 14.6777 32.0025C14.6777 36.7645 14.6982 37.3648 14.7853 39.2347C14.8724 41.1045 15.1764 42.3774 15.6153 43.4939C16.0696 44.6508 16.6793 45.6295 17.6698 46.6047C18.6569 47.58 19.6508 48.182 20.8258 48.6276C21.9597 49.0614 23.2542 49.3607 25.1516 49.4415C27.0489 49.5272 27.6603 49.5474 32.5002 49.5474C37.3366 49.5474 37.9446 49.5272 39.8454 49.4415C41.7427 49.3557 43.0372 49.0598 44.1712 48.6276C45.3427 48.177 46.3367 47.58 47.3272 46.6047C48.3177 45.6295 48.9291 44.6508 49.385 43.4939C49.8257 42.3774 50.1262 41.1028 50.2116 39.2347C50.297 37.3665 50.3192 36.7679 50.3192 32.0025C50.3192 27.2371 50.2987 26.6402 50.2116 24.7686C50.1245 22.9005 49.8205 21.6259 49.385 20.5094C48.9274 19.3542 48.3177 18.3755 47.3272 17.4003C46.3367 16.425 45.3427 15.823 44.1712 15.3774C43.0372 14.9436 41.7427 14.6443 39.8454 14.5619C37.948 14.4744 37.3366 14.4559 32.5002 14.4559Z" fill="white"/>
<path d="M32.4997 22.9929C27.4429 22.9929 23.3477 27.0252 23.3477 32.0025C23.3477 36.978 27.4429 41.0103 32.4997 41.0103C37.553 41.0103 41.6483 36.978 41.6483 32.0025C41.65 27.0252 37.553 22.9929 32.4997 22.9929ZM32.4997 37.8508C29.2173 37.8508 26.5566 35.2293 26.5566 32.0008C26.5566 28.7706 29.219 26.1508 32.4997 26.1508C35.7786 26.1508 38.4376 28.7689 38.4376 32.0008C38.4376 35.231 35.7786 37.8508 32.4997 37.8508Z" fill="white"/>
<path d="M44.1532 22.6348C44.1532 23.7967 43.1918 24.74 42.0151 24.74C40.835 24.74 39.877 23.7967 39.877 22.6348C39.877 21.4746 40.835 20.5295 42.0151 20.5295C43.1918 20.5295 44.1532 21.4729 44.1532 22.6348Z" fill="white"/>
</g>
<defs>
<clipPath id="clip0_112_112">
<rect width="65" height="64" fill="white"/>
</clipPath>
</defs>
</svg>
