<svg width="67" height="67" viewBox="0 0 67 67" fill="none" xmlns="http://www.w3.org/2000/svg">
<g clip-path="url(#clip0_112_92)">
<path d="M33.4974 67.0018C14.998 67.0018 0 52.0006 0 33.4982C0 14.9976 14.998 0 33.4974 0C52.002 0 66.9982 14.9994 66.9982 33.4982C67 52.0041 51.9984 67.0018 33.4974 67.0018Z" fill="#515151"/>
<path fill-rule="evenodd" clip-rule="evenodd" d="M48.9988 21.671C46.0309 21.1763 43.7759 19.4354 42.3676 16.9252C41.2956 15.0153 39.9771 14.4186 37.9773 14.7319C37.5302 14.8023 37.0549 14.8041 36.6096 14.7319C35.196 14.5031 34.8193 15.047 34.8457 16.4605C34.9372 21.5495 34.8809 26.642 34.8791 31.7345C34.8791 33.8609 34.9777 35.9944 34.8422 38.1156C34.6415 41.3017 32.1823 43.3682 29.0137 43.1957C26.0986 43.0356 23.9352 40.7296 23.9545 37.8005C23.9757 34.7869 26.1497 32.4615 29.3077 32.5073C31.2493 32.5354 31.9024 31.9299 31.6278 30.0816C31.5275 29.4145 31.5468 28.7086 31.6261 28.0344C31.7827 26.6895 31.369 26.2019 29.8921 26.1984C23.3102 26.1808 17.9852 31.1378 17.7881 37.6262C17.5997 43.8646 22.8878 49.3163 29.2355 49.4148C35.7223 49.5187 40.8872 44.3927 40.947 37.7406C40.984 33.3469 40.9523 28.9515 40.9523 24.3325C42.2004 25.1282 43.1686 25.8552 44.2265 26.3991C48.446 28.566 49.3526 28.089 49.9969 23.477C50.0057 23.4013 50.011 23.3256 50.025 23.2517C50.2187 22.3768 50.0426 21.8435 48.9988 21.671Z" fill="#FEFEFE"/>
</g>
<defs>
<clipPath id="clip0_112_92">
<rect width="67" height="67" fill="white"/>
</clipPath>
</defs>
</svg>
