<svg width="66" height="64" viewBox="0 0 66 64" fill="none" xmlns="http://www.w3.org/2000/svg">
<g clip-path="url(#clip0_112_121)">
<path d="M32.9991 64C14.7742 64 0 49.6752 0 31.9992C0 14.3282 14.7759 0 32.9991 0C51.2241 0 65.9983 14.3282 65.9983 31.9992C66 49.6752 51.2224 64 32.9991 64Z" fill="#AEB9F4"/>
<path d="M24.8639 24.8662H18.0352V46.2618H24.8639V24.8662Z" fill="white"/>
<path d="M21.4175 22.0648C23.648 22.0648 25.4562 20.2972 25.4562 18.1166C25.4562 15.9361 23.648 14.1685 21.4175 14.1685C19.1871 14.1685 17.3789 15.9361 17.3789 18.1166C17.3789 20.2972 19.1871 22.0648 21.4175 22.0648Z" fill="white"/>
<path d="M35.782 35.0309C35.782 32.0227 37.2074 30.2319 39.942 30.2319C42.4529 30.2319 43.6615 31.9537 43.6615 35.0309C43.6615 38.1148 43.6615 46.2634 43.6615 46.2634H50.4608C50.4608 46.2634 50.4608 38.4477 50.4608 32.7155C50.4608 26.9849 47.1088 24.2137 42.4321 24.2137C37.7519 24.2137 35.782 27.7516 35.782 27.7516V24.8679H29.2324V46.2634H35.782C35.782 46.2634 35.782 38.3267 35.782 35.0309Z" fill="white"/>
</g>
<defs>
<clipPath id="clip0_112_121">
<rect width="66" height="64" fill="white"/>
</clipPath>
</defs>
</svg>
