<svg width="64" height="64" viewBox="0 0 64 64" fill="none" xmlns="http://www.w3.org/2000/svg">
<g clip-path="url(#clip0_112_118)">
<path d="M32 64C14.3278 64 0 49.6718 0 31.9992C0 14.3282 14.3278 0 32 0C49.6722 0 63.9983 14.3282 63.9983 31.9992C64 49.6752 49.6722 64 32 64Z" fill="#C7E2FF"/>
<path d="M14.9531 42.712C18.0487 44.6996 21.7244 45.8582 25.6758 45.8582C38.6652 45.8582 46.0031 34.8863 45.5609 25.0478C46.9279 24.0624 48.1133 22.8315 49.0499 21.4275C47.7955 21.9841 46.4453 22.3607 45.0312 22.5289C46.4739 21.6646 47.5854 20.2925 48.1049 18.658C46.753 19.4601 45.2565 20.0402 43.6642 20.3564C42.3846 18.9943 40.5686 18.1469 38.5559 18.1469C34.0395 18.1469 30.7236 22.3607 31.7426 26.736C25.9281 26.4451 20.7727 23.6588 17.324 19.4265C15.4912 22.5726 16.374 26.6839 19.488 28.7673C18.3396 28.732 17.2618 28.4158 16.3168 27.8912C16.2411 31.1348 18.5649 34.1649 21.9295 34.8409C20.9425 35.1066 19.863 35.1688 18.7701 34.9586C19.6579 37.7398 22.2406 39.7593 25.3059 39.8198C22.3684 42.1235 18.6641 43.1526 14.9531 42.712Z" fill="white"/>
</g>
<defs>
<clipPath id="clip0_112_118">
<rect width="64" height="64" fill="white"/>
</clipPath>
</defs>
</svg>
