<svg width="27" height="25" viewBox="0 0 27 25" fill="none" xmlns="http://www.w3.org/2000/svg">
<path d="M9.54254 2.04071H2.32812V9.25594H9.54254V2.04071Z" stroke="white" stroke-width="1.26667" stroke-miterlimit="10"/>
<path d="M23.6675 2.17041H16.4531V9.38464H23.6675V2.17041Z" stroke="white" stroke-width="1.26667" stroke-miterlimit="10"/>
<path d="M23.6675 15.968H16.4531V23.1822H23.6675V15.968Z" stroke="white" stroke-width="1.26667" stroke-miterlimit="10"/>
<path d="M14.5125 2.04071H10.9062V5.64783H14.5125V2.04071Z" fill="white"/>
<path d="M14.3703 17.7711H12.9766V23.4827H14.3703V17.7711Z" fill="white"/>
<path d="M12.907 7.37506H10.9062V16.2436H12.907V7.37506Z" fill="white"/>
<path d="M22.947 11.7869H20.0117V13.2555H22.947V11.7869Z" fill="white"/>
<path d="M11.8241 17.1022H10.3555V21.3612H11.8241V17.1022Z" fill="white"/>
<path d="M10.2634 17.1022H7.32812V18.5708H10.2634V17.1022Z" fill="white"/>
<path d="M18.3542 13.2555H10.0625V14.7241H18.3542V13.2555Z" fill="white"/>
<path d="M5.88551 12.4078H2.94922V18.2833H5.88551V12.4078Z" fill="white"/>
<path d="M8.82179 20.245H2.94922V23.1812H8.82179V20.245Z" stroke="white" stroke-width="1.26667" stroke-miterlimit="10"/>
</svg>
