<svg width="30" height="31" viewBox="0 0 30 31" fill="none" xmlns="http://www.w3.org/2000/svg">
<path fill-rule="evenodd" clip-rule="evenodd" d="M4.81627 13.0484V10.003C4.81627 7.35005 5.87015 4.80574 7.74608 2.92981C9.62201 1.05389 12.1663 0 14.8193 0C17.4722 0 20.0165 1.05389 21.8925 2.92981C23.7684 4.80574 24.8223 7.35005 24.8223 10.003V13.0484C26.4746 13.1714 27.549 13.4826 28.3359 14.2695C29.6386 15.5706 29.6386 17.6675 29.6386 21.8584C29.6386 26.0493 29.6386 28.1463 28.3359 29.4474C27.0348 30.75 24.9379 30.75 20.747 30.75H8.89157C4.70067 30.75 2.60375 30.75 1.30261 29.4474C-8.83298e-08 28.1463 0 26.0493 0 21.8584C0 17.6675 -8.83298e-08 15.5706 1.30261 14.2695C2.08804 13.4826 3.16392 13.1714 4.81627 13.0484ZM7.03916 10.003C7.03916 7.9396 7.85885 5.96069 9.3179 4.50164C10.777 3.04258 12.7559 2.22289 14.8193 2.22289C16.8827 2.22289 18.8616 3.04258 20.3207 4.50164C21.7797 5.96069 22.5994 7.9396 22.5994 10.003V12.9728C22.0318 12.9669 21.4153 12.9669 20.747 12.9669H8.89157C8.22174 12.9669 7.60674 12.9669 7.03916 12.9728V10.003Z" fill="#D8D8D8"/>
</svg>
