<svg width="20" height="12" viewBox="0 0 20 12" fill="none" xmlns="http://www.w3.org/2000/svg">
<path d="M6 0C2.686 0 0 2.686 0 6.00001C0 9.31401 2.686 12 6 12C8.123 12 10.028 10.903 11.188 9.00102L14.375 9.00001L15.094 10.438C15.263 10.776 15.621 11 16 11H19C19.552 11 20 10.552 20 10V4.00001C20 3.448 19.552 3 19 3L11.185 2.99201C10.102 1.15701 8.123 0 6 0ZM6 2C7.593 2 9.01801 2.95601 9.65601 4.40601C9.81601 4.76901 10.166 5.00001 10.562 5.00001H18V9.00001H16.625L15.906 7.56201C15.737 7.22401 15.379 7.00001 15 7.00001H10.562C10.166 7.00001 9.81601 7.231 9.65601 7.594C9.01801 9.04401 7.593 10 6 10C3.791 10 2 8.20901 2 6.00001C2 3.791 3.791 2 6 2ZM6 5.00001C5.744 5.00001 5.47701 5.08601 5.28101 5.28101C4.89101 5.67201 4.89101 6.328 5.28101 6.719C5.67201 7.109 6.32799 7.109 6.71899 6.719C7.10899 6.328 7.10899 5.67201 6.71899 5.28101C6.52299 5.08601 6.256 5.00001 6 5.00001Z" fill="black"/>
</svg>
