<svg width="225" height="225" viewBox="0 0 225 225" fill="none" xmlns="http://www.w3.org/2000/svg">
<path d="M112.229 224.458C174.211 224.458 224.458 174.211 224.458 112.229C224.458 50.2466 174.211 0 112.229 0C50.2466 0 0 50.2466 0 112.229C0 174.211 50.2466 224.458 112.229 224.458Z" fill="white"/>
<path d="M162.165 137.516C138.562 137.516 119.429 118.38 119.429 94.7775C119.429 71.1747 138.565 52.0421 162.165 52.0421C185.771 52.0421 204.903 71.1747 204.903 94.7775C204.903 118.384 185.771 137.516 162.165 137.516Z" fill="#6D1ED3"/>
<path fill-rule="evenodd" clip-rule="evenodd" d="M166.515 63.5456C166.748 63.7686 166.984 63.9916 167.221 64.2147C167.693 66.0321 167.364 67.8861 167.427 69.7201C167.494 71.614 167.447 71.614 169.411 71.6174C172.044 71.6207 174.677 71.6007 177.31 71.634C177.806 71.6373 178.395 71.3644 178.804 71.907C179.237 72.2431 179.67 72.5727 180.099 72.9089C180.861 73.3682 180.458 74.1071 180.432 74.6763C180.342 76.4771 180.841 78.3144 180.152 80.0819C173.066 89.1223 165.979 98.1593 158.906 107.186C159.382 107.849 159.971 107.572 160.461 107.576C166.239 107.599 172.024 107.612 177.802 107.569C178.864 107.559 179.673 107.832 180.262 108.711C180.608 111.241 180.582 113.767 180.275 116.293C179.7 117.185 178.904 117.495 177.839 117.472C174.893 117.415 171.947 117.432 169.005 117.472C168.459 117.478 167.807 117.149 167.351 117.768C167.421 120.291 167.683 122.821 167.214 125.33C166.861 125.567 166.502 125.81 166.149 126.049C163.513 126.332 160.877 126.462 158.247 125.979C157.505 125.493 157.345 124.791 157.368 123.952C157.408 122.328 157.308 120.697 157.402 119.076C157.471 117.844 157.109 117.388 155.804 117.422C152.552 117.512 149.303 117.408 146.051 117.472C144.337 117.505 143.861 116.739 143.678 115.092C143.229 111.067 144.507 107.925 147.113 104.796C153.234 97.457 158.979 89.8046 164.874 82.2821C164.515 81.6563 163.972 81.9359 163.553 81.9359C158.074 81.9126 152.598 81.886 147.116 81.9459C145.871 81.9592 145.036 81.5798 144.523 80.4614C144.174 78.0615 144.071 75.6682 144.583 73.275C145.139 72.2764 145.988 71.9369 147.116 71.9569C149.996 72.0068 152.878 71.9203 155.757 71.9968C156.982 72.0301 157.491 71.6939 157.405 70.3958C157.308 68.7848 157.415 67.1538 157.368 65.5361C157.345 64.6973 157.528 64.005 158.227 63.499C160.983 63.2094 163.752 63.1029 166.515 63.5456Z" fill="#FEFEFE"/>
<path fill-rule="evenodd" clip-rule="evenodd" d="M178.801 71.9103C175.393 71.9236 171.978 71.9036 168.566 71.9702C167.574 71.9901 167.198 71.7338 167.231 70.682C167.298 68.5284 167.231 66.3682 167.221 64.218C168.06 65.9288 167.567 67.7529 167.581 69.5137C167.594 71.0115 168.12 71.5208 169.588 71.4676C171.984 71.381 174.378 71.4376 176.774 71.4509C177.48 71.4476 178.232 71.3045 178.801 71.9103Z" fill="#6306D1"/>
<path fill-rule="evenodd" clip-rule="evenodd" d="M166.515 63.5456C163.746 63.529 160.983 63.5123 158.217 63.499C160.987 62.9065 163.753 62.8333 166.515 63.5456Z" fill="#6501D1"/>
<path fill-rule="evenodd" clip-rule="evenodd" d="M158.241 125.986C160.874 126.009 163.507 126.033 166.143 126.056C163.503 126.662 160.867 126.735 158.241 125.986Z" fill="#6501D1"/>
<path fill-rule="evenodd" clip-rule="evenodd" d="M180.273 116.293C180.266 113.764 180.263 111.237 180.259 108.711C180.882 111.241 180.858 113.767 180.273 116.293Z" fill="#6501D1"/>
<path fill-rule="evenodd" clip-rule="evenodd" d="M167.208 125.334C167.255 122.811 167.298 120.288 167.344 117.771C167.711 120.301 167.96 122.824 167.208 125.334Z" fill="#5E00D0"/>
<path fill-rule="evenodd" clip-rule="evenodd" d="M180.149 80.0852C180.286 77.692 180.382 75.2987 180.096 72.9122C181.018 75.2954 180.908 77.6887 180.149 80.0852Z" fill="#6501D1"/>
<path fill-rule="evenodd" clip-rule="evenodd" d="M144.573 73.2816C144.553 75.6781 144.533 78.0714 144.513 80.4679C143.877 78.0647 143.761 75.6681 144.573 73.2816Z" fill="#6501D1"/>
<path d="M61.917 139.041C38.3109 139.041 19.1816 119.905 19.1816 96.302C19.1816 72.6991 38.3175 53.5666 61.917 53.5666C85.5231 53.5666 104.656 72.6991 104.656 96.302C104.656 119.908 85.5231 139.041 61.917 139.041Z" fill="#00D532"/>
<path fill-rule="evenodd" clip-rule="evenodd" d="M67.163 71.5774C71.9161 71.5841 72.2157 71.8204 71.2205 75.8446C70.8377 77.3791 71.2404 77.9516 72.5519 78.4209C74.4958 79.1166 76.2033 80.265 77.821 81.5431C79.0992 82.5517 79.0825 83.4903 78.0207 84.7319C75.2846 87.9306 75.2048 87.9872 71.763 85.8237C68.8439 83.9929 65.6584 83.2473 62.2433 83.6634C60.3294 83.8931 58.4821 84.5155 58.056 86.6857C57.6067 88.9525 59.2177 90.0543 61.0151 90.8098C63.7079 91.9449 66.4939 92.8669 69.1401 94.0951C74.6722 96.6648 76.7858 99.7736 76.4163 104.593C76.0003 110.032 72.8148 113.264 67.8819 115.005C66.7835 115.395 65.6285 115.851 64.4934 115.874C62.7326 115.914 62.0936 116.636 62.0303 118.324C61.9471 120.497 60.7155 121.433 58.522 121.166C57.5567 121.046 56.5681 121.103 55.5862 121.11C53.5525 121.126 52.8235 119.911 53.4726 118.254C54.4745 115.734 53.5425 114.736 51.1859 114.143C50.0908 113.87 49.0822 113.124 48.1103 112.479C44.136 109.859 44.1293 109.24 47.4246 105.971C48.7993 104.6 49.8245 104.387 51.3656 105.768C54.4479 108.544 58.2125 109.416 62.2799 109.03C64.6699 108.807 66.8301 107.982 67.3194 105.356C67.8054 102.739 65.6751 101.867 63.7545 101.052C61.1582 99.9534 58.4721 99.038 55.9357 97.7965C50.7299 95.2501 48.6595 91.6486 49.2586 86.5992C49.7912 82.1356 53.2429 78.5341 58.2424 77.2759C59.2843 77.0196 60.3427 76.7633 61.4045 76.7067C62.4031 76.6535 62.7526 76.2807 62.8059 75.3154C62.9723 72.2531 64.5101 70.8751 67.163 71.5774Z" fill="#FEFEFE"/>
<path d="M58.4751 160.376L112.3 193.014L165.988 160.376" stroke="#0487D0" stroke-width="3" stroke-miterlimit="10" stroke-linecap="round" stroke-linejoin="round"/>
</svg>
