<svg width="27" height="26" viewBox="0 0 27 26" fill="none" xmlns="http://www.w3.org/2000/svg">
<path d="M18.7843 15.5727C19.5411 17.0349 21.1405 23.0358 19.6789 23.7926L19.2529 24.0122C17.7906 24.769 13.819 19.9928 13.0628 18.5305L6.99324 6.78833C6.23779 5.32605 6.81087 3.52831 8.27252 2.77288L8.69851 2.55257C10.1602 1.79647 11.9579 2.36887 12.7147 3.83115L18.7843 15.5727Z" stroke="white" stroke-width="1.26667" stroke-miterlimit="10" stroke-linecap="round" stroke-linejoin="round"/>
<path d="M13.0625 18.5299C13.0625 18.5299 15.064 18.6796 16.4058 17.9854C17.7496 17.2926 18.7833 15.5727 18.7833 15.5727" stroke="white" stroke-width="1.26667" stroke-miterlimit="10" stroke-linecap="round" stroke-linejoin="round"/>
<path d="M7.41797 7.60573C7.41797 7.60573 9.55188 8.86967 11.2445 7.99509C12.9371 7.11986 13.1401 4.64789 13.1401 4.64789" stroke="white" stroke-width="1.26667" stroke-miterlimit="10" stroke-linecap="round" stroke-linejoin="round"/>
</svg>
