<svg width="26" height="27" viewBox="0 0 26 27" fill="none" xmlns="http://www.w3.org/2000/svg">
<path d="M9.5445 3.04071H2.33008V10.2559H9.5445V3.04071Z" stroke="white" stroke-width="1.26667" stroke-miterlimit="10"/>
<path d="M23.6675 3.17041H16.4531V10.3846H23.6675V3.17041Z" stroke="white" stroke-width="1.26667" stroke-miterlimit="10"/>
<path d="M23.6675 16.968H16.4531V24.1822H23.6675V16.968Z" stroke="white" stroke-width="1.26667" stroke-miterlimit="10"/>
<path d="M14.5125 3.04071H10.9062V6.64783H14.5125V3.04071Z" fill="white"/>
<path d="M14.3703 18.7711H12.9766V24.4827H14.3703V18.7711Z" fill="white"/>
<path d="M12.907 8.37506H10.9062V17.2436H12.907V8.37506Z" fill="white"/>
<path d="M22.947 12.7869H20.0117V14.2555H22.947V12.7869Z" fill="white"/>
<path d="M11.8261 18.1022H10.3574V22.3612H11.8261V18.1022Z" fill="white"/>
<path d="M10.2634 18.1022H7.32812V19.5708H10.2634V18.1022Z" fill="white"/>
<path d="M18.3542 14.2555H10.0625V15.7241H18.3542V14.2555Z" fill="white"/>
<path d="M5.88355 13.4078H2.94727V19.2833H5.88355V13.4078Z" fill="white"/>
<path d="M8.81984 21.245H2.94727V24.1812H8.81984V21.245Z" stroke="white" stroke-width="1.26667" stroke-miterlimit="10"/>
</svg>
