<svg width="38" height="39" viewBox="0 0 38 39" fill="none" xmlns="http://www.w3.org/2000/svg">
<path d="M15.5425 9.04071H8.32812V16.2559H15.5425V9.04071Z" stroke="white" stroke-width="1.26667" stroke-miterlimit="10"/>
<path d="M29.6675 9.17041H22.4531V16.3846H29.6675V9.17041Z" stroke="white" stroke-width="1.26667" stroke-miterlimit="10"/>
<path d="M29.6675 22.968H22.4531V30.1822H29.6675V22.968Z" stroke="white" stroke-width="1.26667" stroke-miterlimit="10"/>
<path d="M20.5125 9.04071H16.9062V12.6478H20.5125V9.04071Z" fill="white"/>
<path d="M20.3703 24.7711H18.9766V30.4827H20.3703V24.7711Z" fill="white"/>
<path d="M18.907 14.3751H16.9062V23.2436H18.907V14.3751Z" fill="white"/>
<path d="M28.947 18.7869H26.0117V20.2555H28.947V18.7869Z" fill="white"/>
<path d="M17.8241 24.1022H16.3555V28.3612H17.8241V24.1022Z" fill="white"/>
<path d="M16.2634 24.1022H13.3281V25.5708H16.2634V24.1022Z" fill="white"/>
<path d="M24.3542 20.2555H16.0625V21.7241H24.3542V20.2555Z" fill="white"/>
<path d="M11.8855 19.4078H8.94922V25.2833H11.8855V19.4078Z" fill="white"/>
<path d="M14.8218 27.245H8.94922V30.1812H14.8218V27.245Z" stroke="white" stroke-width="1.26667" stroke-miterlimit="10"/>
</svg>
