<svg width="350" height="101" viewBox="0 0 350 101" fill="none" xmlns="http://www.w3.org/2000/svg">
<path fill-rule="evenodd" clip-rule="evenodd" d="M33.4127 18.8229C33.4755 18.8949 33.5668 18.8752 33.6453 18.8939C34.4608 19.0919 35.024 19.5806 35.2743 20.3856C35.602 21.4389 35.1182 22.5375 34.1163 23.0164C33.8082 23.0637 33.7788 23.2676 33.7807 23.5376C33.7905 25.5269 33.7856 27.5162 33.7856 29.5065C33.7856 29.5794 33.7837 29.6533 33.7866 29.7262C33.7876 29.7656 33.7739 29.8129 33.816 29.8385C33.8641 29.8691 33.8926 29.8228 33.9201 29.7981C33.975 29.7489 34.0241 29.6957 34.0761 29.6434C35.027 28.6887 35.9779 27.7339 36.9298 26.7782C36.9808 26.727 37.0318 26.6738 37.0858 26.6235C37.2693 26.454 37.4842 26.3595 37.7364 26.3634C37.8512 26.3644 37.966 26.3634 38.0808 26.3634C39.5096 26.3634 40.9384 26.3654 42.3672 26.3664C42.4408 26.3664 42.5134 26.3654 42.587 26.3654C42.6959 26.3644 42.7921 26.3269 42.8696 26.2511C43.1591 25.9634 43.4447 25.6737 43.7352 25.387C43.8039 25.32 43.7744 25.2559 43.743 25.1889C43.5732 24.8313 43.5095 24.4549 43.535 24.0598C43.5968 23.1031 44.3377 22.2764 45.2729 22.0882C46.3749 21.8665 47.6153 22.5602 47.842 23.8588C48.0461 25.0342 47.316 26.0826 46.2071 26.3595C45.7783 26.4659 45.3592 26.4274 44.9461 26.2836C44.8774 26.259 44.8087 26.2324 44.744 26.1989C44.6556 26.1545 44.5889 26.1762 44.5212 26.2442C44.3014 26.4688 44.0776 26.6876 43.8568 26.9102C43.7312 27.0354 43.6046 27.1605 43.483 27.2896C43.3142 27.4679 43.1101 27.5467 42.8667 27.5438C42.5645 27.5408 42.2622 27.5418 41.96 27.5438C41.9011 27.5438 41.8422 27.5536 41.7647 27.5605C41.8088 27.6758 41.8864 27.731 41.9502 27.795C42.4428 28.2916 42.9374 28.7862 43.431 29.2838C43.4967 29.3498 43.5664 29.4168 43.6184 29.4937C43.7793 29.7262 43.7587 30.0179 43.5752 30.2159C43.3789 30.4277 43.0816 30.4662 42.8353 30.3036C42.7499 30.2464 42.6744 30.1706 42.6017 30.0967C41.8638 29.3577 41.1268 28.6158 40.3899 27.8758C40.3379 27.8236 40.2829 27.7743 40.2358 27.7192C40.119 27.5783 39.9699 27.5369 39.7913 27.5389C39.2182 27.5448 38.6441 27.5467 38.07 27.5389C37.8885 27.5369 37.756 27.6019 37.6304 27.729C36.4097 28.9606 35.185 30.1893 33.9593 31.416C33.8416 31.5332 33.7788 31.6564 33.7797 31.8298C33.7856 33.4851 33.7837 35.1384 33.7846 36.7927C33.7846 36.8331 33.7915 36.8725 33.7954 36.912C33.8975 36.9336 33.9289 36.8519 33.977 36.8055C34.6796 36.104 35.3793 35.3995 36.0799 34.696C36.1457 34.63 36.2114 34.561 36.2791 34.496C36.4371 34.3453 36.6246 34.2655 36.8434 34.2635C36.9474 34.2635 37.0524 34.2625 37.1564 34.2635C40.6401 34.2645 44.1228 34.2664 47.6055 34.2674C47.6683 34.2674 47.7311 34.2655 47.7929 34.2684C47.9823 34.2773 48.1344 34.2073 48.2678 34.0723C49.1569 33.1738 50.0479 32.2781 50.939 31.3805C50.9684 31.351 50.9969 31.3184 51.0244 31.2879C51.0558 31.2544 51.0616 31.213 51.045 31.1726C51.0116 31.0849 50.9704 30.9992 50.938 30.9105C50.5072 29.7587 51.1274 28.3448 52.4914 28.0335C53.9457 27.7034 55.1125 28.8345 55.1518 30.0652C55.1851 31.1411 54.4805 32.0692 53.4266 32.3028C53.0429 32.3875 52.6592 32.3658 52.2853 32.2338C52.197 32.2023 52.1097 32.1688 52.0224 32.1333C51.9664 32.1116 51.9213 32.1244 51.8791 32.1628C51.8487 32.1904 51.8192 32.222 51.7898 32.2505C51.1853 32.8575 50.5798 33.4644 49.9753 34.0723C49.938 34.1088 49.9017 34.1462 49.8713 34.1876C49.8507 34.2162 49.8644 34.2566 49.8958 34.2586C49.9891 34.2674 50.0823 34.2664 50.1765 34.2664C52.0852 34.2674 53.9938 34.2684 55.9015 34.2684C56.0055 34.2684 56.1105 34.2645 56.2145 34.2753C56.5413 34.3068 56.7582 34.5433 56.7542 34.8547C56.7513 35.168 56.5295 35.3985 56.2027 35.4222C56.0987 35.4311 55.9937 35.4261 55.8897 35.4261C51.9478 35.4261 48.0058 35.4261 44.0639 35.4261C43.9599 35.4261 43.8559 35.4281 43.7509 35.4311C43.7096 35.432 43.6822 35.4892 43.7087 35.5207C43.7636 35.5828 43.8205 35.6449 43.8784 35.705C44.2739 36.108 44.6704 36.51 45.0639 36.9149C45.1286 36.9809 45.1954 37.0509 45.2434 37.1297C45.3857 37.3613 45.3416 37.6657 45.1473 37.848C44.949 38.0342 44.6497 38.0588 44.428 37.8992C44.3436 37.8381 44.2719 37.7593 44.1993 37.6854C43.5615 37.0381 42.9246 36.3898 42.2867 35.7404C42.2279 35.6803 42.169 35.6212 42.1111 35.5611C42.0179 35.4665 41.906 35.4212 41.7735 35.4252C41.7215 35.4271 41.6695 35.4252 41.6175 35.4252C40.1995 35.4242 38.7805 35.4242 37.3625 35.4242C37.2997 35.4242 37.2379 35.4242 37.1751 35.4242C37.0544 35.4271 36.9523 35.4724 36.866 35.5552C36.8444 35.5759 36.8218 35.5996 36.7992 35.6212C35.8552 36.5691 34.9132 37.5179 33.9662 38.4628C33.8386 38.5899 33.7699 38.7239 33.7788 38.9062C33.7886 39.1042 33.7817 39.3033 33.7817 39.5023C33.7817 46.5284 33.7817 53.5546 33.7817 60.5807C33.7817 61.0556 33.8445 60.9916 33.3676 60.9965C33.1694 60.9994 32.9711 60.9994 32.7729 60.9955C32.6385 60.9935 32.6188 60.9689 32.6139 60.8241C32.612 60.7511 32.613 60.6782 32.613 60.6043C32.6139 54.6768 32.6159 48.7513 32.6169 42.8247C32.6169 42.2434 32.6139 42.2335 32.2116 41.8305C30.6915 40.3063 29.1715 38.7811 27.6514 37.2568C27.5926 37.1977 27.5337 37.1386 27.4738 37.0795C27.2952 36.9031 27.2933 36.8972 27.0489 37.0016C25.9528 37.4667 24.6408 36.9484 24.1835 35.7769C23.6565 34.427 24.5701 32.9944 25.9233 32.819C27.0872 32.6683 28.1411 33.4664 28.355 34.5926C28.4316 34.9965 28.3796 35.3828 28.2471 35.7641C28.2226 35.8331 28.1921 35.901 28.1656 35.968C28.147 36.0124 28.1598 36.0528 28.1863 36.0853C28.2186 36.1267 28.2579 36.1612 28.2942 36.1976C29.6651 37.5751 31.037 38.9525 32.4098 40.328C32.4579 40.3772 32.4923 40.4502 32.5757 40.4492C32.6336 40.3979 32.61 40.3309 32.61 40.2728C32.613 38.8067 32.609 37.3406 32.6188 35.8744C32.6208 35.6488 32.5168 35.5059 32.3725 35.3611C30.9997 33.9856 29.6288 32.6072 28.2579 31.2308C28.147 31.1194 28.0351 31.0091 27.9262 30.8967C27.8261 30.7933 27.7084 30.7411 27.5631 30.747C27.4385 30.7499 27.3129 30.747 27.1873 30.747C24.9038 30.747 22.6202 30.7489 20.3357 30.7499C20.2415 30.7499 20.1483 30.7499 20.0541 30.7499C19.7793 30.7499 19.5487 30.6544 19.3544 30.4553C18.9609 30.0523 18.5596 29.6543 18.1621 29.2533C18.1111 29.202 18.0503 29.1557 18.0081 29.0986C17.8638 28.8956 17.6931 28.8454 17.4791 28.9902C16.5734 29.2917 15.7569 29.14 15.1014 28.4325C14.4753 27.7566 14.337 26.9487 14.6952 26.1013C15.0484 25.2658 15.7079 24.8224 16.6176 24.7771C17.6636 24.7249 18.5596 25.4579 18.7931 26.4087C18.8971 26.8363 18.8795 27.26 18.7411 27.6778C18.7117 27.7674 18.6754 27.8542 18.6391 27.9409C18.6116 28.0059 18.6204 28.062 18.6695 28.1123C18.7362 28.1783 18.801 28.2463 18.8677 28.3133C19.2288 28.6769 19.5929 29.0365 19.9491 29.404C20.0669 29.5262 20.1944 29.5774 20.3642 29.5764C21.3553 29.5705 22.3455 29.5725 23.3366 29.5715C23.3778 29.5715 23.42 29.5686 23.4612 29.5656C23.5024 29.5617 23.525 29.5065 23.4956 29.473C23.4406 29.4109 23.3837 29.3488 23.3248 29.2897C23.0824 29.0444 22.8381 28.801 22.5957 28.5557C22.473 28.4335 22.3965 28.2916 22.3965 28.1113C22.3975 27.6699 22.845 27.398 23.2385 27.6009C23.3425 27.6551 23.421 27.7389 23.5024 27.8197C23.9745 28.2926 24.4465 28.7675 24.9185 29.2414C24.9626 29.2858 25.0107 29.3272 25.05 29.3754C25.1717 29.5242 25.3238 29.5833 25.5171 29.5755C25.8085 29.5636 26.101 29.5725 26.3934 29.5715C26.8517 29.5715 27.3119 29.5853 27.7692 29.5646C28.1117 29.5498 28.3639 29.6809 28.5984 29.9193C29.8309 31.1687 31.0723 32.4102 32.3117 33.6536C32.3902 33.7324 32.4736 33.8053 32.5727 33.8979C32.6247 33.7827 32.61 33.6891 32.61 33.5984C32.611 32.3629 32.612 31.1273 32.612 29.8917C32.612 29.5567 32.6071 29.2208 32.6149 28.8867C32.6188 28.7064 32.5698 28.5577 32.4353 28.4384C32.3892 28.3961 32.347 28.3488 32.3029 28.3044C30.3854 26.3516 28.4669 24.3958 26.5504 22.4419C26.4631 22.3533 26.3806 22.2577 26.3002 22.1621C26.1667 22.0045 26.1667 21.6793 26.2894 21.5108C26.4307 21.3177 26.623 21.2349 26.8615 21.2645C26.9586 21.2753 27.043 21.3167 27.1147 21.3768C27.1863 21.4379 27.254 21.5039 27.3198 21.5699C28.988 23.2706 30.6552 24.9722 32.3274 26.6708C32.401 26.7457 32.4412 26.8728 32.5757 26.8748C32.6287 26.7772 32.6031 26.6718 32.6031 26.5703C32.6071 25.5446 32.6081 24.5179 32.61 23.4923C32.61 23.4302 32.6071 23.3661 32.61 23.3041C32.6159 23.1967 32.5747 23.1316 32.4687 23.0912C32.1547 22.97 31.874 22.7947 31.6356 22.5503C30.508 21.3877 31.0115 19.4181 32.557 18.9432C32.6944 18.9008 32.8495 18.9165 32.9711 18.822C33.1213 18.8229 33.2665 18.8229 33.4127 18.8229Z" fill="white"/>
<path fill-rule="evenodd" clip-rule="evenodd" d="M23.6379 78.8628C23.5927 78.8106 23.527 78.8234 23.4681 78.8126C23.3229 78.787 23.1776 78.7663 23.0334 78.7328C22.581 78.6283 22.2434 78.3465 21.9471 78.0056C21.8107 77.849 21.69 77.6775 21.5791 77.4992C19.4967 74.1275 17.4154 70.7558 15.332 67.3851C14.756 66.4501 14.179 65.517 13.601 64.5839C13.5647 64.5238 13.5264 64.4647 13.497 64.4017C13.4823 64.3731 13.4823 64.3327 13.5343 64.3278C13.5951 64.3228 13.655 64.3228 13.7158 64.3228C14.8198 64.3228 15.9228 64.3228 17.0258 64.3228C17.0778 64.3228 17.1308 64.3248 17.1818 64.3248C17.2289 64.3258 17.2652 64.3455 17.2907 64.3859C17.329 64.444 17.3673 64.5022 17.4026 64.5613C19.0267 67.2226 20.6517 69.8838 22.2758 72.5451C22.7753 73.3629 23.2748 74.1807 23.7733 74.9995C23.8224 75.0803 23.8753 75.1601 23.9303 75.2468C24.0314 75.2123 24.0539 75.1187 24.0971 75.0507C24.4798 74.426 24.8586 73.8004 25.2394 73.1757C26.5671 70.9953 27.8919 68.8158 29.2186 66.6353C29.6347 65.9525 30.0507 65.2668 30.4668 64.582C30.4894 64.5455 30.5169 64.51 30.5345 64.4706C30.5885 64.3504 30.6807 64.3219 30.8064 64.3228C31.9182 64.3268 33.03 64.3248 34.1418 64.3248C34.1762 64.3248 34.2105 64.3248 34.2459 64.3268C34.3146 64.3307 34.342 64.3711 34.3106 64.4273C34.2822 64.4815 34.2488 64.5327 34.2164 64.583C31.9515 68.2305 29.6877 71.8791 27.4218 75.5266C27.0411 76.1405 26.6603 76.7553 26.2786 77.3681C26.1127 77.6352 25.9361 77.8913 25.7222 78.1258C25.3453 78.5377 24.8812 78.7594 24.3307 78.8116C24.2541 78.8214 24.1727 78.8067 24.1069 78.8638C23.9509 78.8628 23.7939 78.8628 23.6379 78.8628Z" fill="white"/>
<path fill-rule="evenodd" clip-rule="evenodd" d="M2.78987 64.3159C3.75254 64.3169 4.71521 64.3169 5.67788 64.3169C5.75638 64.3169 5.83489 64.3199 5.91143 64.3218C5.94185 64.3228 5.95362 64.3455 5.96834 64.3691C5.85059 64.4706 5.70633 64.4519 5.56993 64.4519C4.83297 64.4529 4.096 64.4519 3.35903 64.4529C2.99497 64.4529 2.97926 64.4686 2.97926 64.8362C2.97828 67.8423 2.97926 70.8474 2.97632 73.8506C2.97632 74.0102 3.0195 74.1866 2.88604 74.3226C2.82422 74.2615 2.86151 74.158 2.78987 74.1009C2.78987 70.8386 2.78987 67.5763 2.78987 64.3159Z" fill="white"/>
<path fill-rule="evenodd" clip-rule="evenodd" d="M40.5665 78.514C38.6814 78.514 36.7973 78.514 34.9122 78.514C34.5579 78.514 34.5952 78.5446 34.5952 78.1879C34.5932 77.5071 34.5942 76.8262 34.5942 76.1464C34.5942 76.104 34.5932 76.0597 34.5942 76.0153C34.5991 75.838 34.5991 75.836 34.766 75.8321C34.8268 75.8301 34.8876 75.8321 34.9485 75.8321C36.2163 75.8321 37.4852 75.8321 38.753 75.8321C40.907 75.8321 43.062 75.8321 45.215 75.8321C45.4927 75.8321 45.7714 75.8331 46.0461 75.7749C46.1737 75.7493 46.2993 75.7148 46.419 75.6656C46.6222 75.5779 46.7625 75.432 46.8351 75.2212C46.893 75.0566 46.9254 74.8862 46.9264 74.7098C46.9264 74.4044 46.9244 74.098 46.9274 73.7925C46.9274 73.6595 46.9028 73.5314 46.8695 73.4053C46.791 73.1087 46.6104 72.8979 46.3229 72.7836C46.0942 72.6919 45.8558 72.6496 45.6114 72.6378C45.4642 72.6299 45.3161 72.6328 45.1689 72.6328C43.0227 72.6328 40.8766 72.6318 38.7324 72.6328C38.2192 72.6328 37.7079 72.6111 37.2006 72.5304C36.8316 72.4702 36.4705 72.3757 36.128 72.221C35.4362 71.9037 34.9936 71.3756 34.7974 70.6386C34.7081 70.3006 34.6531 69.9558 34.6384 69.606C34.6109 68.9705 34.608 68.334 34.6394 67.6975C34.6629 67.2255 34.7444 66.7624 34.8965 66.3141C35.1811 65.4727 35.7355 64.9022 36.5755 64.6204C36.7482 64.5603 36.9248 64.512 37.1025 64.4726C37.5539 64.3701 38.0121 64.3366 38.4724 64.3278C38.8639 64.3199 39.2545 64.3248 39.645 64.3248C42.7548 64.3248 45.8646 64.3248 48.9744 64.3248C49.3237 64.3248 49.2913 64.2834 49.2923 64.651C49.2933 65.3298 49.2923 66.0107 49.2923 66.6905C49.2923 66.726 49.2923 66.7605 49.2923 66.7959C49.2904 67.0157 49.2904 67.0166 49.0813 67.0206C49.0215 67.0206 48.9606 67.0206 48.8998 67.0206C45.6595 67.0206 42.4192 67.0206 39.1799 67.0206C38.9885 67.0206 38.7972 67.0245 38.6068 67.0314C38.4321 67.0393 38.2643 67.0817 38.1005 67.1457C37.8512 67.2452 37.6824 67.4196 37.6 67.6778C37.547 67.8443 37.5107 68.0148 37.5068 68.1911C37.5019 68.47 37.5028 68.7488 37.5038 69.0286C37.5048 69.1784 37.5382 69.3222 37.5823 69.4631C37.6677 69.7311 37.8453 69.9105 38.1083 70.0031C38.3144 70.076 38.5303 70.1046 38.7471 70.1124C38.8688 70.1174 38.9905 70.1164 39.1122 70.1164C41.2063 70.1164 43.2995 70.1164 45.3926 70.1164C45.844 70.1164 46.2964 70.1223 46.7448 70.1785C47.1501 70.2307 47.5515 70.3036 47.9371 70.4405C48.892 70.7824 49.4758 71.4524 49.6849 72.4486C49.7506 72.7639 49.7977 73.0831 49.7997 73.4073C49.8036 74.0004 49.8046 74.5936 49.7987 75.1877C49.7948 75.5631 49.7359 75.9336 49.6466 76.2981C49.4278 77.1987 48.8782 77.8017 48.0264 78.1406C47.6202 78.3012 47.1972 78.3909 46.7654 78.448C46.316 78.5101 45.8656 78.515 45.4132 78.515C43.798 78.516 42.1827 78.514 40.5665 78.514Z" fill="white"/>
<path fill-rule="evenodd" clip-rule="evenodd" d="M21.583 47.5659C21.4809 47.494 21.3965 47.5177 21.3171 47.5147C20.0767 47.4733 18.8353 47.4871 17.5949 47.4842C16.1446 47.4812 14.6952 47.4852 13.2458 47.4871C13.0367 47.4871 12.8277 47.5019 12.6197 47.4911C12.3763 47.4773 12.1859 47.5236 12.1349 47.8004C11.71 48.6468 11.028 49.1069 10.084 49.0882C8.9113 49.0656 8.15765 48.165 7.99966 47.2585C7.78083 46.0043 8.75331 44.683 10.2223 44.7234C11.0093 44.7441 11.6089 45.1264 12.0211 45.8003C12.0594 45.8624 12.1055 45.9254 12.1222 45.9944C12.184 46.2545 12.343 46.3136 12.5991 46.3117C14.7158 46.3008 16.8325 46.3067 18.9501 46.3038C19.061 46.3038 19.1749 46.3245 19.2965 46.2801C19.27 46.1718 19.1876 46.1195 19.1238 46.0565C18.4202 45.3559 17.7147 44.6574 17.0101 43.9578C16.9433 43.8928 16.8737 43.8277 16.8148 43.7548C16.6254 43.5203 16.6391 43.1932 16.8354 42.9804C17.0474 42.7508 17.433 42.7567 17.6293 42.9429C17.7353 43.0444 17.8413 43.1449 17.9453 43.2484C18.8795 44.1765 19.8127 45.1047 20.7459 46.0338C20.7979 46.085 20.849 46.1363 20.902 46.1885C20.9952 46.2801 21.1071 46.3294 21.2395 46.3284C21.3122 46.3284 21.3858 46.3294 21.4584 46.3294C23.7105 46.3294 25.9636 46.3284 28.2157 46.3284C28.569 46.3284 28.5847 46.3639 28.5837 45.9757C28.5817 45.3047 28.5768 44.6357 28.5886 43.9657C28.5925 43.746 28.5189 43.5923 28.3668 43.4415C27.2422 42.3202 26.1196 41.197 25.0058 40.0639C24.8282 39.8826 24.6447 39.8156 24.3974 39.8166C21.1336 39.8225 17.8687 39.8205 14.6049 39.8205C14.5421 39.8205 14.4793 39.8186 14.4165 39.8215C14.2389 39.8284 14.0917 39.7585 13.9631 39.6422C13.916 39.5998 13.8738 39.5535 13.8296 39.5092C13.0328 38.7091 12.235 37.911 11.4382 37.111C11.4009 37.0745 11.3616 37.04 11.3283 36.9997C11.2566 36.9189 11.184 36.906 11.08 36.9553C10.7738 37.0982 10.4529 37.175 10.1114 37.1701C9.05163 37.1563 8.15962 36.3582 7.99181 35.304C7.81518 34.1906 8.60317 32.8407 10.0948 32.8023C11.2458 32.7718 12.0476 33.5718 12.2635 34.4891C12.3626 34.9098 12.3253 35.3207 12.1918 35.7257C12.1693 35.7956 12.1477 35.8675 12.1123 35.9316C12.0574 36.0321 12.0839 36.104 12.1604 36.1799C12.443 36.4587 12.7208 36.7415 13.0014 37.0233C13.4803 37.5051 13.9621 37.984 14.4361 38.4697C14.5705 38.6086 14.7158 38.6668 14.9071 38.6658C16.5027 38.6609 18.0984 38.6618 19.694 38.6599C19.7352 38.6599 19.7774 38.6579 19.8186 38.654C19.8598 38.651 19.8883 38.5929 19.8608 38.5633C19.8127 38.5081 19.7617 38.4559 19.7107 38.4037C19.4604 38.1515 19.2102 37.8982 18.958 37.647C18.8353 37.5248 18.7539 37.3859 18.7539 37.2056C18.7519 36.7612 19.1896 36.4834 19.587 36.6784C19.692 36.7297 19.7715 36.8144 19.852 36.8962C20.3534 37.4007 20.8598 37.8992 21.3524 38.4096C21.5241 38.5889 21.7066 38.6717 21.9579 38.6678C22.8862 38.6549 23.8145 38.6609 24.7418 38.6618C24.8557 38.6618 24.9715 38.6638 25.0843 38.6815C25.2207 38.7032 25.3395 38.7732 25.4405 38.8668C25.5171 38.9367 25.5907 39.0116 25.6643 39.0865C26.889 40.3152 28.1127 41.5438 29.3363 42.7735C29.3805 42.8178 29.4247 42.8622 29.4688 42.9065C29.6415 43.076 29.7318 43.2809 29.7308 43.5243C29.7308 43.5972 29.7318 43.6711 29.7318 43.745C29.7308 49.3789 29.7308 55.0118 29.7289 60.6447C29.7289 61.032 29.7662 60.9935 29.3746 60.9935C29.145 60.9955 28.9163 60.9925 28.6867 60.9896C28.6278 60.9886 28.5886 60.959 28.5856 60.896C28.5827 60.7915 28.5807 60.6861 28.5807 60.5817C28.5807 56.3735 28.5807 52.1633 28.5807 47.9551C28.5807 47.8605 28.5827 47.7669 28.5798 47.6724C28.5749 47.5226 28.5484 47.496 28.3923 47.4881C28.3197 47.4842 28.2461 47.4871 28.1735 47.4871C26.6927 47.4861 25.2119 47.4852 23.7311 47.4852C23.6585 47.4852 23.5859 47.4861 23.5123 47.4861C23.4141 47.4871 23.3288 47.5206 23.2591 47.5886C23.2071 47.6408 23.1551 47.6911 23.103 47.7433C22.2336 48.6182 21.3642 49.4922 20.4947 50.3652C20.4506 50.4105 20.4084 50.4568 20.3622 50.5002C20.2985 50.5593 20.2985 50.6233 20.3328 50.6972C20.4162 50.8785 20.481 51.0657 20.5183 51.2618C20.7538 52.4934 19.8755 53.8107 18.4173 53.8511C17.3938 53.8787 16.5351 53.1949 16.279 52.2441C15.9493 51.0214 16.7088 49.705 18.0993 49.4951C18.4556 49.4419 18.8069 49.4922 19.1454 49.6173C19.2141 49.642 19.2808 49.6705 19.3476 49.7011C19.4025 49.7267 19.4486 49.7119 19.4889 49.6735C19.5193 49.6449 19.5487 49.6154 19.5782 49.5858C20.2052 48.9562 20.8323 48.3276 21.4584 47.698C21.4996 47.6615 21.532 47.6211 21.583 47.5659Z" fill="white"/>
<path fill-rule="evenodd" clip-rule="evenodd" d="M36.6658 52.1456C36.6658 49.3286 36.6658 46.5117 36.6658 43.6947C36.6658 43.6326 36.6668 43.5696 36.6658 43.5075C36.6628 43.2858 36.7443 43.0986 36.8964 42.9419C37.02 42.8148 37.1466 42.6897 37.2722 42.5646C37.913 41.9192 38.5617 41.2817 39.1907 40.6265C39.4409 40.3644 39.7186 40.2531 40.0778 40.2541C42.695 40.2629 45.3131 40.256 47.9303 40.2659C48.1903 40.2669 48.3787 40.2363 48.4307 39.9457C48.7948 39.1338 49.6515 38.5653 50.6691 38.6736C51.5484 38.7663 52.3324 39.4441 52.5307 40.3437C52.8761 41.9133 51.62 43.0385 50.4571 43.0277C49.5848 43.0178 48.9459 42.6266 48.5024 41.8867C48.47 41.8325 48.4425 41.7763 48.417 41.7192C48.2698 41.394 48.3532 41.4364 47.9558 41.4354C45.4534 41.4335 42.9501 41.4335 40.4478 41.4335C40.4065 41.4335 40.3643 41.4364 40.3231 41.4335C40.119 41.4128 39.9679 41.4975 39.8266 41.6423C39.2339 42.2473 38.6363 42.8464 38.0347 43.4415C37.8993 43.5755 37.8277 43.7154 37.8296 43.9105C37.8365 44.6426 37.8326 45.3756 37.8326 46.1087C37.8326 46.1195 37.8326 46.1294 37.8326 46.1392C37.8384 46.2831 37.861 46.3087 37.9915 46.3146C38.0857 46.3185 38.1799 46.3176 38.2741 46.3176C42.5703 46.3176 46.8675 46.3176 51.1637 46.3176C52.04 46.3176 52.9153 46.3176 53.7917 46.3176C53.8751 46.3166 53.9585 46.3176 54.0419 46.3146C54.1096 46.3126 54.1606 46.2841 54.1861 46.2161C54.2175 46.1392 54.246 46.0604 54.2843 45.9855C54.6984 45.1608 55.3696 44.7174 56.2861 44.7234C57.3823 44.7302 58.3302 45.5471 58.4284 46.7363C58.5255 47.9265 57.6727 48.8842 56.6237 49.0567C55.6316 49.2202 54.6797 48.7246 54.2745 47.7935C54.1793 47.5748 54.0713 47.5058 53.8407 47.5068C50.9311 47.5147 48.0215 47.5117 45.1119 47.5147C45.0168 47.5147 44.8774 47.4536 44.8352 47.5679C44.8058 47.6457 44.9294 47.7147 44.9912 47.7817C45.5624 48.3926 46.1541 48.9838 46.7517 49.568C46.7968 49.6124 46.842 49.6557 46.8901 49.6971C46.9323 49.7336 46.9804 49.7434 47.0343 49.7178C47.0912 49.6932 47.1482 49.6666 47.207 49.6429C48.3768 49.1611 49.8703 49.7779 50.1598 51.2578C50.4287 52.6333 49.3826 53.7693 48.1942 53.8432C46.998 53.9191 46.107 53.1161 45.8989 52.1278C45.8175 51.7406 45.842 51.3573 45.9618 50.981C45.9902 50.8903 46.0187 50.7997 46.0618 50.7169C46.1168 50.6125 46.0834 50.5395 46.0059 50.4696C45.9598 50.4272 45.9176 50.3799 45.8734 50.3356C45.0118 49.4685 44.1483 48.6015 43.2857 47.7354C43.2416 47.6901 43.1974 47.6467 43.1523 47.6024C43.0738 47.5285 42.9805 47.4861 42.8706 47.4861C42.8088 47.4871 42.746 47.4851 42.6832 47.4851C41.1916 47.4861 39.701 47.4861 38.2094 47.4881C37.812 47.4881 37.8335 47.4566 37.8335 47.8576C37.8335 52.0874 37.8335 56.3183 37.8326 60.5491C37.8326 61.0635 37.8993 60.9896 37.3831 60.9945C37.1849 60.9975 36.9867 60.9945 36.7884 60.9925C36.7158 60.9915 36.6717 60.9571 36.6707 60.8792C36.6697 60.7846 36.6687 60.691 36.6687 60.5974C36.6668 57.7795 36.6668 54.9625 36.6658 52.1456Z" fill="white"/>
<path fill-rule="evenodd" clip-rule="evenodd" d="M2.88506 74.3216C2.88898 74.2605 2.89683 74.2014 2.89683 74.1393C2.89585 70.9844 2.89487 67.8315 2.89389 64.6756C2.89389 64.6155 2.89291 64.5544 2.89487 64.4933C2.90076 64.3967 2.92431 64.3761 3.02539 64.3701C3.09408 64.3662 3.16473 64.3682 3.23343 64.3682C4.14507 64.3682 5.05572 64.3682 5.96736 64.3682C5.97129 64.4716 5.98012 64.5761 5.98012 64.6805C5.98012 67.5832 5.98012 70.4888 5.98012 73.3935C5.98012 73.7423 5.99975 74.0911 6.06648 74.4329C6.19307 75.0793 6.57676 75.4852 7.20186 75.6656C7.57279 75.7729 7.95452 75.7966 8.33527 75.8133C8.50013 75.8202 8.66597 75.8163 8.83083 75.8163C11.4107 75.8163 13.9906 75.8143 16.5704 75.8163C16.9522 75.8163 16.9031 75.7749 16.9051 76.1483C16.907 76.8361 16.9051 77.5258 16.9051 78.2165C16.9051 78.2845 16.9041 78.3554 16.9021 78.4254C16.9012 78.4776 16.8698 78.5062 16.8217 78.5091C16.7618 78.516 16.7 78.514 16.6391 78.514C13.8159 78.514 10.9936 78.514 8.16943 78.514C7.67485 78.514 7.17928 78.5012 6.68765 78.4421C6.10867 78.3712 5.53951 78.2648 4.9939 78.046C4.0332 77.6578 3.41104 76.9691 3.12646 75.973C2.97534 75.434 2.888 74.8822 2.88506 74.3216Z" fill="white"/>
<path d="M68.4466 78.4441C68.4387 78.4391 68.4338 78.4332 68.426 78.4303C65.801 76.907 63.1769 75.3847 60.5539 73.8624C60.5313 73.8477 60.5087 73.8378 60.4852 73.824C60.4705 73.8151 60.4577 73.8033 60.443 73.7935C60.4361 73.7895 60.4273 73.7846 60.4224 73.7767C60.4185 73.7708 60.4204 73.761 60.4145 73.7166C60.5225 73.7166 60.6177 73.7186 60.7119 73.7166C61.6677 73.7087 62.6225 73.7334 63.5773 73.6959C64.1602 73.6713 64.7392 73.621 65.3123 73.5196C65.7754 73.4388 66.2249 73.3067 66.6488 73.0959C67.3691 72.7392 67.8656 72.1815 68.1306 71.4209C68.2484 71.08 68.3229 70.7312 68.3514 70.3735C68.424 69.4858 68.422 68.596 68.3494 67.7083C68.3161 67.3093 68.2327 66.9151 68.0982 66.5378C67.8441 65.8215 67.3848 65.2894 66.7087 64.9445C66.4359 64.8076 66.1503 64.7041 65.8569 64.6243C65.3083 64.4785 64.748 64.4145 64.1847 64.3741C63.6215 64.3346 63.0572 64.3218 62.492 64.3218C59.026 64.3258 55.561 64.3238 52.095 64.3238C51.7172 64.3258 51.7476 64.2736 51.7476 64.6746C51.7476 69.1655 51.7476 73.6565 51.7476 78.1485C51.7476 78.2096 51.7476 78.2716 51.7476 78.3337C51.7525 78.5002 51.7613 78.5111 51.9242 78.514C51.9851 78.517 52.0469 78.514 52.1077 78.514C52.8898 78.514 53.6709 78.517 54.4521 78.512C54.5875 78.512 54.7288 78.5485 54.8583 78.4756C54.8996 78.3475 54.878 78.2165 54.878 78.0864C54.8799 76.6646 54.8789 75.2438 54.8799 73.822C54.8799 73.6851 54.8721 73.5462 54.9015 73.4141C54.9741 73.4023 55.0124 73.4427 55.0556 73.4693C55.2254 73.5738 55.3941 73.6811 55.5649 73.7876C58.0201 75.3197 60.4764 76.8508 62.9306 78.3869C63.0759 78.4785 63.223 78.5189 63.3958 78.517C64.9933 78.512 66.5919 78.514 68.1905 78.514C68.2591 78.514 68.3298 78.514 68.3985 78.512C68.4338 78.512 68.4672 78.5091 68.4662 78.4598C68.4603 78.4539 68.4525 78.449 68.4466 78.4441ZM55.1655 71.3204C54.8799 71.3194 54.8789 71.3539 54.8789 71.0386C54.8799 69.7833 54.8789 68.529 54.8789 67.2738C54.8789 67.2383 54.878 67.2038 54.8799 67.1684C54.8848 67.0058 54.8937 66.9959 55.0605 66.993C55.1047 66.991 55.1478 66.993 55.191 66.993C57.6757 66.993 60.1584 66.993 62.6421 66.993C63.12 66.993 63.5969 67.0137 64.0699 67.0846C64.2161 67.1053 64.3574 67.1467 64.4958 67.2009C64.8059 67.324 65.0159 67.5438 65.1209 67.861C65.1818 68.0433 65.223 68.2305 65.2289 68.4226C65.2446 68.9104 65.2455 69.3981 65.2289 69.8868C65.223 70.072 65.1837 70.2494 65.1288 70.4257C65.0287 70.7568 64.8108 70.9795 64.4948 71.1085C64.2593 71.2051 64.011 71.2494 63.7598 71.2701C63.3614 71.3046 62.962 71.3233 62.5626 71.3224C61.4243 71.3174 60.2879 71.3204 59.1496 71.3204C57.8219 71.3204 56.4932 71.3224 55.1655 71.3204Z" fill="white"/>
<path d="M110.931 56.7975C105.688 56.7975 101.792 55.4408 99.2436 52.7275C96.7136 50.0142 95.4486 46.1367 95.4486 41.095V35.54C95.4486 30.59 96.7228 26.7767 99.2711 24.1C101.838 21.405 105.688 20.0575 110.821 20.0575C112.141 20.0575 113.351 20.1492 114.451 20.3325C115.569 20.5158 116.587 20.7725 117.504 21.1025C118.42 21.4142 119.236 21.7808 119.951 22.2025L120.666 30.59C119.603 30.0767 118.448 29.6367 117.201 29.27C115.973 28.885 114.561 28.6925 112.966 28.6925C110.418 28.6925 108.557 29.3342 107.384 30.6175C106.21 31.9008 105.624 33.6883 105.624 35.98V40.6825C105.624 42.9558 106.219 44.7433 107.411 46.045C108.603 47.3283 110.583 47.97 113.351 47.97C114.891 47.97 116.275 47.7775 117.504 47.3925C118.732 46.9892 119.878 46.5125 120.941 45.9625L120.226 54.515C119.529 54.9367 118.704 55.3217 117.751 55.67C116.816 56.0183 115.78 56.2933 114.644 56.495C113.507 56.6967 112.269 56.7975 110.931 56.7975ZM138.657 56.715C133.468 56.715 129.655 55.5875 127.217 53.3325C124.797 51.0775 123.587 47.7775 123.587 43.4325V41.315C123.587 37.0067 124.723 33.725 126.997 31.47C129.288 29.215 132.625 28.0875 137.007 28.0875C139.922 28.0875 142.351 28.5733 144.294 29.545C146.238 30.4983 147.695 31.8825 148.667 33.6975C149.657 35.4942 150.152 37.6667 150.152 40.215V41.0675C150.152 41.8008 150.115 42.5525 150.042 43.3225C149.987 44.0742 149.895 44.7708 149.767 45.4125H141.049C141.123 44.2942 141.168 43.24 141.187 42.25C141.223 41.26 141.242 40.3708 141.242 39.5825C141.242 38.6292 141.095 37.8317 140.802 37.19C140.508 36.53 140.05 36.035 139.427 35.705C138.803 35.3567 137.997 35.1825 137.007 35.1825C135.522 35.1825 134.44 35.5675 133.762 36.3375C133.102 37.1075 132.772 38.1983 132.772 39.61V42.0575L132.827 43.1025V44.8075C132.827 45.3758 132.928 45.9258 133.129 46.4575C133.331 46.9892 133.698 47.4658 134.229 47.8875C134.779 48.2908 135.549 48.6117 136.539 48.85C137.548 49.0883 138.849 49.2075 140.444 49.2075C142.076 49.2075 143.671 49.0792 145.229 48.8225C146.788 48.5475 148.291 48.1717 149.739 47.695L148.969 54.7625C147.704 55.3858 146.192 55.8625 144.432 56.1925C142.69 56.5408 140.765 56.715 138.657 56.715ZM147.814 45.4125H128.729V39.6925H147.814V45.4125ZM181.146 56H171.411V40.435C171.411 39.5733 171.301 38.8308 171.081 38.2075C170.88 37.5842 170.522 37.1075 170.009 36.7775C169.496 36.4475 168.799 36.2825 167.919 36.2825C167.241 36.2825 166.636 36.4017 166.104 36.64C165.572 36.8783 165.114 37.1992 164.729 37.6025C164.362 37.9875 164.069 38.4275 163.849 38.9225L162.364 34.9075H163.931C164.206 33.6425 164.665 32.515 165.306 31.525C165.966 30.5167 166.874 29.7192 168.029 29.1325C169.202 28.5458 170.696 28.2525 172.511 28.2525C174.491 28.2525 176.114 28.6375 177.379 29.4075C178.662 30.1775 179.606 31.3417 180.211 32.9C180.835 34.44 181.146 36.3925 181.146 38.7575V56ZM163.959 56H154.224V28.9125H163.904L163.601 35.87L163.959 36.86V56ZM197.132 56.6325C194.62 56.6325 192.622 56.2567 191.137 55.505C189.67 54.735 188.616 53.5983 187.975 52.095C187.351 50.5917 187.04 48.74 187.04 46.54V32.02H196.692V44.89C196.692 46.0633 196.958 46.925 197.49 47.475C198.021 48.0067 199.066 48.2725 200.625 48.2725C201.468 48.2725 202.302 48.1808 203.127 47.9975C203.97 47.7958 204.731 47.5667 205.41 47.31L204.585 55.285C203.631 55.6883 202.531 56.0092 201.285 56.2475C200.038 56.5042 198.654 56.6325 197.132 56.6325ZM204.31 36.53H183.657V28.9125H205.135L204.31 36.53ZM196.417 29.5725H187.177L187.15 22.78L196.747 21.9275L196.417 29.5725ZM218.069 41.2875L215.264 35.7875H217.547C217.914 33.4958 218.72 31.7083 219.967 30.425C221.214 29.1233 223.001 28.4725 225.329 28.4725C225.678 28.4725 225.999 28.4908 226.292 28.5275C226.604 28.5642 226.906 28.61 227.199 28.665L227.667 38.565C227.3 38.4917 226.86 38.4367 226.347 38.4C225.852 38.3633 225.366 38.345 224.889 38.345C223.166 38.345 221.736 38.6108 220.599 39.1425C219.463 39.6558 218.619 40.3708 218.069 41.2875ZM218.207 56H208.472V28.9125H217.547L217.162 37.8775H218.207V56ZM255.059 56H245.516L245.791 49.07L245.599 48.8225V40.4075L245.516 39.4175C245.516 38.1525 245.104 37.2267 244.279 36.64C243.472 36.035 242.088 35.7325 240.126 35.7325C238.348 35.7325 236.634 35.9433 234.984 36.365C233.352 36.7867 231.784 37.2725 230.281 37.8225L231.079 30.425C231.995 30.0217 233.013 29.655 234.131 29.325C235.249 28.9767 236.469 28.7017 237.789 28.5C239.109 28.2983 240.511 28.1975 241.996 28.1975C244.508 28.1975 246.598 28.4908 248.266 29.0775C249.953 29.6458 251.291 30.4617 252.281 31.525C253.271 32.57 253.977 33.8167 254.399 35.265C254.839 36.7133 255.059 38.3083 255.059 40.05V56ZM237.129 56.66C234.415 56.66 232.362 55.9725 230.969 54.5975C229.594 53.2042 228.906 51.2333 228.906 48.685V47.9975C228.906 45.2842 229.731 43.2858 231.381 42.0025C233.049 40.7192 235.708 39.8483 239.356 39.39L246.259 38.51L246.836 44.065L240.979 44.9175C239.915 45.0642 239.173 45.3208 238.751 45.6875C238.348 46.0358 238.146 46.5583 238.146 47.255V47.365C238.146 48.0067 238.357 48.5292 238.779 48.9325C239.219 49.3358 239.943 49.5375 240.951 49.5375C241.794 49.5375 242.519 49.4275 243.124 49.2075C243.747 48.9692 244.26 48.6575 244.664 48.2725C245.085 47.8875 245.415 47.4658 245.654 47.0075L247.029 50.3075H245.461C245.186 51.5358 244.746 52.6267 244.141 53.58C243.554 54.5333 242.702 55.285 241.584 55.835C240.465 56.385 238.98 56.66 237.129 56.66ZM269.501 56H259.766V19.7275H269.501V56ZM284.271 56H274.536V28.9125H284.271V56ZM279.404 26.96C277.626 26.96 276.333 26.5658 275.526 25.7775C274.72 24.9708 274.316 23.8892 274.316 22.5325V22.3125C274.316 20.9558 274.72 19.8833 275.526 19.095C276.333 18.2883 277.626 17.885 279.404 17.885C281.164 17.885 282.447 18.2883 283.254 19.095C284.079 19.8833 284.491 20.9558 284.491 22.3125V22.5325C284.491 23.9075 284.079 24.9892 283.254 25.7775C282.447 26.5658 281.164 26.96 279.404 26.96ZM300.142 48.025H311.664V56H288.454V48.7675L299.757 36.86H288.564V28.9125H311.499V36.1175L300.142 48.025ZM329.384 56.715C324.196 56.715 320.383 55.5875 317.944 53.3325C315.524 51.0775 314.314 47.7775 314.314 43.4325V41.315C314.314 37.0067 315.451 33.725 317.724 31.47C320.016 29.215 323.353 28.0875 327.734 28.0875C330.649 28.0875 333.078 28.5733 335.022 29.545C336.965 30.4983 338.423 31.8825 339.394 33.6975C340.384 35.4942 340.879 37.6667 340.879 40.215V41.0675C340.879 41.8008 340.843 42.5525 340.769 43.3225C340.714 44.0742 340.623 44.7708 340.494 45.4125H331.777C331.85 44.2942 331.896 43.24 331.914 42.25C331.951 41.26 331.969 40.3708 331.969 39.5825C331.969 38.6292 331.823 37.8317 331.529 37.19C331.236 36.53 330.778 36.035 330.154 35.705C329.531 35.3567 328.724 35.1825 327.734 35.1825C326.249 35.1825 325.168 35.5675 324.489 36.3375C323.829 37.1075 323.499 38.1983 323.499 39.61V42.0575L323.554 43.1025V44.8075C323.554 45.3758 323.655 45.9258 323.857 46.4575C324.058 46.9892 324.425 47.4658 324.957 47.8875C325.507 48.2908 326.277 48.6117 327.267 48.85C328.275 49.0883 329.577 49.2075 331.172 49.2075C332.803 49.2075 334.398 49.0792 335.957 48.8225C337.515 48.5475 339.018 48.1717 340.467 47.695L339.697 54.7625C338.432 55.3858 336.919 55.8625 335.159 56.1925C333.418 56.5408 331.493 56.715 329.384 56.715ZM338.542 45.4125H319.457V39.6925H338.542V45.4125Z" fill="white"/>
<path d="M100.798 80.49H101.728L100.878 80.86L103.798 72.24H105.468L100.878 85.44H99.2376L100.778 80.98L101.488 81.6H99.6476L96.4576 72.24H98.1376L100.798 80.49ZM110.768 82.25C109.368 82.25 108.305 81.8733 107.578 81.12C106.858 80.36 106.498 79.27 106.498 77.85V76.36C106.498 74.9467 106.862 73.8633 107.588 73.11C108.315 72.3567 109.375 71.98 110.768 71.98C112.168 71.98 113.228 72.3567 113.948 73.11C114.675 73.8633 115.038 74.9467 115.038 76.36V77.85C115.038 79.27 114.675 80.36 113.948 81.12C113.228 81.8733 112.168 82.25 110.768 82.25ZM110.768 80.93C111.635 80.93 112.292 80.6733 112.738 80.16C113.192 79.6467 113.418 78.9067 113.418 77.94V76.27C113.418 75.31 113.192 74.5767 112.738 74.07C112.292 73.5567 111.635 73.3 110.768 73.3C109.908 73.3 109.252 73.5567 108.798 74.07C108.345 74.5767 108.118 75.31 108.118 76.27V77.94C108.118 78.9067 108.345 79.6467 108.798 80.16C109.252 80.6733 109.908 80.93 110.768 80.93ZM117.159 72.24H118.769V78.31C118.769 78.8233 118.839 79.2733 118.979 79.66C119.126 80.04 119.362 80.3367 119.689 80.55C120.016 80.7567 120.456 80.86 121.009 80.86C121.529 80.86 121.976 80.7667 122.349 80.58C122.722 80.3867 123.026 80.1233 123.259 79.79C123.499 79.4567 123.662 79.08 123.749 78.66L124.039 79.81H123.689C123.589 80.25 123.406 80.6533 123.139 81.02C122.872 81.38 122.512 81.67 122.059 81.89C121.612 82.1033 121.059 82.21 120.399 82.21C119.632 82.21 119.009 82.0667 118.529 81.78C118.056 81.4867 117.709 81.0633 117.489 80.51C117.269 79.95 117.159 79.2767 117.159 78.49V72.24ZM123.679 72.24H125.299V82H123.679L123.749 79.66L123.679 79.56V72.24ZM129.483 76.03L129.113 74.78L129.513 74.76C129.726 73.9333 130.093 73.2833 130.613 72.81C131.133 72.33 131.823 72.09 132.683 72.09C132.896 72.09 133.086 72.1067 133.253 72.14C133.426 72.1733 133.58 72.2133 133.713 72.26L133.813 73.83C133.646 73.7767 133.46 73.7333 133.253 73.7C133.053 73.6667 132.83 73.65 132.583 73.65C131.85 73.65 131.21 73.8533 130.663 74.26C130.123 74.6667 129.73 75.2567 129.483 76.03ZM129.563 82H127.943V72.24H129.523L129.443 75.12L129.563 75.24V82ZM144.089 82.25C142.689 82.25 141.625 81.8733 140.899 81.12C140.179 80.36 139.819 79.27 139.819 77.85V76.36C139.819 74.9467 140.182 73.8633 140.909 73.11C141.635 72.3567 142.695 71.98 144.089 71.98C145.489 71.98 146.549 72.3567 147.269 73.11C147.995 73.8633 148.359 74.9467 148.359 76.36V77.85C148.359 79.27 147.995 80.36 147.269 81.12C146.549 81.8733 145.489 82.25 144.089 82.25ZM144.089 80.93C144.955 80.93 145.612 80.6733 146.059 80.16C146.512 79.6467 146.739 78.9067 146.739 77.94V76.27C146.739 75.31 146.512 74.5767 146.059 74.07C145.612 73.5567 144.955 73.3 144.089 73.3C143.229 73.3 142.572 73.5567 142.119 74.07C141.665 74.5767 141.439 75.31 141.439 76.27V77.94C141.439 78.9067 141.665 79.6467 142.119 80.16C142.572 80.6733 143.229 80.93 144.089 80.93ZM158.749 82H157.129V75.93C157.129 75.4033 157.056 74.95 156.909 74.57C156.769 74.19 156.536 73.8967 156.209 73.69C155.889 73.4767 155.449 73.37 154.889 73.37C154.376 73.37 153.929 73.4667 153.549 73.66C153.176 73.8533 152.873 74.1167 152.639 74.45C152.406 74.7767 152.243 75.15 152.149 75.57L151.859 74.42H152.209C152.316 73.98 152.503 73.58 152.769 73.22C153.036 72.8533 153.393 72.5633 153.839 72.35C154.293 72.13 154.846 72.02 155.499 72.02C156.273 72.02 156.896 72.1667 157.369 72.46C157.849 72.7533 158.199 73.1767 158.419 73.73C158.639 74.2767 158.749 74.95 158.749 75.75V82ZM152.219 82H150.599V72.24H152.219L152.149 74.58L152.219 74.67V82ZM162.923 82H161.313V68.75H162.923V82ZM167.288 82H165.668V72.24H167.288V82ZM166.478 70.64C166.145 70.64 165.895 70.5533 165.728 70.38C165.568 70.2 165.488 69.9567 165.488 69.65V69.6C165.488 69.2867 165.568 69.0433 165.728 68.87C165.895 68.6967 166.145 68.61 166.478 68.61C166.812 68.61 167.062 68.6967 167.228 68.87C167.395 69.0433 167.478 69.2867 167.478 69.6V69.65C167.478 69.9633 167.395 70.2067 167.228 70.38C167.062 70.5533 166.812 70.64 166.478 70.64ZM178.124 82H176.504V75.93C176.504 75.4033 176.431 74.95 176.284 74.57C176.144 74.19 175.911 73.8967 175.584 73.69C175.264 73.4767 174.824 73.37 174.264 73.37C173.751 73.37 173.304 73.4667 172.924 73.66C172.551 73.8533 172.248 74.1167 172.014 74.45C171.781 74.7767 171.618 75.15 171.524 75.57L171.234 74.42H171.584C171.691 73.98 171.878 73.58 172.144 73.22C172.411 72.8533 172.768 72.5633 173.214 72.35C173.668 72.13 174.221 72.02 174.874 72.02C175.648 72.02 176.271 72.1667 176.744 72.46C177.224 72.7533 177.574 73.1767 177.794 73.73C178.014 74.2767 178.124 74.95 178.124 75.75V82ZM171.594 82H169.974V72.24H171.594L171.524 74.58L171.594 74.67V82ZM184.738 82.22C183.252 82.22 182.132 81.8567 181.378 81.13C180.625 80.4033 180.248 79.3633 180.248 78.01V76.27C180.248 74.8967 180.598 73.84 181.298 73.1C181.998 72.3533 183.022 71.98 184.368 71.98C185.275 71.98 186.032 72.15 186.638 72.49C187.245 72.8233 187.702 73.3 188.008 73.92C188.315 74.54 188.468 75.28 188.468 76.14V76.5C188.468 76.7133 188.458 76.9267 188.438 77.14C188.425 77.3533 188.405 77.5633 188.378 77.77H186.888C186.902 77.45 186.908 77.1467 186.908 76.86C186.915 76.5733 186.918 76.31 186.918 76.07C186.918 75.4767 186.822 74.9767 186.628 74.57C186.442 74.1567 186.158 73.8433 185.778 73.63C185.405 73.41 184.935 73.3 184.368 73.3C183.528 73.3 182.898 73.5433 182.478 74.03C182.058 74.5167 181.848 75.2133 181.848 76.12V77.05L181.858 77.25V78.18C181.858 78.5867 181.918 78.9533 182.038 79.28C182.158 79.6067 182.345 79.89 182.598 80.13C182.858 80.3633 183.185 80.5433 183.578 80.67C183.978 80.79 184.452 80.85 184.998 80.85C185.632 80.85 186.222 80.7667 186.768 80.6C187.315 80.4333 187.828 80.2067 188.308 79.92L188.158 81.32C187.725 81.5933 187.222 81.8133 186.648 81.98C186.075 82.14 185.438 82.22 184.738 82.22ZM188.038 77.77H181.098V76.55H188.038V77.77ZM200.234 82.21C199.634 82.21 199.114 82.11 198.674 81.91C198.234 81.71 197.877 81.4233 197.604 81.05C197.33 80.6767 197.147 80.2433 197.054 79.75H196.524L196.994 78.23C197.02 78.8167 197.15 79.3067 197.384 79.7C197.624 80.0867 197.947 80.3767 198.354 80.57C198.76 80.7633 199.22 80.86 199.734 80.86C200.554 80.86 201.18 80.62 201.614 80.14C202.054 79.66 202.274 78.9567 202.274 78.03V76.16C202.274 75.24 202.057 74.54 201.624 74.06C201.19 73.58 200.56 73.34 199.734 73.34C199.24 73.34 198.804 73.4367 198.424 73.63C198.044 73.8233 197.727 74.0867 197.474 74.42C197.227 74.7533 197.057 75.1333 196.964 75.56L196.564 74.43H197.034C197.14 73.9833 197.32 73.58 197.574 73.22C197.834 72.8533 198.187 72.5633 198.634 72.35C199.087 72.13 199.644 72.02 200.304 72.02C201.477 72.02 202.37 72.3867 202.984 73.12C203.597 73.8467 203.904 74.9033 203.904 76.29V77.91C203.904 79.31 203.594 80.3767 202.974 81.11C202.36 81.8433 201.447 82.21 200.234 82.21ZM197.034 85.44H195.424V72.24H197.044L196.974 74.59L196.994 75.09V79.2L196.984 79.53L197.034 82.27V85.44ZM207.706 76.03L207.336 74.78L207.736 74.76C207.949 73.9333 208.316 73.2833 208.836 72.81C209.356 72.33 210.046 72.09 210.906 72.09C211.119 72.09 211.309 72.1067 211.476 72.14C211.649 72.1733 211.802 72.2133 211.936 72.26L212.036 73.83C211.869 73.7767 211.682 73.7333 211.476 73.7C211.276 73.6667 211.052 73.65 210.806 73.65C210.072 73.65 209.432 73.8533 208.886 74.26C208.346 74.6667 207.952 75.2567 207.706 76.03ZM207.786 82H206.166V72.24H207.746L207.666 75.12L207.786 75.24V82ZM217.453 82.22C215.967 82.22 214.847 81.8567 214.093 81.13C213.34 80.4033 212.963 79.3633 212.963 78.01V76.27C212.963 74.8967 213.313 73.84 214.013 73.1C214.713 72.3533 215.737 71.98 217.083 71.98C217.99 71.98 218.747 72.15 219.353 72.49C219.96 72.8233 220.417 73.3 220.723 73.92C221.03 74.54 221.183 75.28 221.183 76.14V76.5C221.183 76.7133 221.173 76.9267 221.153 77.14C221.14 77.3533 221.12 77.5633 221.093 77.77H219.603C219.617 77.45 219.623 77.1467 219.623 76.86C219.63 76.5733 219.633 76.31 219.633 76.07C219.633 75.4767 219.537 74.9767 219.343 74.57C219.157 74.1567 218.873 73.8433 218.493 73.63C218.12 73.41 217.65 73.3 217.083 73.3C216.243 73.3 215.613 73.5433 215.193 74.03C214.773 74.5167 214.563 75.2133 214.563 76.12V77.05L214.573 77.25V78.18C214.573 78.5867 214.633 78.9533 214.753 79.28C214.873 79.6067 215.06 79.89 215.313 80.13C215.573 80.3633 215.9 80.5433 216.293 80.67C216.693 80.79 217.167 80.85 217.713 80.85C218.347 80.85 218.937 80.7667 219.483 80.6C220.03 80.4333 220.543 80.2067 221.023 79.92L220.873 81.32C220.44 81.5933 219.937 81.8133 219.363 81.98C218.79 82.14 218.153 82.22 217.453 82.22ZM220.753 77.77H213.813V76.55H220.753V77.77ZM226.423 82.22C225.636 82.22 224.949 82.1367 224.363 81.97C223.776 81.7967 223.289 81.61 222.903 81.41L222.753 79.91C223.239 80.1633 223.773 80.3833 224.353 80.57C224.939 80.7567 225.603 80.85 226.343 80.85C227.096 80.85 227.663 80.73 228.043 80.49C228.423 80.25 228.613 79.8933 228.613 79.42V79.31C228.613 79.0033 228.539 78.75 228.393 78.55C228.253 78.35 227.996 78.1733 227.623 78.02C227.249 77.8667 226.719 77.7133 226.033 77.56C225.213 77.38 224.566 77.17 224.093 76.93C223.619 76.6833 223.279 76.38 223.073 76.02C222.873 75.66 222.773 75.22 222.773 74.7V74.61C222.773 73.7567 223.069 73.11 223.663 72.67C224.256 72.23 225.149 72.01 226.343 72.01C227.109 72.01 227.773 72.0967 228.333 72.27C228.899 72.4433 229.363 72.6367 229.723 72.85L229.873 74.22C229.439 73.9667 228.943 73.7567 228.383 73.59C227.823 73.4233 227.193 73.34 226.493 73.34C225.986 73.34 225.576 73.3933 225.263 73.5C224.949 73.6 224.723 73.7467 224.583 73.94C224.443 74.1267 224.373 74.3533 224.373 74.62V74.7C224.373 74.9933 224.443 75.2433 224.583 75.45C224.723 75.65 224.973 75.8267 225.333 75.98C225.699 76.1267 226.206 76.27 226.853 76.41C227.686 76.5767 228.346 76.7767 228.833 77.01C229.326 77.2433 229.679 77.54 229.893 77.9C230.106 78.2533 230.213 78.71 230.213 79.27V79.44C230.213 80.36 229.893 81.0533 229.253 81.52C228.613 81.9867 227.669 82.22 226.423 82.22ZM236.281 82.22C234.795 82.22 233.675 81.8567 232.921 81.13C232.168 80.4033 231.791 79.3633 231.791 78.01V76.27C231.791 74.8967 232.141 73.84 232.841 73.1C233.541 72.3533 234.565 71.98 235.911 71.98C236.818 71.98 237.575 72.15 238.181 72.49C238.788 72.8233 239.245 73.3 239.551 73.92C239.858 74.54 240.011 75.28 240.011 76.14V76.5C240.011 76.7133 240.001 76.9267 239.981 77.14C239.968 77.3533 239.948 77.5633 239.921 77.77H238.431C238.445 77.45 238.451 77.1467 238.451 76.86C238.458 76.5733 238.461 76.31 238.461 76.07C238.461 75.4767 238.365 74.9767 238.171 74.57C237.985 74.1567 237.701 73.8433 237.321 73.63C236.948 73.41 236.478 73.3 235.911 73.3C235.071 73.3 234.441 73.5433 234.021 74.03C233.601 74.5167 233.391 75.2133 233.391 76.12V77.05L233.401 77.25V78.18C233.401 78.5867 233.461 78.9533 233.581 79.28C233.701 79.6067 233.888 79.89 234.141 80.13C234.401 80.3633 234.728 80.5433 235.121 80.67C235.521 80.79 235.995 80.85 236.541 80.85C237.175 80.85 237.765 80.7667 238.311 80.6C238.858 80.4333 239.371 80.2067 239.851 79.92L239.701 81.32C239.268 81.5933 238.765 81.8133 238.191 81.98C237.618 82.14 236.981 82.22 236.281 82.22ZM239.581 77.77H232.641V76.55H239.581V77.77ZM250.312 82H248.692V75.93C248.692 75.4033 248.618 74.95 248.472 74.57C248.332 74.19 248.098 73.8967 247.772 73.69C247.452 73.4767 247.012 73.37 246.452 73.37C245.938 73.37 245.492 73.4667 245.112 73.66C244.738 73.8533 244.435 74.1167 244.202 74.45C243.968 74.7767 243.805 75.15 243.712 75.57L243.422 74.42H243.772C243.878 73.98 244.065 73.58 244.332 73.22C244.598 72.8533 244.955 72.5633 245.402 72.35C245.855 72.13 246.408 72.02 247.062 72.02C247.835 72.02 248.458 72.1667 248.932 72.46C249.412 72.7533 249.762 73.1767 249.982 73.73C250.202 74.2767 250.312 74.95 250.312 75.75V82ZM243.782 82H242.162V72.24H243.782L243.712 74.58L243.782 74.67V82ZM256.586 82.22C255.186 82.22 254.143 81.8433 253.456 81.09C252.776 80.33 252.436 79.2567 252.436 77.87V76.35C252.436 74.9567 252.779 73.8867 253.466 73.14C254.153 72.3867 255.193 72.01 256.586 72.01C256.999 72.01 257.376 72.05 257.716 72.13C258.056 72.2033 258.359 72.3033 258.626 72.43C258.899 72.55 259.129 72.6767 259.316 72.81L259.456 74.22C259.143 73.98 258.769 73.7767 258.336 73.61C257.909 73.4433 257.406 73.36 256.826 73.36C255.893 73.36 255.196 73.62 254.736 74.14C254.283 74.6533 254.056 75.4033 254.056 76.39V77.83C254.056 78.7967 254.283 79.54 254.736 80.06C255.196 80.58 255.893 80.84 256.826 80.84C257.426 80.84 257.943 80.7567 258.376 80.59C258.816 80.4233 259.206 80.22 259.546 79.98L259.396 81.41C259.103 81.61 258.719 81.7967 258.246 81.97C257.773 82.1367 257.219 82.22 256.586 82.22ZM265.422 82.22C263.935 82.22 262.815 81.8567 262.062 81.13C261.309 80.4033 260.932 79.3633 260.932 78.01V76.27C260.932 74.8967 261.282 73.84 261.982 73.1C262.682 72.3533 263.705 71.98 265.052 71.98C265.959 71.98 266.715 72.15 267.322 72.49C267.929 72.8233 268.385 73.3 268.692 73.92C268.999 74.54 269.152 75.28 269.152 76.14V76.5C269.152 76.7133 269.142 76.9267 269.122 77.14C269.109 77.3533 269.089 77.5633 269.062 77.77H267.572C267.585 77.45 267.592 77.1467 267.592 76.86C267.599 76.5733 267.602 76.31 267.602 76.07C267.602 75.4767 267.505 74.9767 267.312 74.57C267.125 74.1567 266.842 73.8433 266.462 73.63C266.089 73.41 265.619 73.3 265.052 73.3C264.212 73.3 263.582 73.5433 263.162 74.03C262.742 74.5167 262.532 75.2133 262.532 76.12V77.05L262.542 77.25V78.18C262.542 78.5867 262.602 78.9533 262.722 79.28C262.842 79.6067 263.029 79.89 263.282 80.13C263.542 80.3633 263.869 80.5433 264.262 80.67C264.662 80.79 265.135 80.85 265.682 80.85C266.315 80.85 266.905 80.7667 267.452 80.6C267.999 80.4333 268.512 80.2067 268.992 79.92L268.842 81.32C268.409 81.5933 267.905 81.8133 267.332 81.98C266.759 82.14 266.122 82.22 265.422 82.22ZM268.722 77.77H261.782V76.55H268.722V77.77Z" fill="white"/>
</svg>
