<svg width="53" height="36" viewBox="0 0 53 36" fill="none" xmlns="http://www.w3.org/2000/svg">
<path fill-rule="evenodd" clip-rule="evenodd" d="M25.2984 2.90993C25.3459 2.96468 25.415 2.94968 25.4745 2.96393C26.0919 3.11468 26.5184 3.48668 26.7079 4.09943C26.956 4.90118 26.5897 5.73743 25.8311 6.10193C25.5978 6.13793 25.5755 6.29318 25.577 6.49868C25.5844 8.01293 25.5807 9.52718 25.5807 11.0422C25.5807 11.0977 25.5792 11.1539 25.5815 11.2094C25.5822 11.2394 25.5718 11.2754 25.6038 11.2949C25.6402 11.3182 25.6617 11.2829 25.6825 11.2642C25.7241 11.2267 25.7613 11.1862 25.8007 11.1464C26.5206 10.4197 27.2406 9.69293 27.9613 8.96543C27.9999 8.92643 28.0386 8.88593 28.0794 8.84768C28.2184 8.71868 28.3811 8.64668 28.572 8.64968C28.659 8.65043 28.7459 8.64968 28.8328 8.64968C29.9146 8.64968 30.9964 8.65118 32.0782 8.65193C32.1339 8.65193 32.1889 8.65118 32.2446 8.65118C32.3271 8.65043 32.3999 8.62193 32.4586 8.56418C32.6778 8.34518 32.894 8.12468 33.114 7.90643C33.166 7.85543 33.1437 7.80668 33.1199 7.75568C32.9914 7.48343 32.9431 7.19693 32.9624 6.89618C33.0092 6.16793 33.5701 5.53868 34.2782 5.39543C35.1126 5.22668 36.0517 5.75468 36.2234 6.74318C36.3779 7.63793 35.8251 8.43593 34.9856 8.64668C34.6609 8.72768 34.3436 8.69843 34.0308 8.58893C33.9788 8.57018 33.9268 8.54993 33.8777 8.52443C33.8109 8.49068 33.7604 8.50718 33.7091 8.55893C33.5427 8.72993 33.3733 8.89643 33.2061 9.06593C33.111 9.16118 33.0151 9.25643 32.923 9.35468C32.7952 9.49043 32.6407 9.55043 32.4564 9.54818C32.2276 9.54593 31.9987 9.54668 31.7699 9.54818C31.7253 9.54818 31.6807 9.55568 31.622 9.56093C31.6555 9.64868 31.7142 9.69068 31.7624 9.73943C32.1354 10.1174 32.5099 10.4939 32.8836 10.8727C32.9334 10.9229 32.9862 10.9739 33.0255 11.0324C33.1474 11.2094 33.1318 11.4314 32.9928 11.5822C32.8442 11.7434 32.6191 11.7727 32.4326 11.6489C32.368 11.6054 32.3108 11.5477 32.2558 11.4914C31.6971 10.9289 31.1391 10.3642 30.5811 9.80093C30.5417 9.76118 30.5001 9.72368 30.4644 9.68168C30.376 9.57443 30.2631 9.54293 30.1279 9.54443C29.6939 9.54893 29.2593 9.55043 28.8246 9.54443C28.6872 9.54293 28.5869 9.59243 28.4918 9.68918C27.5675 10.6267 26.6402 11.5619 25.7122 12.4957C25.6231 12.5849 25.5755 12.6787 25.5763 12.8107C25.5807 14.0707 25.5792 15.3292 25.58 16.5884C25.58 16.6192 25.5852 16.6492 25.5882 16.6792C25.6654 16.6957 25.6892 16.6334 25.7256 16.5982C26.2576 16.0642 26.7874 15.5279 27.3179 14.9924C27.3676 14.9422 27.4174 14.8897 27.4687 14.8402C27.5883 14.7254 27.7302 14.6647 27.8959 14.6632C27.9747 14.6632 28.0542 14.6624 28.1329 14.6632C30.7705 14.6639 33.4074 14.6654 36.0443 14.6662C36.0919 14.6662 36.1394 14.6647 36.1862 14.6669C36.3296 14.6737 36.4448 14.6204 36.5458 14.5177C37.219 13.8337 37.8936 13.1519 38.5683 12.4687C38.5906 12.4462 38.6121 12.4214 38.6329 12.3982C38.6567 12.3727 38.6611 12.3412 38.6485 12.3104C38.6233 12.2437 38.592 12.1784 38.5675 12.1109C38.2414 11.2342 38.7109 10.1579 39.7437 9.92093C40.8448 9.66968 41.7282 10.5307 41.7579 11.4674C41.7832 12.2864 41.2497 12.9929 40.4518 13.1707C40.1613 13.2352 39.8707 13.2187 39.5877 13.1182C39.5208 13.0942 39.4547 13.0687 39.3885 13.0417C39.3462 13.0252 39.312 13.0349 39.2801 13.0642C39.257 13.0852 39.2347 13.1092 39.2124 13.1309C38.7548 13.5929 38.2963 14.0549 37.8386 14.5177C37.8104 14.5454 37.7829 14.5739 37.7599 14.6054C37.7443 14.6272 37.7547 14.6579 37.7785 14.6594C37.8491 14.6662 37.9196 14.6654 37.991 14.6654C39.4361 14.6662 40.8812 14.6669 42.3256 14.6669C42.4043 14.6669 42.4838 14.6639 42.5626 14.6722C42.81 14.6962 42.9742 14.8762 42.9713 15.1132C42.969 15.3517 42.8011 15.5272 42.5537 15.5452C42.4749 15.5519 42.3954 15.5482 42.3167 15.5482C39.3321 15.5482 36.3475 15.5482 33.3629 15.5482C33.2841 15.5482 33.2053 15.5497 33.1258 15.5519C33.0946 15.5527 33.0738 15.5962 33.0939 15.6202C33.1355 15.6674 33.1786 15.7147 33.2224 15.7604C33.5219 16.0672 33.822 16.3732 34.12 16.6814C34.169 16.7317 34.2195 16.7849 34.2559 16.8449C34.3637 17.0212 34.3302 17.2529 34.1831 17.3917C34.033 17.5334 33.8064 17.5522 33.6385 17.4307C33.5746 17.3842 33.5204 17.3242 33.4654 17.2679C32.9824 16.7752 32.5002 16.2817 32.0173 15.7874C31.9727 15.7417 31.9281 15.6967 31.8843 15.6509C31.8137 15.5789 31.729 15.5444 31.6287 15.5474C31.5893 15.5489 31.5499 15.5474 31.5106 15.5474C30.4369 15.5467 29.3626 15.5467 28.2889 15.5467C28.2414 15.5467 28.1946 15.5467 28.147 15.5467C28.0556 15.5489 27.9784 15.5834 27.913 15.6464C27.8966 15.6622 27.8796 15.6802 27.8625 15.6967C27.1477 16.4182 26.4344 17.1404 25.7174 17.8597C25.6209 17.9564 25.5688 18.0584 25.5755 18.1972C25.583 18.3479 25.5778 18.4994 25.5778 18.6509C25.5778 23.9992 25.5778 29.3474 25.5778 34.6957C25.5778 35.0572 25.6253 35.0084 25.2642 35.0122C25.1141 35.0144 24.964 35.0144 24.814 35.0114C24.7122 35.0099 24.6973 34.9912 24.6936 34.8809C24.6921 34.8254 24.6929 34.7699 24.6929 34.7137C24.6936 30.2017 24.6951 25.6912 24.6958 21.1799C24.6958 20.7374 24.6936 20.7299 24.389 20.4232C23.2381 19.2629 22.0872 18.1019 20.9363 16.9417C20.8917 16.8967 20.8471 16.8517 20.8018 16.8067C20.6666 16.6724 20.6651 16.6679 20.4801 16.7474C19.6502 17.1014 18.6568 16.7069 18.3105 15.8152C17.9115 14.7877 18.6033 13.6972 19.6279 13.5637C20.5091 13.4489 21.307 14.0564 21.469 14.9137C21.527 15.2212 21.4876 15.5152 21.3873 15.8054C21.3687 15.8579 21.3457 15.9097 21.3256 15.9607C21.3115 15.9944 21.3211 16.0252 21.3412 16.0499C21.3657 16.0814 21.3954 16.1077 21.4229 16.1354C22.4609 17.1839 23.4996 18.2324 24.5391 19.2794C24.5755 19.3169 24.6015 19.3724 24.6646 19.3717C24.7085 19.3327 24.6906 19.2817 24.6906 19.2374C24.6929 18.1214 24.6899 17.0054 24.6973 15.8894C24.6988 15.7177 24.62 15.6089 24.5108 15.4987C23.4714 14.4517 22.4334 13.4024 21.3954 12.3547C21.3115 12.2699 21.2268 12.1859 21.1443 12.1004C21.0685 12.0217 20.9794 11.9819 20.8694 11.9864C20.775 11.9887 20.6799 11.9864 20.5848 11.9864C18.8559 11.9864 17.1269 11.9879 15.3973 11.9887C15.3259 11.9887 15.2553 11.9887 15.184 11.9887C14.976 11.9887 14.8014 11.9159 14.6543 11.7644C14.3563 11.4577 14.0524 11.1547 13.7515 10.8494C13.7129 10.8104 13.6668 10.7752 13.6349 10.7317C13.5257 10.5772 13.3964 10.5389 13.2344 10.6492C12.5486 10.8787 11.9304 10.7632 11.4341 10.2247C10.9601 9.71018 10.8553 9.09518 11.1265 8.45018C11.394 7.81418 11.8933 7.47668 12.5821 7.44218C13.3741 7.40243 14.0524 7.96043 14.2293 8.68418C14.308 9.00968 14.2947 9.33218 14.1899 9.65018C14.1676 9.71843 14.1401 9.78443 14.1126 9.85043C14.0918 9.89993 14.0985 9.94268 14.1357 9.98093C14.1862 10.0312 14.2352 10.0829 14.2857 10.1339C14.5592 10.4107 14.8348 10.6844 15.1045 10.9642C15.1937 11.0572 15.2903 11.0962 15.4188 11.0954C16.1692 11.0909 16.9189 11.0924 17.6693 11.0917C17.7005 11.0917 17.7325 11.0894 17.7637 11.0872C17.7949 11.0842 17.812 11.0422 17.7897 11.0167C17.7481 10.9694 17.705 10.9222 17.6604 10.8772C17.4769 10.6904 17.2919 10.5052 17.1084 10.3184C17.0155 10.2254 16.9575 10.1174 16.9575 9.98018C16.9583 9.64418 17.2971 9.43718 17.595 9.59168C17.6738 9.63293 17.7332 9.69668 17.7949 9.75818C18.1523 10.1182 18.5097 10.4797 18.867 10.8404C18.9005 10.8742 18.9369 10.9057 18.9666 10.9424C19.0587 11.0557 19.1739 11.1007 19.3203 11.0947C19.5409 11.0857 19.7623 11.0924 19.9838 11.0917C20.3307 11.0917 20.6792 11.1022 21.0254 11.0864C21.2847 11.0752 21.4757 11.1749 21.6533 11.3564C22.5865 12.3074 23.5264 13.2524 24.4648 14.1989C24.5242 14.2589 24.5874 14.3144 24.6624 14.3849C24.7018 14.2972 24.6906 14.2259 24.6906 14.1569C24.6914 13.2164 24.6921 12.2759 24.6921 11.3354C24.6921 11.0804 24.6884 10.8247 24.6943 10.5704C24.6973 10.4332 24.6602 10.3199 24.5584 10.2292C24.5235 10.1969 24.4915 10.1609 24.4581 10.1272C23.0063 8.64068 21.5537 7.15193 20.1026 5.66468C20.0365 5.59718 19.9741 5.52443 19.9132 5.45168C19.8121 5.33168 19.8121 5.08418 19.905 4.95593C20.012 4.80893 20.1576 4.74593 20.3382 4.76843C20.4117 4.77668 20.4756 4.80818 20.5299 4.85393C20.5841 4.90043 20.6354 4.95068 20.6851 5.00093C21.9482 6.29543 23.2106 7.59068 24.4766 8.88368C24.5324 8.94068 24.5628 9.03743 24.6646 9.03893C24.7047 8.96468 24.6854 8.88443 24.6854 8.80718C24.6884 8.02643 24.6891 7.24493 24.6906 6.46418C24.6906 6.41693 24.6884 6.36818 24.6906 6.32093C24.6951 6.23918 24.6639 6.18968 24.5836 6.15893C24.3459 6.06668 24.1334 5.93318 23.9528 5.74718C23.0991 4.86218 23.4803 3.36293 24.6505 3.00143C24.7545 2.96918 24.8719 2.98118 24.964 2.90918C25.0777 2.90993 25.1877 2.90993 25.2984 2.90993Z" fill="#018FDE"/>
<path fill-rule="evenodd" clip-rule="evenodd" d="M16.3412 24.7889C16.2639 24.7342 16.2 24.7522 16.1399 24.7499C15.2007 24.7184 14.2608 24.7289 13.3217 24.7267C12.2235 24.7244 11.1261 24.7274 10.0287 24.7289C9.87048 24.7289 9.71222 24.7402 9.55471 24.7319C9.37044 24.7214 9.2263 24.7567 9.18767 24.9674C8.86595 25.6117 8.34957 25.9619 7.63481 25.9477C6.74693 25.9304 6.17631 25.2449 6.05669 24.5549C5.891 23.6002 6.62731 22.5944 7.73957 22.6252C8.33545 22.6409 8.78942 22.9319 9.10148 23.4449C9.13046 23.4922 9.16538 23.5402 9.17801 23.5927C9.22482 23.7907 9.34518 23.8357 9.5391 23.8342C11.1417 23.8259 12.7444 23.8304 14.3478 23.8282C14.4317 23.8282 14.5179 23.8439 14.61 23.8102C14.59 23.7277 14.5276 23.6879 14.4793 23.6399C13.9465 23.1067 13.4123 22.5749 12.8789 22.0424C12.8283 21.9929 12.7756 21.9434 12.731 21.8879C12.5876 21.7094 12.598 21.4604 12.7466 21.2984C12.9071 21.1237 13.1991 21.1282 13.3477 21.2699C13.4279 21.3472 13.5082 21.4237 13.5869 21.5024C14.2943 22.2089 15.0009 22.9154 15.7074 23.6227C15.7468 23.6617 15.7855 23.7007 15.8256 23.7404C15.8962 23.8102 15.9809 23.8477 16.0812 23.8469C16.1361 23.8469 16.1919 23.8477 16.2469 23.8477C17.952 23.8477 19.6579 23.8469 21.3631 23.8469C21.6306 23.8469 21.6425 23.8739 21.6417 23.5784C21.6402 23.0677 21.6365 22.5584 21.6454 22.0484C21.6484 21.8812 21.5927 21.7642 21.4775 21.6494C20.6261 20.7959 19.7761 19.9409 18.9328 19.0784C18.7983 18.9404 18.6594 18.8894 18.4721 18.8902C16.0009 18.8947 13.529 18.8932 11.0578 18.8932C11.0102 18.8932 10.9627 18.8917 10.9151 18.8939C10.7806 18.8992 10.6692 18.8459 10.5719 18.7574C10.5362 18.7252 10.5043 18.6899 10.4708 18.6562C9.86751 18.0472 9.26345 17.4397 8.66014 16.8307C8.63191 16.8029 8.60219 16.7767 8.57693 16.7459C8.52269 16.6844 8.46771 16.6747 8.38895 16.7122C8.15714 16.8209 7.91418 16.8794 7.65562 16.8757C6.85318 16.8652 6.1778 16.2577 6.05075 15.4552C5.91701 14.6077 6.51363 13.5802 7.64298 13.5509C8.51452 13.5277 9.12154 14.1367 9.285 14.8349C9.36004 15.1552 9.33181 15.4679 9.23076 15.7762C9.21367 15.8294 9.19733 15.8842 9.17058 15.9329C9.12897 16.0094 9.14903 16.0642 9.20699 16.1219C9.42097 16.3342 9.63124 16.5494 9.84373 16.7639C10.2063 17.1307 10.5711 17.4952 10.93 17.8649C11.0318 17.9707 11.1417 18.0149 11.2866 18.0142C12.4947 18.0104 13.7028 18.0112 14.911 18.0097C14.9422 18.0097 14.9741 18.0082 15.0053 18.0052C15.0365 18.0029 15.0581 17.9587 15.0373 17.9362C15.0009 17.8942 14.9622 17.8544 14.9236 17.8147C14.7341 17.6227 14.5447 17.4299 14.3537 17.2387C14.2608 17.1457 14.1992 17.0399 14.1992 16.9027C14.1977 16.5644 14.5291 16.3529 14.83 16.5014C14.9095 16.5404 14.9696 16.6049 15.0306 16.6672C15.4102 17.0512 15.7936 17.4307 16.1666 17.8192C16.2966 17.9557 16.4348 18.0187 16.625 18.0157C17.3279 18.0059 18.0308 18.0104 18.7329 18.0112C18.8191 18.0112 18.9068 18.0127 18.9922 18.0262C19.0955 18.0427 19.1854 18.0959 19.2619 18.1672C19.3199 18.2204 19.3756 18.2774 19.4313 18.3344C20.3586 19.2697 21.2851 20.2049 22.2116 21.1409C22.245 21.1747 22.2785 21.2084 22.3119 21.2422C22.4427 21.3712 22.511 21.5272 22.5103 21.7124C22.5103 21.7679 22.511 21.8242 22.511 21.8804C22.5103 26.1689 22.5103 30.4567 22.5088 34.7444C22.5088 35.0392 22.537 35.0099 22.2406 35.0099C22.0667 35.0114 21.8936 35.0092 21.7197 35.0069C21.6752 35.0062 21.6454 34.9837 21.6432 34.9357C21.641 34.8562 21.6395 34.7759 21.6395 34.6964C21.6395 31.4932 21.6395 28.2884 21.6395 25.0852C21.6395 25.0132 21.641 24.9419 21.6388 24.8699C21.635 24.7559 21.615 24.7357 21.4969 24.7297C21.4419 24.7267 21.3861 24.7289 21.3312 24.7289C20.21 24.7282 19.0888 24.7274 17.9676 24.7274C17.9126 24.7274 17.8577 24.7282 17.8019 24.7282C17.7276 24.7289 17.663 24.7544 17.6102 24.8062C17.5709 24.8459 17.5315 24.8842 17.4921 24.9239C16.8338 25.5899 16.1755 26.2552 15.5172 26.9197C15.4838 26.9542 15.4519 26.9894 15.4169 27.0224C15.3686 27.0674 15.3686 27.1162 15.3946 27.1724C15.4578 27.3104 15.5068 27.4529 15.5351 27.6022C15.7134 28.5397 15.0484 29.5424 13.9443 29.5732C13.1694 29.5942 12.5193 29.0737 12.3253 28.3499C12.0757 27.4192 12.6508 26.4172 13.7036 26.2574C13.9733 26.2169 14.2393 26.2552 14.4956 26.3504C14.5476 26.3692 14.5982 26.3909 14.6487 26.4142C14.6903 26.4337 14.7252 26.4224 14.7557 26.3932C14.7787 26.3714 14.801 26.3489 14.8233 26.3264C15.2981 25.8472 15.7728 25.3687 16.2469 24.8894C16.2781 24.8617 16.3026 24.8309 16.3412 24.7889Z" fill="#018FDE"/>
<path fill-rule="evenodd" clip-rule="evenodd" d="M27.7608 28.2751C27.7608 26.1308 27.7608 23.9866 27.7608 21.8423C27.7608 21.7951 27.7615 21.7471 27.7608 21.6998C27.7586 21.5311 27.8202 21.3886 27.9354 21.2693C28.029 21.1726 28.1249 21.0773 28.22 20.9821C28.7051 20.4908 29.1963 20.0056 29.6725 19.5068C29.862 19.3073 30.0723 19.2226 30.3442 19.2233C32.3258 19.2301 34.3081 19.2248 36.2896 19.2323C36.4865 19.2331 36.6292 19.2098 36.6686 18.9886C36.9442 18.3706 37.5928 17.9378 38.3633 18.0203C39.029 18.0908 39.6227 18.6068 39.7728 19.2916C40.0343 20.4863 39.0833 21.3428 38.2028 21.3346C37.5423 21.3271 37.0586 21.0293 36.7228 20.4661C36.6983 20.4248 36.6775 20.3821 36.6582 20.3386C36.5467 20.0911 36.6099 20.1233 36.3089 20.1226C34.4143 20.1211 32.5189 20.1211 30.6243 20.1211C30.5931 20.1211 30.5611 20.1233 30.5299 20.1211C30.3754 20.1053 30.261 20.1698 30.154 20.2801C29.7052 20.7406 29.2527 21.1966 28.7973 21.6496C28.6947 21.7516 28.6405 21.8581 28.642 22.0066C28.6472 22.5638 28.6442 23.1218 28.6442 23.6798C28.6442 23.6881 28.6442 23.6956 28.6442 23.7031C28.6487 23.8126 28.6658 23.8321 28.7646 23.8366C28.8359 23.8396 28.9072 23.8388 28.9786 23.8388C32.2314 23.8388 35.485 23.8388 38.7378 23.8388C39.4013 23.8388 40.064 23.8388 40.7275 23.8388C40.7907 23.8381 40.8538 23.8388 40.917 23.8366C40.9683 23.8351 41.0069 23.8133 41.0262 23.7616C41.05 23.7031 41.0715 23.6431 41.1005 23.5861C41.4141 22.9583 41.9223 22.6208 42.6162 22.6253C43.4461 22.6306 44.1639 23.2523 44.2382 24.1576C44.3117 25.0636 43.6661 25.7926 42.8718 25.9238C42.1206 26.0483 41.3999 25.6711 41.0931 24.9623C41.021 24.7958 40.9393 24.7433 40.7647 24.7441C38.5617 24.7501 36.3587 24.7478 34.1558 24.7501C34.0837 24.7501 33.9782 24.7036 33.9462 24.7906C33.9239 24.8498 34.0176 24.9023 34.0644 24.9533C34.4968 25.4183 34.9448 25.8683 35.3973 26.3131C35.4315 26.3468 35.4657 26.3798 35.5021 26.4113C35.534 26.4391 35.5704 26.4466 35.6113 26.4271C35.6544 26.4083 35.6975 26.3881 35.742 26.3701C36.6277 26.0033 37.7585 26.4728 37.9777 27.5993C38.1813 28.6463 37.3893 29.5111 36.4895 29.5673C35.5838 29.6251 34.9091 29.0138 34.7516 28.2616C34.69 27.9668 34.7085 27.6751 34.7992 27.3886C34.8207 27.3196 34.8423 27.2506 34.875 27.1876C34.9166 27.1081 34.8913 27.0526 34.8326 26.9993C34.7977 26.9671 34.7658 26.9311 34.7323 26.8973C34.08 26.2373 33.4261 25.5773 32.773 24.9181C32.7396 24.8836 32.7062 24.8506 32.672 24.8168C32.6126 24.7606 32.542 24.7283 32.4588 24.7283C32.4119 24.7291 32.3644 24.7276 32.3168 24.7276C31.1875 24.7283 30.0589 24.7283 28.9295 24.7298C28.6286 24.7298 28.645 24.7058 28.645 25.0111C28.645 28.2308 28.645 31.4513 28.6442 34.6718C28.6442 35.0633 28.6947 35.0071 28.3039 35.0108C28.1538 35.0131 28.0038 35.0108 27.8537 35.0093C27.7987 35.0086 27.7653 34.9823 27.7645 34.9231C27.7638 34.8511 27.763 34.7798 27.763 34.7086C27.7615 32.5636 27.7615 30.4193 27.7608 28.2751Z" fill="#018FDE"/>
</svg>
