<svg width="22" height="28" viewBox="0 0 22 28" fill="none" xmlns="http://www.w3.org/2000/svg">
<path d="M2.0625 11.6662V25.6666C2.0625 25.8506 2.2165 25.9999 2.40625 25.9999H19.5938C19.6849 25.9999 19.7724 25.9648 19.8368 25.9023C19.9013 25.8398 19.9375 25.755 19.9375 25.6666V11.6662C19.9375 11.5777 19.9013 11.493 19.8368 11.4304C19.7724 11.3679 19.6849 11.3328 19.5938 11.3328H16.1562C15.8827 11.3328 15.6204 11.2274 15.427 11.0399C15.2337 10.8524 15.125 10.598 15.125 10.3328C15.125 10.0676 15.2337 9.81319 15.427 9.62565C15.6204 9.43811 15.8827 9.33275 16.1562 9.33275H19.5938C20.922 9.33275 22 10.3781 22 11.6662V25.6666C22 26.2854 21.7465 26.879 21.2952 27.3166C20.844 27.7542 20.2319 28 19.5938 28H2.40625C1.76807 28 1.15603 27.7542 0.704774 27.3166C0.253515 26.879 0 26.2854 0 25.6666V11.6662C0 10.3781 1.078 9.33275 2.40625 9.33275H5.84375C6.11725 9.33275 6.37956 9.43811 6.57295 9.62565C6.76635 9.81319 6.875 10.0676 6.875 10.3328C6.875 10.598 6.76635 10.8524 6.57295 11.0399C6.37956 11.2274 6.11725 11.3328 5.84375 11.3328H2.40625C2.31508 11.3328 2.22765 11.3679 2.16318 11.4304C2.09872 11.493 2.0625 11.5777 2.0625 11.6662ZM11.7287 0.292463L16.1975 4.62593C16.3332 4.74816 16.4325 4.90364 16.4848 5.07598C16.537 5.24831 16.5404 5.43113 16.4945 5.60517C16.4486 5.77921 16.3552 5.93802 16.224 6.06488C16.0929 6.19173 15.9288 6.28194 15.7493 6.32599C15.57 6.3704 15.3817 6.36722 15.2041 6.31678C15.0265 6.26634 14.8662 6.1705 14.74 6.03931L12.0312 3.41256V17.6663C12.0312 17.9316 11.9226 18.1859 11.7292 18.3735C11.5358 18.561 11.2735 18.6664 11 18.6664C10.7265 18.6664 10.4642 18.561 10.2708 18.3735C10.0774 18.1859 9.96875 17.9316 9.96875 17.6663V3.41256L7.26 6.03931C7.06455 6.21617 6.80591 6.31252 6.53862 6.30804C6.27134 6.30357 6.01628 6.19861 5.82725 6.01531C5.63822 5.832 5.52999 5.58467 5.52538 5.32547C5.52076 5.06627 5.62012 4.81547 5.8025 4.62593L10.2713 0.292463C10.4646 0.105189 10.7267 0 11 0C11.2733 0 11.5354 0.105189 11.7287 0.292463Z" fill="black"/>
</svg>
