<svg width="29" height="29" viewBox="0 0 29 29" fill="none" xmlns="http://www.w3.org/2000/svg">
<g clip-path="url(#clip0_135_2151)">
<path d="M14.4595 28.9221C6.47408 28.9221 0 22.4467 0 14.4599C0 6.47391 6.47408 0 14.4595 0C22.4473 0 28.9206 6.47467 28.9206 14.4599C28.9214 22.4482 22.4458 28.9221 14.4595 28.9221Z" fill="#515151"/>
<path fill-rule="evenodd" clip-rule="evenodd" d="M21.1504 9.35448C19.8692 9.14096 18.8958 8.38947 18.2879 7.30593C17.8252 6.48149 17.256 6.2239 16.3928 6.35916C16.1998 6.38955 15.9947 6.39031 15.8024 6.35916C15.1922 6.26038 15.0296 6.49517 15.041 7.10533C15.0805 9.30205 15.0562 11.5003 15.0555 13.6985C15.0555 14.6164 15.098 15.5374 15.0395 16.453C14.9529 17.8283 13.8913 18.7204 12.5236 18.6459C11.2652 18.5768 10.3314 17.5814 10.3397 16.317C10.3488 15.0161 11.2873 14.0124 12.6505 14.0321C13.4886 14.0443 13.7705 13.7829 13.652 12.985C13.6087 12.6971 13.617 12.3924 13.6512 12.1013C13.7188 11.5208 13.5403 11.3103 12.9027 11.3088C10.0616 11.3012 7.76299 13.4409 7.67789 16.2417C7.59658 18.9347 9.87923 21.2879 12.6193 21.3305C15.4194 21.3753 17.6489 19.1626 17.6747 16.2911C17.6907 14.3946 17.677 12.4972 17.677 10.5034C18.2157 10.8468 18.6337 11.1606 19.0904 11.3954C20.9118 12.3308 21.3031 12.1249 21.5812 10.1341C21.585 10.1014 21.5873 10.0687 21.5934 10.0368C21.677 9.65918 21.601 9.42895 21.1504 9.35448Z" fill="#FEFEFE"/>
</g>
<defs>
<clipPath id="clip0_135_2151">
<rect width="28.9214" height="28.9214" fill="white"/>
</clipPath>
</defs>
</svg>
