<svg width="28" height="29" viewBox="0 0 28 29" fill="none" xmlns="http://www.w3.org/2000/svg">
<g clip-path="url(#clip0_135_2168)">
<path d="M14.0398 28.4897C6.41132 28.4897 0.226562 22.3048 0.226562 14.6762C0.226562 7.04827 6.41132 0.863342 14.0398 0.863342C21.6682 0.863342 27.8522 7.04827 27.8522 14.6762C27.8529 22.3062 21.6682 28.4897 14.0398 28.4897Z" fill="#C7E2FF"/>
<path d="M6.67969 19.3005C8.01593 20.1585 9.60259 20.6586 11.3083 20.6586C16.9153 20.6586 20.0828 15.9224 19.8919 11.6755C20.482 11.2502 20.9937 10.7189 21.398 10.1128C20.8565 10.353 20.2737 10.5156 19.6633 10.5882C20.286 10.2151 20.7658 9.62283 20.9901 8.91731C20.4065 9.26354 19.7605 9.51396 19.0732 9.65042C18.5208 9.06248 17.7369 8.69666 16.8681 8.69666C14.9185 8.69666 13.4872 10.5156 13.9271 12.4043C11.4172 12.2787 9.19177 11.076 7.7031 9.24902C6.91195 10.6071 7.29301 12.3818 8.63724 13.2811C8.1415 13.2658 7.67625 13.1294 7.26833 12.9029C7.23567 14.3031 8.23876 15.6111 9.69114 15.9028C9.26508 16.0175 8.7991 16.0444 8.32731 15.9537C8.71055 17.1542 9.82542 18.0259 11.1486 18.0521C9.88058 19.0465 8.28158 19.4907 6.67969 19.3005Z" fill="white"/>
</g>
<defs>
<clipPath id="clip0_135_2168">
<rect width="27.6264" height="27.6264" fill="white" transform="translate(0.226562 0.863281)"/>
</clipPath>
</defs>
</svg>
