<svg width="30" height="29" viewBox="0 0 30 29" fill="none" xmlns="http://www.w3.org/2000/svg">
<g clip-path="url(#clip0_135_2155)">
<path d="M14.6938 28.8986C6.68683 28.8986 0.195312 22.4056 0.195312 14.3971C0.195312 6.3894 6.68683 -0.102112 14.6938 -0.102112C22.703 -0.102112 29.1938 6.39016 29.1938 14.3971C29.1945 22.4071 22.7015 28.8986 14.6938 28.8986Z" fill="#C1A6DD"/>
<path d="M22.2286 8.80849C22.2263 8.66525 22.2065 8.53192 22.0823 8.43896C18.822 8.46411 15.5626 8.48925 12.3039 8.51516C12.1134 8.6104 11.9305 8.70792 11.7774 8.86564C11.1549 9.50793 10.5263 10.1457 9.89469 10.778C9.71031 10.9632 9.61812 11.1605 9.62117 11.4272C9.6425 14.2699 9.66155 17.1126 9.69279 19.9561C9.69736 20.4163 9.78345 20.4947 10.2421 20.5001C10.9332 20.5077 11.6258 20.4864 12.3183 20.4917C12.6757 20.4947 12.7504 20.5686 12.7603 20.9237C12.7747 21.4342 12.7633 21.9454 12.7801 22.4567C12.7846 22.6022 12.7694 22.7637 12.9401 22.8437C13.177 22.8544 13.337 22.7165 13.4886 22.5633C14.0867 21.9569 14.6887 21.3534 15.2799 20.7393C15.4719 20.5397 15.683 20.4506 15.9588 20.4544C16.406 20.4605 16.8533 20.4513 17.3005 20.4445C17.5047 20.4414 17.667 20.3782 17.8125 20.2311C19.2342 18.7919 20.6537 17.348 22.0724 15.9057C22.2164 15.7602 22.2827 15.5964 22.2811 15.3922C22.2682 13.1964 22.2491 11.002 22.2286 8.80849ZM21.1078 14.8977C21.1093 15.0631 21.0567 15.1751 20.9447 15.2871C20.3649 15.8676 19.7897 16.4513 19.2182 17.0402C19.1062 17.1568 18.9897 17.2071 18.8281 17.2056C18.2956 17.201 17.7637 17.2162 17.2304 17.2124C17.0681 17.2109 16.9523 17.2619 16.8395 17.3785C16.3976 17.8395 15.9466 18.2928 15.4955 18.7454C15.4254 18.8162 15.3751 18.9206 15.2167 18.9397C15.2136 18.5953 15.2106 18.2585 15.2075 17.9225C15.203 17.2307 15.203 17.2307 14.4974 17.2368C14.0608 17.2398 13.6235 17.2299 13.1877 17.252C12.9424 17.2642 12.886 17.1774 12.8837 16.9435C12.8738 14.5686 12.8547 12.1937 12.8304 9.81879C12.8273 9.59708 12.8875 9.52926 13.113 9.52774C15.6685 9.51479 18.2247 9.49574 20.7802 9.46831C21.0065 9.46603 21.0666 9.53155 21.0666 9.75327C21.0727 11.4683 21.0887 13.1834 21.1078 14.8977Z" fill="#FEFEFE"/>
<path fill-rule="evenodd" clip-rule="evenodd" d="M19.5458 12.8307C19.5504 13.2452 19.5412 13.6612 19.561 14.0756C19.5717 14.3057 19.4841 14.3598 19.2692 14.3621C18.5355 14.3713 18.5355 14.3781 18.5294 13.6383C18.5233 12.9472 18.5271 12.2562 18.5081 11.5651C18.5027 11.3388 18.5789 11.2787 18.7984 11.2779C19.5351 11.2733 19.5351 11.2649 19.5412 12.0009C19.5428 12.2783 19.5443 12.5549 19.5458 12.8307Z" fill="#FEFEFE"/>
<path fill-rule="evenodd" clip-rule="evenodd" d="M15.6969 12.8664C15.6938 12.4314 15.6969 11.9963 15.6839 11.5613C15.6786 11.3708 15.7426 11.3076 15.9376 11.3007C16.7071 11.2763 16.7071 11.2695 16.7125 12.023C16.7178 12.7125 16.7155 13.4021 16.7315 14.0916C16.7376 14.311 16.6706 14.3827 16.4466 14.3849C15.709 14.3926 15.709 14.4009 15.7029 13.6626C15.7007 13.3967 15.6999 13.1324 15.6969 12.8664Z" fill="#FEFEFE"/>
</g>
<defs>
<clipPath id="clip0_135_2155">
<rect width="28.9992" height="29" fill="white" transform="translate(0.195312)"/>
</clipPath>
</defs>
</svg>
