<svg width="25" height="23" viewBox="0 0 25 23" fill="none" xmlns="http://www.w3.org/2000/svg">
<path d="M13.8529 15.8957C13.8529 16.6354 13.2432 17.2353 12.4912 17.2353H2.36174C1.60976 17.2353 1 16.6354 1 15.8957V2.33963C1 1.59985 1.60976 1 2.36174 1H12.4912C13.2432 1 13.8529 1.59985 13.8529 2.33963V15.8957Z" stroke="white" stroke-width="1.42483" stroke-miterlimit="10"/>
<path d="M19.941 18.6535C19.941 19.4241 19.2987 20.049 18.5077 20.049H7.84547C7.05394 20.049 6.41211 19.4241 6.41211 18.6535V4.53265C6.41211 3.76205 7.05394 3.13721 7.84547 3.13721H18.5082C19.2992 3.13721 19.9415 3.76205 19.9415 4.53265L19.941 18.6535Z" stroke="white" stroke-width="1.42483" stroke-miterlimit="10"/>
<path d="M23.9999 20.7909C23.9999 21.5615 23.3897 22.1863 22.6382 22.1863H12.5092C11.7572 22.1863 11.1475 21.5615 11.1475 20.7909V6.66994C11.1475 5.89937 11.7572 5.27454 12.5092 5.27454H22.6387C23.3902 5.27454 24.0004 5.89937 24.0004 6.66994L23.9999 20.7909Z" stroke="white" stroke-width="1.42483" stroke-miterlimit="10"/>
</svg>
