<svg width="25" height="24" viewBox="0 0 25 24" fill="none" xmlns="http://www.w3.org/2000/svg">
<path fill-rule="evenodd" clip-rule="evenodd" d="M1.71194 2.33964C1.71194 2.00428 1.9917 1.71243 2.36127 1.71243H12.4907C12.8603 1.71243 13.14 2.00428 13.14 2.33964V3.00001H14.5649V2.33964C14.5649 1.19546 13.6251 0.287598 12.4907 0.287598H2.36127C1.22687 0.287598 0.287109 1.19546 0.287109 2.33964V15.8957C0.287109 17.0399 1.22687 17.9477 2.36127 17.9477H5.99953V16.5229H2.36127C1.9917 16.5229 1.71194 16.231 1.71194 15.8957V2.33964Z" fill="white"/>
<path d="M23.8525 21.5164C23.8525 22.2869 23.2422 22.9118 22.4908 22.9118H12.3617C11.6097 22.9118 11 22.2869 11 21.5164V7.3954C11 6.62483 11.6097 6 12.3617 6H22.4912C23.2427 6 23.8529 6.62483 23.8529 7.3954L23.8525 21.5164Z" stroke="white" stroke-width="1.42483" stroke-miterlimit="10"/>
<path fill-rule="evenodd" clip-rule="evenodd" d="M6.71194 4.39546C6.71194 4.0362 7.01668 3.71243 7.43288 3.71243H18.0956C18.5114 3.71243 18.8165 4.03635 18.8165 4.39543V4.39546L18.8165 5H20.2413L20.2413 4.39548V4.39546C20.2413 3.21336 19.2618 2.2876 18.0956 2.2876H7.43288C6.26602 2.2876 5.28711 3.21352 5.28711 4.39546V18.5163C5.28711 19.6983 6.26602 20.6242 7.43288 20.6242H10.004C10.0014 20.5886 10 20.5526 10 20.5164V19.1994H7.43288C7.01668 19.1994 6.71194 18.8756 6.71194 18.5163V4.39546Z" fill="white"/>
</svg>
