<svg width="17" height="18" viewBox="0 0 17 18" fill="none" xmlns="http://www.w3.org/2000/svg">
<g clip-path="url(#clip0_1571_38)">
<path d="M8.04546 17.997L8.86197 18C13.429 17.7971 17.0003 13.8512 17.0003 9.001C17.0003 4.15078 13.4284 0.206208 8.86102 0.00266075L8.05237 0C8.04986 0.00133038 8.04735 0.00332594 8.04515 0.0056541C3.53054 0.258758 0 4.20266 0 9.001C0 13.8 3.53054 17.7439 8.04546 17.997ZM2.91204 14.8251C3.45115 14.4103 4.03481 14.0551 4.65048 13.7657C5.23509 15.0609 6.04783 16.2043 7.07049 17.1718C5.50056 16.8632 4.0414 16.0414 2.91204 14.8251ZM8.17098 17.2287C6.9274 16.2379 5.92607 14.9564 5.26208 13.5053C6.19437 13.1465 7.17122 12.9409 8.17098 12.8924V17.2287ZM8.17098 12.1959C7.07928 12.2451 6.01205 12.471 4.9966 12.8671C4.60938 11.8447 4.38156 10.7624 4.31817 9.64557L8.1713 9.64324L8.17098 12.1959ZM8.17098 8.94645L4.29683 8.94945C4.30248 7.80499 4.48009 6.68448 4.82652 5.61652C5.89344 6.06186 7.01746 6.31463 8.1713 6.36752L8.17098 8.94645ZM9.81685 17.1938C10.8869 16.1884 11.7273 14.9953 12.3184 13.6404C12.9796 13.9251 13.6078 14.2863 14.1887 14.716C13.017 16.0257 11.4819 16.8938 9.81685 17.1938ZM14.6233 14.1891C13.9882 13.7109 13.2991 13.3111 12.5717 12.9984C12.9608 11.9308 13.1889 10.802 13.2504 9.64024L16.3184 9.63825C16.1979 11.3105 15.6143 12.8784 14.6233 14.1891ZM14.8684 4.15643C15.8226 5.55998 16.331 7.21064 16.342 8.94246L13.2696 8.94412C13.2639 7.75843 13.0832 6.59268 12.7317 5.47783C13.4892 5.1306 14.2069 4.68659 14.8684 4.15643ZM14.4629 3.60831C13.8551 4.09423 13.1977 4.50233 12.5048 4.82328C11.918 3.29734 10.9945 1.9194 9.81622 0.807871C11.6256 1.13248 13.2592 2.1143 14.4629 3.60831ZM8.82839 0.846452C10.1984 1.96264 11.2534 3.41973 11.8936 5.08038C10.9079 5.45421 9.87836 5.65543 8.82839 5.67838V0.846452ZM8.82839 6.3765C9.95367 6.35322 11.0592 6.13703 12.1195 5.73392C12.4408 6.76763 12.6071 7.8469 12.6122 8.94379L8.82776 8.94612L8.82839 6.3765ZM8.82839 9.64257L12.5921 9.64058C12.5315 10.7178 12.3175 11.7652 11.9548 12.756C10.9487 12.4001 9.89813 12.2089 8.8287 12.1873L8.82839 9.64257ZM8.82839 12.883C9.80932 12.9043 10.7733 13.0779 11.6974 13.3999C11.0504 14.8577 10.0632 16.1494 8.82839 17.1559V12.883ZM8.17098 0.773614V5.6704C7.10062 5.61785 6.0563 5.38104 5.06281 4.96563C5.72054 3.3163 6.79184 1.87217 8.17098 0.773614ZM7.07175 0.82949C5.94082 1.9031 5.04367 3.22683 4.46001 4.68825C3.81359 4.36264 3.20137 3.9602 2.63684 3.48958C3.80292 2.09701 5.36124 1.16475 7.07175 0.82949ZM2.22075 4.02905C2.84113 4.5469 3.51234 4.98692 4.22058 5.33914C3.84057 6.4939 3.64539 7.70754 3.63974 8.94911L0.657407 8.95044C0.667448 7.16042 1.20718 5.46253 2.22075 4.02905ZM0.68251 9.64723L3.66014 9.6459C3.72415 10.8532 3.96829 12.0233 4.38658 13.1285C3.70627 13.4471 3.06204 13.8422 2.46896 14.3062C1.42307 12.9735 0.807402 11.3681 0.68251 9.64723Z" fill="black"/>
</g>
<defs>
<clipPath id="clip0_1571_38">
<rect width="17" height="18" fill="white"/>
</clipPath>
</defs>
</svg>
