<svg width="86" height="87" viewBox="0 0 86 87" fill="none" xmlns="http://www.w3.org/2000/svg">
<g clip-path="url(#clip0_115_1550)">
<path d="M1.83527 42.9793C1.83326 50.289 3.73601 57.4264 7.35405 63.7173L1.48926 85.2117L23.4031 79.4441C29.4642 82.7562 36.2552 84.4917 43.1562 84.4921H43.1744C65.956 84.4921 84.5007 65.8839 84.5105 43.012C84.5149 31.929 80.2189 21.5072 72.4137 13.6664C64.6099 5.82627 54.2311 1.50628 43.1727 1.50122C20.3884 1.50122 1.84502 20.1084 1.83561 42.9793" fill="url(#paint0_linear_115_1550)"/>
<path d="M0.359453 42.9659C0.357102 50.5386 2.32805 57.9312 6.07509 64.4475L0 86.7124L22.6996 80.738C28.9541 84.161 35.996 85.9658 43.1616 85.9685H43.1801C66.779 85.9685 85.9899 66.6909 86 43.0003C86.004 31.519 81.5535 20.7225 73.4695 12.6008C65.3845 4.48016 54.6345 0.00472093 43.1801 0C19.5771 0 0.368859 19.2749 0.359453 42.9659ZM13.8779 63.3252L13.0303 61.9747C9.46739 56.288 7.58681 49.7165 7.5895 42.9686C7.59689 23.2772 23.562 7.25675 43.1935 7.25675C52.7005 7.26079 61.6351 10.9809 68.3552 17.7305C75.075 24.4807 78.7726 33.4539 78.7703 42.9976C78.7616 62.6889 62.7961 78.7114 43.1801 78.7114H43.166C36.7788 78.708 30.5145 76.9863 25.0515 73.7325L23.7515 72.9586L10.281 76.5037L13.8779 63.3252Z" fill="url(#paint1_linear_115_1550)"/>
<path d="M32.4776 25.0035C31.676 23.2152 30.8325 23.1792 30.0702 23.1478C29.4461 23.1208 28.7325 23.1228 28.0197 23.1228C27.3062 23.1228 26.1468 23.3923 25.1669 24.4663C24.186 25.5413 21.4219 28.1392 21.4219 33.4229C21.4219 38.707 25.2559 43.8133 25.7904 44.5306C26.3256 45.2465 33.1921 56.4364 44.0671 60.7412C53.1051 64.3187 54.9444 63.6072 56.9059 63.4278C58.8678 63.2491 63.2364 60.8306 64.1276 58.3228C65.0195 55.8153 65.0195 53.6659 64.7521 53.2167C64.4847 52.7693 63.7712 52.5005 62.7012 51.9637C61.6309 51.4265 56.3708 48.8283 55.3902 48.4699C54.4093 48.1117 53.6961 47.933 52.9825 49.0084C52.269 50.0821 50.2201 52.5005 49.5956 53.2167C48.9718 53.9347 48.3473 54.024 47.2776 53.4869C46.207 52.948 42.7613 51.8153 38.6733 48.1569C35.4926 45.3102 33.3453 41.7948 32.7211 40.7194C32.097 39.6458 32.6543 39.0637 33.1908 38.5286C33.6715 38.0474 34.2611 37.2745 34.7966 36.6476C35.33 36.0204 35.5081 35.5729 35.8648 34.8567C36.2219 34.1398 36.0432 33.5126 35.7761 32.9754C35.5081 32.4382 33.429 27.1269 32.4776 25.0035Z" fill="white"/>
</g>
<defs>
<linearGradient id="paint0_linear_115_1550" x1="4152.55" y1="8372.55" x2="4152.55" y2="1.50122" gradientUnits="userSpaceOnUse">
<stop stop-color="#1FAF38"/>
<stop offset="1" stop-color="#60D669"/>
</linearGradient>
<linearGradient id="paint1_linear_115_1550" x1="4300" y1="8671.24" x2="4300" y2="0" gradientUnits="userSpaceOnUse">
<stop stop-color="#F9F9F9"/>
<stop offset="1" stop-color="white"/>
</linearGradient>
<clipPath id="clip0_115_1550">
<rect width="86" height="87" fill="white"/>
</clipPath>
</defs>
</svg>
