<svg width="34" height="34" viewBox="0 0 34 34" fill="none" xmlns="http://www.w3.org/2000/svg">
<g clip-path="url(#clip0_1575_83)">
<path d="M16.9987 33.9991C7.61094 33.9991 0 26.3875 0 16.9991C0 7.61163 7.61183 0 16.9987 0C26.3891 0 33.9991 7.61163 33.9991 16.9991C34 26.3893 26.3891 33.9991 16.9987 33.9991Z" fill="#6D1ED3"/>
<path fill-rule="evenodd" clip-rule="evenodd" d="M18.729 4.57443C18.8228 4.66376 18.9166 4.7513 19.0104 4.84063C19.1971 5.56419 19.0667 6.30114 19.0917 7.03095C19.1167 7.78488 19.0988 7.78577 19.8813 7.78667C20.9283 7.78756 21.9761 7.78041 23.0231 7.79292C23.2214 7.7947 23.4546 7.68662 23.6189 7.9019C23.7895 8.0341 23.9611 8.1672 24.1326 8.29941C24.4345 8.48164 24.2773 8.77731 24.2657 9.00242C24.229 9.71972 24.4283 10.4504 24.1531 11.1534C21.3347 14.748 18.5164 18.3434 15.7025 21.9344C15.8927 22.1979 16.1277 22.0881 16.3215 22.0899C18.6209 22.0988 20.9203 22.1041 23.2196 22.0863C23.6421 22.0827 23.9637 22.1908 24.1987 22.5401C24.3362 23.5468 24.3264 24.5517 24.204 25.5585C23.9753 25.9113 23.6591 26.0364 23.2348 26.0274C22.0637 26.0051 20.8917 26.0113 19.7205 26.0274C19.5026 26.0292 19.2426 25.8979 19.0622 26.1444C19.089 27.1476 19.1944 28.1525 19.0086 29.1521C18.8666 29.2477 18.7254 29.3442 18.5843 29.438C17.5355 29.5514 16.4868 29.6041 15.4398 29.4121C15.1459 29.2182 15.0816 28.9395 15.0906 28.6045C15.1075 27.9587 15.0682 27.3102 15.104 26.6661C15.1317 26.1757 14.9869 25.9944 14.4679 26.0087C13.1753 26.0435 11.8809 26.0033 10.5883 26.0265C9.90672 26.0408 9.71734 25.7371 9.64409 25.0806C9.46543 23.4807 9.97372 22.2301 11.0108 20.9858C13.446 18.0647 15.732 15.0222 18.076 12.0306C17.933 11.7823 17.7187 11.894 17.5507 11.8931C15.3719 11.8841 13.1923 11.8743 11.0126 11.8975C10.5168 11.9029 10.1836 11.751 9.98087 11.3062C9.84062 10.3531 9.80042 9.39903 10.0041 8.44769C10.2247 8.05108 10.5624 7.9153 11.0108 7.92334C12.1561 7.9421 13.3022 7.90815 14.4474 7.93852C14.9351 7.95192 15.1361 7.81793 15.104 7.30072C15.0638 6.65935 15.1066 6.01261 15.0888 5.36856C15.0789 5.03447 15.1513 4.75845 15.43 4.55746C16.5297 4.44133 17.6293 4.39935 18.729 4.57443Z" fill="#FEFEFE"/>
<path fill-rule="evenodd" clip-rule="evenodd" d="M23.618 7.90197C22.2602 7.90733 20.9033 7.89929 19.5455 7.9243C19.1506 7.93234 19.0005 7.8305 19.013 7.41245C19.039 6.55579 19.013 5.69735 19.0095 4.8407C19.3436 5.52138 19.1462 6.24583 19.1524 6.94705C19.1578 7.54376 19.3668 7.74564 19.951 7.7242C20.9024 7.68937 21.8564 7.7117 22.8096 7.71706C23.091 7.71884 23.3902 7.66078 23.618 7.90197Z" fill="#6306D1"/>
<path fill-rule="evenodd" clip-rule="evenodd" d="M18.729 4.57444C17.6293 4.56819 16.5288 4.56194 15.4291 4.55569C16.5297 4.32075 17.6302 4.29217 18.729 4.57444Z" fill="#6501D1"/>
<path fill-rule="evenodd" clip-rule="evenodd" d="M15.4372 29.4121C16.485 29.421 17.5329 29.43 18.5816 29.438C17.5311 29.681 16.4823 29.7105 15.4372 29.4121Z" fill="#6501D1"/>
<path fill-rule="evenodd" clip-rule="evenodd" d="M24.2014 25.5584C24.1996 24.5517 24.1978 23.5468 24.196 22.54C24.4443 23.5468 24.4345 24.5517 24.2014 25.5584Z" fill="#6501D1"/>
<path fill-rule="evenodd" clip-rule="evenodd" d="M19.005 29.1521C19.0229 28.1489 19.0407 27.1458 19.0586 26.1444C19.2051 27.1493 19.3043 28.1543 19.005 29.1521Z" fill="#5E00D0"/>
<path fill-rule="evenodd" clip-rule="evenodd" d="M24.1522 11.1535C24.2076 10.2021 24.2451 9.24989 24.1317 8.29944C24.4988 9.24899 24.4551 10.2003 24.1522 11.1535Z" fill="#6501D1"/>
<path fill-rule="evenodd" clip-rule="evenodd" d="M10.0023 8.44678C9.99426 9.39901 9.98712 10.353 9.97908 11.3053C9.72538 10.3504 9.67893 9.39723 10.0023 8.44678Z" fill="#6501D1"/>
</g>
<defs>
<clipPath id="clip0_1575_83">
<rect width="34" height="34" fill="white"/>
</clipPath>
</defs>
</svg>
